<?xml version="1.0" standalone="no"?>
<!DOCTYPE svg PUBLIC "-//W3C//DTD SVG 1.1//EN" "http://www.w3.org/Graphics/SVG/1.1/DTD/svg11.dtd" >
<svg xmlns="http://www.w3.org/2000/svg" xmlns:xlink="http://www.w3.org/1999/xlink" version="1.1">
<metadata>
Created by FontForge 20190801 at Mon Jun 15 19:27:58 2020
 By Jimmy Wärting
Copyright 2020 The Kanit Project Authors (https://github.com/cadsondemak/kanit)
</metadata>
<defs>
<font id="Kanit-MediumItalic" horiz-adv-x="0" >
  <font-face 
    font-family="Kanit Medium"
    font-weight="500"
    font-style="italic"
    font-stretch="normal"
    units-per-em="1000"
    panose-1="0 0 0 0 0 0 0 0 0 0"
    ascent="800"
    descent="-200"
    x-height="474"
    cap-height="644"
    bbox="-523 -363 1216 1088"
    underline-thickness="50"
    underline-position="-125"
    slope="-12"
    unicode-range="U+000D-FB02"
  />
<missing-glyph horiz-adv-x="486" 
d="M-19 0v714h411v-714h-411zM32 51h309v612h-309v-612z" />
    <glyph glyph-name="fi" unicode="fi" horiz-adv-x="548" 
d="M27 0l78 370h-66l22 104h66l10 47q16 74 71 121.5t167 47.5q80 0 123 -20l-21 -100q-11 7 -36.5 10.5t-45.5 3.5q-58 0 -86.5 -12.5t-37.5 -54.5l-9 -43h272l-100 -474h-135l78 370h-137l-78 -370h-135z" />
    <glyph glyph-name="fl" unicode="fl" horiz-adv-x="548" 
d="M27 0l78 370h-66l22 104h66l10 47q10 46 34 84.5t64.5 61.5t99.5 23q28 0 59 -2.5t61 -12.5h122l-143 -675h-135l78 370h-137l-78 -370h-135zM262 474h137l23 107q-11 4 -29 6t-31 2q-75 0 -91 -73z" />
    <glyph glyph-name="uni0E240E45" unicode="&#xe24;&#xe45;" horiz-adv-x="903" 
d="M334 -160l104 489q14 63 -6 89.5t-98 26.5q-45 0 -85.5 -13t-67.5 -33l-3 -14l105 -30l-17 -82q-42 -10 -60.5 -32.5t-28.5 -69.5l-6 -29q-4 -20 0.5 -28.5t26.5 -8.5h55l-22 -105h-122q-46 0 -68.5 30t-12.5 76l14 66q10 46 33 81.5t72 49.5l-96 27l27 129q49 35 123 63
t162 28q46 0 83.5 -7.5t65.5 -24.5q30 12 78 22t97 10q104 0 148 -51.5t24 -147.5l-109 -511h-135l105 492q13 61 -1.5 87t-79.5 26q-14 0 -34 -2t-37 -5q8 -20 10 -49t-5 -63l-104 -486h-135z" />
    <glyph glyph-name="uni0E260E45" unicode="&#xe26;&#xe45;" horiz-adv-x="939" 
d="M369 -160l104 489q14 63 -5 89.5t-87 26.5q-45 0 -85.5 -13t-67.5 -33l-3 -14l105 -30l-17 -82q-41 -12 -56.5 -33.5t-25.5 -68.5l-8 -37q-15 -71 -55.5 -102.5t-104.5 -31.5h-72l22 105h33q20 0 28.5 8t12.5 28l7 31q10 46 30.5 80t69.5 51l-96 27l27 129q49 35 123 63
t162 28q84 0 137 -32q32 14 82 23t94 9q104 0 148 -51.5t24 -147.5l-109 -511h-135l105 492q13 61 -1.5 87t-79.5 26q-15 0 -36 -1.5t-38 -5.5q8 -22 11 -50.5t-4 -61.5l-104 -486h-135z" />
    <glyph glyph-name=".notdef" horiz-adv-x="486" 
d="M-19 0v714h411v-714h-411zM32 51h309v612h-309v-612z" />
    <glyph glyph-name="A" unicode="A" horiz-adv-x="713" 
d="M-20 0l382 644h148l109 -644h-135l-29 155h-237l-92 -155h-146zM261 259h197l-44 259z" />
    <glyph glyph-name="Aacute" unicode="&#xc1;" horiz-adv-x="713" 
d="M386 688l120 187h117l-128 -187h-109zM-20 0l382 644h148l109 -644h-135l-29 155h-237l-92 -155h-146zM261 259h197l-44 259z" />
    <glyph glyph-name="Abreve" unicode="&#x102;" horiz-adv-x="713" 
d="M444 688q-69 0 -103.5 42t-18.5 115h84q-7 -31 1.5 -55t48.5 -24q35 0 57 24t29 55h95q-16 -73 -64 -115t-129 -42zM-20 0l382 644h148l109 -644h-135l-29 155h-237l-92 -155h-146zM261 259h197l-44 259z" />
    <glyph glyph-name="uni1EAE" unicode="&#x1eae;" horiz-adv-x="713" 
d="M419 818l96 141h102l-103 -141h-95zM447 688q-44 0 -78.5 16t-50 50.5t-3.5 89.5h77q-9 -41 4.5 -63t62.5 -22q83 0 102 85h83q-18 -83 -69 -119.5t-128 -36.5zM-20 0l382 644h148l109 -644h-135l-29 155h-237l-92 -155h-146zM261 259h197l-44 259z" />
    <glyph glyph-name="uni1EB6" unicode="&#x1eb6;" horiz-adv-x="713" 
d="M443 688q-69 0 -103.5 42t-18.5 115h84q-7 -31 1.5 -55t48.5 -24q35 0 57 24t29 55h95q-16 -73 -64 -115t-129 -42zM-20 0l382 644h148l109 -644h-135l-29 155h-237l-92 -155h-146zM261 259h197l-44 259zM208 -181l21 99h107l-21 -99h-107z" />
    <glyph glyph-name="uni1EB0" unicode="&#x1eb0;" horiz-adv-x="713" 
d="M433 818l-43 141h102l36 -141h-95zM447 688q-44 0 -78.5 16t-50 50.5t-3.5 89.5h77q-9 -41 4.5 -63t62.5 -22q83 0 102 85h83q-18 -83 -69 -119.5t-128 -36.5zM-20 0l382 644h148l109 -644h-135l-29 155h-237l-92 -155h-146zM261 259h197l-44 259z" />
    <glyph glyph-name="uni1EB2" unicode="&#x1eb2;" horiz-adv-x="713" 
d="M426 827l13 60q47 2 65.5 12.5t22.5 28.5q4 19 -6.5 25.5t-36.5 6.5q-15 0 -29.5 -3.5t-27.5 -8.5l12 57q18 5 42 8.5t49 3.5q50 0 73 -22t15 -58q-7 -33 -28.5 -51.5t-64.5 -26.5l-7 -32h-92zM447 688q-44 0 -78.5 16t-50 50.5t-3.5 89.5h77q-9 -41 4.5 -63t62.5 -22
q83 0 102 85h83q-18 -83 -69 -119.5t-128 -36.5zM-20 0l382 644h148l109 -644h-135l-29 155h-237l-92 -155h-146zM261 259h197l-44 259z" />
    <glyph glyph-name="uni1EB4" unicode="&#x1eb4;" horiz-adv-x="713" 
d="M570 865q-29 0 -54.5 10t-49 20t-48.5 10q-57 0 -98 -37l18 86q17 14 42.5 22.5t51.5 8.5q31 0 54.5 -10t46.5 -20t51 -10q57 0 90 38l-17 -86q-13 -13 -36 -22.5t-51 -9.5zM447 688q-44 0 -78.5 16t-50 50.5t-3.5 89.5h77q-9 -41 4.5 -63t62.5 -22q83 0 102 85h83
q-18 -83 -69 -119.5t-128 -36.5zM-20 0l382 644h148l109 -644h-135l-29 155h-237l-92 -155h-146zM261 259h197l-44 259z" />
    <glyph glyph-name="uni01CD" unicode="&#x1cd;" horiz-adv-x="713" 
d="M402 688l-97 174h100l50 -100l96 100h109l-172 -174h-86zM-20 0l382 644h148l109 -644h-135l-29 155h-237l-92 -155h-146zM261 259h197l-44 259z" />
    <glyph glyph-name="Acircumflex" unicode="&#xc2;" horiz-adv-x="713" 
d="M268 688l171 174h86l98 -174h-99l-53 100l-93 -100h-110zM-20 0l382 644h148l109 -644h-135l-29 155h-237l-92 -155h-146zM261 259h197l-44 259z" />
    <glyph glyph-name="uni1EA4" unicode="&#x1ea4;" horiz-adv-x="713" 
d="M568 805l95 141h102l-103 -141h-94zM264 688l154 135h103l98 -135h-104l-51 81l-84 -81h-116zM-20 0l382 644h148l109 -644h-135l-29 155h-237l-92 -155h-146zM261 259h197l-44 259z" />
    <glyph glyph-name="uni1EAC" unicode="&#x1eac;" horiz-adv-x="713" 
d="M268 688l171 174h86l98 -174h-99l-53 100l-93 -100h-110zM-20 0l382 644h148l109 -644h-135l-29 155h-237l-92 -155h-146zM261 259h197l-44 259zM208 -181l21 99h107l-21 -99h-107z" />
    <glyph glyph-name="uni1EA6" unicode="&#x1ea6;" horiz-adv-x="713" 
d="M274 805l-43 141h102l36 -141h-95zM268 688l154 135h103l98 -135h-104l-51 81l-84 -81h-116zM-20 0l382 644h148l109 -644h-135l-29 155h-237l-92 -155h-146zM261 259h197l-44 259z" />
    <glyph glyph-name="uni1EA8" unicode="&#x1ea8;" horiz-adv-x="713" 
d="M576 783l15 70q46 2 62 10.5t19 24.5q5 27 -39 27q-15 0 -29 -3.5t-27 -8.5l14 62q17 5 36.5 8.5t47.5 3.5q53 0 77 -22.5t16 -58.5q-7 -33 -29.5 -53t-63.5 -26l-7 -34h-92zM268 688l154 135h103l98 -135h-104l-51 81l-84 -81h-116zM-20 0l382 644h148l109 -644h-135
l-29 155h-237l-92 -155h-146zM261 259h197l-44 259z" />
    <glyph glyph-name="uni1EAA" unicode="&#x1eaa;" horiz-adv-x="713" 
d="M572 838q-29 0 -55 10t-49.5 20t-48.5 10q-55 0 -98 -37l19 86q16 14 41.5 22.5t51.5 8.5q31 0 55 -10t47 -20t51 -10q29 0 51.5 10t38.5 28l-19 -86q-12 -13 -34.5 -22.5t-50.5 -9.5zM268 688l154 135h103l98 -135h-104l-51 81l-84 -81h-116zM-20 0l382 644h148
l109 -644h-135l-29 155h-237l-92 -155h-146zM261 259h197l-44 259z" />
    <glyph glyph-name="Adieresis" unicode="&#xc4;" horiz-adv-x="713" 
d="M299 712l21 98h105l-21 -98h-105zM494 712l21 98h106l-21 -98h-106zM-20 0l382 644h148l109 -644h-135l-29 155h-237l-92 -155h-146zM261 259h197l-44 259z" />
    <glyph glyph-name="uni1EA0" unicode="&#x1ea0;" horiz-adv-x="713" 
d="M-20 0l382 644h148l109 -644h-135l-29 155h-237l-92 -155h-146zM261 259h197l-44 259zM208 -181l21 99h107l-21 -99h-107z" />
    <glyph glyph-name="Agrave" unicode="&#xc0;" horiz-adv-x="713" 
d="M389 688l-48 187h117l40 -187h-109zM-20 0l382 644h148l109 -644h-135l-29 155h-237l-92 -155h-146zM261 259h197l-44 259z" />
    <glyph glyph-name="uni1EA2" unicode="&#x1ea2;" horiz-adv-x="713" 
d="M396 688l17 81q56 3 76 14.5t24 33.5q5 20 -11.5 29.5t-48.5 9.5q-14 0 -32.5 -3t-32.5 -8l15 67q41 13 102 13q64 0 92 -26t19 -70q-9 -42 -33 -64t-74 -31l-10 -46h-103zM-20 0l382 644h148l109 -644h-135l-29 155h-237l-92 -155h-146zM261 259h197l-44 259z" />
    <glyph glyph-name="Amacron" unicode="&#x100;" horiz-adv-x="713" 
d="M296 707l17 83h307l-17 -83h-307zM-20 0l382 644h148l109 -644h-135l-29 155h-237l-92 -155h-146zM261 259h197l-44 259z" />
    <glyph glyph-name="Aogonek" unicode="&#x104;" horiz-adv-x="731" 
d="M515 -220q-46 0 -74 22t-22 69q5 44 27 77t44 52l-29 155h-243l-92 -155h-146l382 644h148l109 -644q-38 -21 -60.5 -48t-28.5 -56q-4 -21 7 -29t31 -8q12 0 26 3t24 8l-16 -76q-15 -6 -38.5 -10t-48.5 -4zM261 259h197l-44 259z" />
    <glyph glyph-name="Aring" unicode="&#xc5;" horiz-adv-x="713" 
d="M-20 0l369 622q-34 33 -22 92q10 50 49.5 85t98.5 35t85 -35t15 -85q-12 -61 -61 -94l105 -620h-135l-29 155h-237l-92 -155h-146zM438 657q32 0 49 16.5t22 40.5t-7 40.5t-40 16.5q-29 0 -47 -16.5t-23 -40.5t7.5 -40.5t38.5 -16.5zM261 259h197l-44 259z" />
    <glyph glyph-name="Aringacute" unicode="&#x1fa;" horiz-adv-x="713" 
d="M417 854l120 187h117l-128 -187h-109zM-20 0l369 622q-34 33 -22 92q10 50 49.5 85t98.5 35t85 -35t15 -85q-12 -61 -61 -94l105 -620h-135l-29 155h-237l-92 -155h-146zM438 657q32 0 49 16.5t22 40.5t-7 40.5t-40 16.5q-29 0 -47 -16.5t-23 -40.5t7.5 -40.5t38.5 -16.5
zM261 259h197l-44 259z" />
    <glyph glyph-name="Atilde" unicode="&#xc3;" horiz-adv-x="713" 
d="M532 689q-29 0 -55 10t-49.5 20t-48.5 10q-55 0 -98 -37l21 96q17 14 42 22.5t51 8.5q31 0 55 -10t47 -20t51 -10q56 0 91 38l-21 -96q-12 -13 -35 -22.5t-51 -9.5zM-20 0l382 644h148l109 -644h-135l-29 155h-237l-92 -155h-146zM261 259h197l-44 259z" />
    <glyph glyph-name="AE" unicode="&#xc6;" horiz-adv-x="849" 
d="M-20 0l382 644h529l-22 -105h-274l-35 -165h237l-22 -104h-237l-35 -166h274l-22 -104h-409l33 156h-160l-93 -156h-146zM272 260h129l60 284h-26z" />
    <glyph glyph-name="AEacute" unicode="&#x1fc;" horiz-adv-x="849" 
d="M510 688l120 187h117l-128 -187h-109zM-20 0l382 644h529l-22 -105h-274l-35 -165h237l-22 -104h-237l-35 -166h274l-22 -104h-409l33 156h-160l-93 -156h-146zM272 260h129l60 284h-26z" />
    <glyph glyph-name="B" unicode="B" horiz-adv-x="636" 
d="M1 0l136 644h326q92 0 132 -48.5t23 -125.5q-11 -52 -38 -86.5t-65 -53.5q42 -14 61 -48.5t6 -93.5q-20 -93 -78.5 -140.5t-164.5 -47.5h-338zM216 377h166q49 0 74.5 21.5t33.5 60.5q9 43 -8 64t-75 21h-156zM157 99h171q51 0 79.5 21t39.5 74q9 43 -10 64t-80 21h-162z
" />
    <glyph glyph-name="C" unicode="C" horiz-adv-x="600" 
d="M311 -10q-100 0 -166.5 39.5t-93 113t-4.5 173.5q34 160 132 249t273 89q58 0 102.5 -8.5t82.5 -23.5l-25 -118q-78 35 -175 35q-110 0 -169.5 -55t-83.5 -168q-23 -106 11 -159t152 -53q47 0 94.5 8.5t93.5 25.5l-25 -119q-44 -13 -92.5 -21t-106.5 -8z" />
    <glyph glyph-name="Cacute" unicode="&#x106;" horiz-adv-x="600" 
d="M391 688l120 187h117l-128 -187h-109zM311 -10q-100 0 -166.5 39.5t-93 113t-4.5 173.5q34 160 132 249t273 89q58 0 102.5 -8.5t82.5 -23.5l-25 -118q-78 35 -175 35q-110 0 -169.5 -55t-83.5 -168q-23 -106 11 -159t152 -53q47 0 94.5 8.5t93.5 25.5l-25 -119
q-44 -13 -92.5 -21t-106.5 -8z" />
    <glyph glyph-name="Ccaron" unicode="&#x10c;" horiz-adv-x="600" 
d="M419 688l-97 174h100l50 -100l96 100h109l-172 -174h-86zM311 -10q-100 0 -166.5 39.5t-93 113t-4.5 173.5q34 160 132 249t273 89q58 0 102.5 -8.5t82.5 -23.5l-25 -118q-78 35 -175 35q-110 0 -169.5 -55t-83.5 -168q-23 -106 11 -159t152 -53q47 0 94.5 8.5t93.5 25.5
l-25 -119q-44 -13 -92.5 -21t-106.5 -8z" />
    <glyph glyph-name="Ccedilla" unicode="&#xc7;" horiz-adv-x="600" 
d="M240 -240q-17 0 -40 2.5t-34 5.5l15 68q27 -8 59 -8q44 0 63.5 6.5t23.5 30.5q5 26 -14 31.5t-54 5.5h-44l45 91q-83 10 -137.5 51.5t-74.5 110.5t-1 161q34 160 132 249t273 89q58 0 102.5 -8.5t82.5 -23.5l-25 -118q-78 35 -175 35q-110 0 -169.5 -55t-83.5 -168
q-23 -106 11 -159t152 -53q47 0 94.5 8.5t93.5 25.5l-25 -119q-37 -11 -77 -18.5t-86 -9.5l-20 -36q53 0 74 -24.5t13 -66.5q-10 -49 -53 -76.5t-121 -27.5z" />
    <glyph glyph-name="Ccircumflex" unicode="&#x108;" horiz-adv-x="600" 
d="M255 688l171 174h86l98 -174h-99l-53 100l-93 -100h-110zM311 -10q-100 0 -166.5 39.5t-93 113t-4.5 173.5q34 160 132 249t273 89q58 0 102.5 -8.5t82.5 -23.5l-25 -118q-78 35 -175 35q-110 0 -169.5 -55t-83.5 -168q-23 -106 11 -159t152 -53q47 0 94.5 8.5t93.5 25.5
l-25 -119q-44 -13 -92.5 -21t-106.5 -8z" />
    <glyph glyph-name="Cdotaccent" unicode="&#x10a;" horiz-adv-x="600" 
d="M398 713l21 98h105l-21 -98h-105zM311 -10q-100 0 -166.5 39.5t-93 113t-4.5 173.5q34 160 132 249t273 89q58 0 102.5 -8.5t82.5 -23.5l-25 -118q-78 35 -175 35q-110 0 -169.5 -55t-83.5 -168q-23 -106 11 -159t152 -53q47 0 94.5 8.5t93.5 25.5l-25 -119
q-44 -13 -92.5 -21t-106.5 -8z" />
    <glyph glyph-name="D" unicode="D" horiz-adv-x="656" 
d="M1 0l136 644h270q135 0 196 -81t27 -244q-34 -166 -119 -242.5t-240 -76.5h-270zM158 104h116q53 0 95.5 17.5t74 64t49.5 133.5q19 87 13 133t-39.5 63t-98.5 17h-119z" />
    <glyph glyph-name="Eth" unicode="&#xd0;" horiz-adv-x="703" 
d="M48 0l56 264h-68l22 104h68l58 276h270q135 0 196 -81t27 -244q-34 -166 -119 -242.5t-240 -76.5h-270zM205 104h116q53 0 95.5 17.5t74 64t49.5 133.5q19 87 13 133t-39.5 63t-98.5 17h-119l-35 -164h149l-22 -104h-149z" />
    <glyph glyph-name="Dcaron" unicode="&#x10e;" horiz-adv-x="656" 
d="M358 710l-97 174h100l50 -100l96 100h109l-172 -174h-86zM1 0l136 644h270q135 0 196 -81t27 -244q-34 -166 -119 -242.5t-240 -76.5h-270zM158 104h116q53 0 95.5 17.5t74 64t49.5 133.5q19 87 13 133t-39.5 63t-98.5 17h-119z" />
    <glyph glyph-name="Dcroat" unicode="&#x110;" horiz-adv-x="693" 
d="M38 0l56 264h-68l22 104h68l58 276h270q135 0 196 -81t27 -244q-34 -166 -119 -242.5t-240 -76.5h-270zM195 104h116q53 0 95.5 17.5t73.5 64t50 133.5t13 133t-39.5 63t-98.5 17h-119l-35 -164h149l-22 -104h-149z" />
    <glyph glyph-name="uni1E0C" unicode="&#x1e0c;" horiz-adv-x="656" 
d="M1 0l136 644h270q135 0 196 -81t27 -244q-34 -166 -119 -242.5t-240 -76.5h-270zM158 104h116q53 0 95.5 17.5t74 64t49.5 133.5q19 87 13 133t-39.5 63t-98.5 17h-119zM173 -181l21 99h107l-21 -99h-107z" />
    <glyph glyph-name="uni1E0E" unicode="&#x1e0e;" horiz-adv-x="656" 
d="M1 0l136 644h270q135 0 196 -81t27 -244q-34 -166 -119 -242.5t-240 -76.5h-270zM158 104h116q53 0 95.5 17.5t74 64t49.5 133.5q19 87 13 133t-39.5 63t-98.5 17h-119zM30 -182l17 83h307l-17 -83h-307z" />
    <glyph glyph-name="E" unicode="E" horiz-adv-x="557" 
d="M1 0l136 644h462l-22 -105h-327l-35 -165h290l-22 -104h-290l-35 -166h327l-22 -104h-462z" />
    <glyph glyph-name="Eacute" unicode="&#xc9;" horiz-adv-x="557" 
d="M312 688l120 187h117l-128 -187h-109zM1 0l136 644h462l-22 -105h-327l-35 -165h290l-22 -104h-290l-35 -166h327l-22 -104h-462z" />
    <glyph glyph-name="Ebreve" unicode="&#x114;" horiz-adv-x="557" 
d="M384 688q-69 0 -103.5 42t-18.5 115h84q-7 -31 1.5 -55t48.5 -24q35 0 57 24t29 55h95q-16 -73 -64 -115t-129 -42zM1 0l136 644h462l-22 -105h-327l-35 -165h290l-22 -104h-290l-35 -166h327l-22 -104h-462z" />
    <glyph glyph-name="Ecaron" unicode="&#x11a;" horiz-adv-x="557" 
d="M344 688l-97 174h100l50 -100l96 100h109l-172 -174h-86zM1 0l136 644h462l-22 -105h-327l-35 -165h290l-22 -104h-290l-35 -166h327l-22 -104h-462z" />
    <glyph glyph-name="Ecircumflex" unicode="&#xca;" horiz-adv-x="557" 
d="M200 688l171 174h86l98 -174h-99l-53 100l-93 -100h-110zM1 0l136 644h462l-22 -105h-327l-35 -165h290l-22 -104h-290l-35 -166h327l-22 -104h-462z" />
    <glyph glyph-name="uni1EBE" unicode="&#x1ebe;" horiz-adv-x="551" 
d="M506 804l95 141h102l-103 -141h-94zM202 687l154 135h103l98 -135h-104l-51 81l-84 -81h-116zM1 0l136 644h462l-22 -105h-327l-35 -165h290l-22 -104h-290l-35 -166h327l-22 -104h-462z" />
    <glyph glyph-name="uni1EC6" unicode="&#x1ec6;" horiz-adv-x="557" 
d="M196 688l171 174h86l98 -174h-99l-53 100l-93 -100h-110zM1 0l136 644h462l-22 -105h-327l-35 -165h290l-22 -104h-290l-35 -166h327l-22 -104h-462zM136 -181l21 99h107l-21 -99h-107z" />
    <glyph glyph-name="uni1EC0" unicode="&#x1ec0;" horiz-adv-x="556" 
d="M209 804l-43 141h102l36 -141h-95zM203 687l154 135h103l98 -135h-104l-51 81l-84 -81h-116zM0 0l136 644h462l-22 -105h-327l-35 -165h290l-22 -104h-290l-35 -166h327l-22 -104h-462z" />
    <glyph glyph-name="uni1EC2" unicode="&#x1ec2;" horiz-adv-x="551" 
d="M510 782l15 70q46 2 62 10.5t19 24.5q5 27 -39 27q-15 0 -29 -3.5t-27 -8.5l14 62q17 5 36.5 8.5t47.5 3.5q53 0 77 -22.5t16 -58.5q-7 -33 -29.5 -53t-63.5 -26l-7 -34h-92zM202 687l154 135h103l98 -135h-104l-51 81l-84 -81h-116zM1 0l136 644h462l-22 -105h-327
l-35 -165h290l-22 -104h-290l-35 -166h327l-22 -104h-462z" />
    <glyph glyph-name="uni1EC4" unicode="&#x1ec4;" horiz-adv-x="557" 
d="M507 837q-29 0 -55 10t-49.5 20t-48.5 10q-55 0 -98 -37l19 86q16 14 41.5 22.5t51.5 8.5q31 0 55 -10t47 -20t51 -10q29 0 51.5 10t38.5 28l-19 -86q-12 -13 -34.5 -22.5t-50.5 -9.5zM203 687l154 135h103l98 -135h-104l-51 81l-84 -81h-116zM1 0l136 644h462l-22 -105
h-327l-35 -165h290l-22 -104h-290l-35 -166h327l-22 -104h-462z" />
    <glyph glyph-name="Edieresis" unicode="&#xcb;" horiz-adv-x="557" 
d="M237 713l21 98h105l-21 -98h-105zM432 713l21 98h106l-21 -98h-106zM1 0l136 644h462l-22 -105h-327l-35 -165h290l-22 -104h-290l-35 -166h327l-22 -104h-462z" />
    <glyph glyph-name="Edotaccent" unicode="&#x116;" horiz-adv-x="557" 
d="M331 713l21 98h105l-21 -98h-105zM1 0l136 644h462l-22 -105h-327l-35 -165h290l-22 -104h-290l-35 -166h327l-22 -104h-462z" />
    <glyph glyph-name="uni1EB8" unicode="&#x1eb8;" horiz-adv-x="557" 
d="M1 0l136 644h462l-22 -105h-327l-35 -165h290l-22 -104h-290l-35 -166h327l-22 -104h-462zM137 -181l21 99h107l-21 -99h-107z" />
    <glyph glyph-name="Egrave" unicode="&#xc8;" horiz-adv-x="557" 
d="M339 688l-48 187h117l40 -187h-109zM1 0l136 644h462l-22 -105h-327l-35 -165h290l-22 -104h-290l-35 -166h327l-22 -104h-462z" />
    <glyph glyph-name="uni1EBA" unicode="&#x1eba;" horiz-adv-x="557" 
d="M325 687l17 81q56 3 76 14.5t24 33.5q5 20 -11.5 29.5t-48.5 9.5q-14 0 -32.5 -3t-32.5 -8l15 67q41 13 102 13q64 0 92 -26t19 -70q-9 -42 -33 -64t-74 -31l-10 -46h-103zM1 0l136 644h462l-22 -105h-327l-35 -165h290l-22 -104h-290l-35 -166h327l-22 -104h-462z" />
    <glyph glyph-name="Emacron" unicode="&#x112;" horiz-adv-x="557" 
d="M226 722l17 83h307l-17 -83h-307zM1 0l136 644h462l-22 -105h-327l-35 -165h290l-22 -104h-290l-35 -166h327l-22 -104h-462z" />
    <glyph glyph-name="Eogonek" unicode="&#x118;" horiz-adv-x="557" 
d="M1 0l136 644h462l-22 -105h-327l-35 -165h290l-22 -104h-290l-35 -166h327l-22 -104h-43q-35 -22 -59 -48.5t-30 -55.5q-4 -21 7 -29t31 -8q12 0 26 3t24 8l-16 -76q-15 -6 -38.5 -10t-48.5 -4q-46 0 -76 22.5t-20 68.5q17 79 100 129h-319z" />
    <glyph glyph-name="uni1EBC" unicode="&#x1ebc;" horiz-adv-x="557" 
d="M467 700q-29 0 -55 10t-49.5 20t-48.5 10q-55 0 -98 -37l21 96q17 14 42 22.5t51 8.5q31 0 55 -10t47 -20t51 -10q56 0 91 38l-21 -96q-12 -13 -35 -22.5t-51 -9.5zM1 0l136 644h462l-22 -105h-327l-35 -165h290l-22 -104h-290l-35 -166h327l-22 -104h-462z" />
    <glyph glyph-name="F" unicode="F" horiz-adv-x="527" 
d="M1 0l136 644h453l-22 -105h-318l-35 -165h281l-22 -104h-281l-57 -270h-135z" />
    <glyph glyph-name="G" unicode="G" horiz-adv-x="643" 
d="M307 -10q-154 0 -223.5 85t-37.5 236q34 160 138.5 251.5t272.5 91.5q58 0 103.5 -6.5t84.5 -20.5l-25 -116q-39 15 -84 21.5t-94 6.5q-109 0 -172 -56.5t-87 -171.5q-15 -69 -7 -115t45.5 -69t112.5 -23q34 0 67 5.5t61 14.5l32 150h-150l18 86h264l-67 -315
q-37 -21 -100 -38t-152 -17z" />
    <glyph glyph-name="Gbreve" unicode="&#x11e;" horiz-adv-x="643" 
d="M456 688q-69 0 -103.5 42t-18.5 115h84q-7 -31 1.5 -55t48.5 -24q35 0 57 24t29 55h95q-16 -73 -64 -115t-129 -42zM307 -10q-154 0 -223.5 85t-37.5 236q34 160 138.5 251.5t272.5 91.5q58 0 103.5 -6.5t84.5 -20.5l-25 -116q-39 15 -84 21.5t-94 6.5q-109 0 -172 -56.5
t-87 -171.5q-15 -69 -7 -115t45.5 -69t112.5 -23q34 0 67 5.5t61 14.5l32 150h-150l18 86h264l-67 -315q-37 -21 -100 -38t-152 -17z" />
    <glyph glyph-name="Gcaron" unicode="&#x1e6;" horiz-adv-x="643" 
d="M412 687l-97 174h100l50 -100l96 100h109l-172 -174h-86zM307 -10q-154 0 -223.5 85t-37.5 236q34 160 138.5 251.5t272.5 91.5q58 0 103.5 -6.5t84.5 -20.5l-25 -116q-39 15 -84 21.5t-94 6.5q-109 0 -172 -56.5t-87 -171.5q-15 -69 -7 -115t45.5 -69t112.5 -23
q34 0 67 5.5t61 14.5l32 150h-150l18 86h264l-67 -315q-37 -21 -100 -38t-152 -17z" />
    <glyph glyph-name="Gcircumflex" unicode="&#x11c;" horiz-adv-x="643" 
d="M272 688l171 174h86l98 -174h-99l-53 100l-93 -100h-110zM307 -10q-154 0 -223.5 85t-37.5 236q34 160 138.5 251.5t272.5 91.5q58 0 103.5 -6.5t84.5 -20.5l-25 -116q-39 15 -84 21.5t-94 6.5q-109 0 -172 -56.5t-87 -171.5q-15 -69 -7 -115t45.5 -69t112.5 -23
q34 0 67 5.5t61 14.5l32 150h-150l18 86h264l-67 -315q-37 -21 -100 -38t-152 -17z" />
    <glyph glyph-name="uni0122" unicode="&#x122;" horiz-adv-x="643" 
d="M307 -10q-154 0 -223.5 85t-37.5 236q34 160 138.5 251.5t272.5 91.5q58 0 103.5 -6.5t84.5 -20.5l-25 -116q-39 15 -84 21.5t-94 6.5q-109 0 -172 -56.5t-87 -171.5q-15 -69 -7 -115t45.5 -69t112.5 -23q34 0 67 5.5t61 14.5l32 150h-150l18 86h264l-67 -315
q-37 -21 -100 -38t-152 -17zM189 -238l73 201h106l-93 -201h-86z" />
    <glyph glyph-name="Gdotaccent" unicode="&#x120;" horiz-adv-x="643" 
d="M416 713l21 98h105l-21 -98h-105zM307 -10q-154 0 -223.5 85t-37.5 236q34 160 138.5 251.5t272.5 91.5q58 0 103.5 -6.5t84.5 -20.5l-25 -116q-39 15 -84 21.5t-94 6.5q-109 0 -172 -56.5t-87 -171.5q-15 -69 -7 -115t45.5 -69t112.5 -23q34 0 67 5.5t61 14.5l32 150
h-150l18 86h264l-67 -315q-37 -21 -100 -38t-152 -17z" />
    <glyph glyph-name="uni1E20" unicode="&#x1e20;" horiz-adv-x="643" 
d="M314 717l17 83h307l-17 -83h-307zM307 -10q-154 0 -223.5 85t-37.5 236q34 160 138.5 251.5t272.5 91.5q58 0 103.5 -6.5t84.5 -20.5l-25 -116q-39 15 -84 21.5t-94 6.5q-109 0 -172 -56.5t-87 -171.5q-15 -69 -7 -115t45.5 -69t112.5 -23q34 0 67 5.5t61 14.5l32 150
h-150l18 86h264l-67 -315q-37 -21 -100 -38t-152 -17z" />
    <glyph glyph-name="H" unicode="H" horiz-adv-x="666" 
d="M1 0l136 644h135l-57 -270h281l57 270h135l-136 -644h-135l57 270h-281l-57 -270h-135z" />
    <glyph glyph-name="Hbar" unicode="&#x126;" horiz-adv-x="667" 
d="M4 0l95 451h-44l23 105h43l19 88h135l-19 -88h281l19 88h135l-19 -88h40l-23 -105h-39l-95 -451h-135l57 270h-281l-57 -270h-135zM218 374h281l16 77h-281z" />
    <glyph glyph-name="uni1E2A" unicode="&#x1e2a;" horiz-adv-x="666" 
d="M1 0l136 644h135l-57 -270h281l57 270h135l-136 -644h-135l57 270h-281l-57 -270h-135zM228 -217q-42 0 -73.5 19t-45.5 54t-4 84h86q-7 -31 2 -55t48 -24q35 0 56.5 24t28.5 55h94q-16 -73 -66.5 -115t-125.5 -42z" />
    <glyph glyph-name="Hcircumflex" unicode="&#x124;" horiz-adv-x="666" 
d="M245 688l171 174h86l98 -174h-99l-53 100l-93 -100h-110zM1 0l136 644h135l-57 -270h281l57 270h135l-136 -644h-135l57 270h-281l-57 -270h-135z" />
    <glyph glyph-name="uni1E24" unicode="&#x1e24;" horiz-adv-x="666" 
d="M1 0l136 644h135l-57 -270h281l57 270h135l-136 -644h-135l57 270h-281l-57 -270h-135zM184 -181l21 99h107l-21 -99h-107z" />
    <glyph glyph-name="I" unicode="I" horiz-adv-x="250" 
d="M1 0l136 644h135l-136 -644h-135z" />
    <glyph glyph-name="IJ" unicode="&#x132;" horiz-adv-x="675" 
d="M339 -10q-81 0 -139 23l24 114q47 -22 113 -22t96 25.5t42 83.5l91 430h135l-97 -460q-21 -97 -85 -145.5t-180 -48.5zM1 0l136 644h135l-136 -644h-135z" />
    <glyph glyph-name="Iacute" unicode="&#xcd;" horiz-adv-x="251" 
d="M160 688l120 187h117l-128 -187h-109zM1 0l136 644h135l-136 -644h-135z" />
    <glyph glyph-name="Ibreve" unicode="&#x12c;" horiz-adv-x="249" 
d="M214 701q-69 0 -103.5 42t-18.5 115h84q-7 -31 1.5 -55t48.5 -24q35 0 57 24t29 55h95q-16 -73 -64 -115t-129 -42zM-1 0l136 644h135l-136 -644h-135z" />
    <glyph glyph-name="uni01CF" unicode="&#x1cf;" horiz-adv-x="249" 
d="M170 688l-97 174h100l50 -100l96 100h109l-172 -174h-86zM-1 0l136 644h135l-136 -644h-135z" />
    <glyph glyph-name="Icircumflex" unicode="&#xce;" horiz-adv-x="249" 
d="M36 688l171 174h86l98 -174h-99l-53 100l-93 -100h-110zM-1 0l136 644h135l-136 -644h-135z" />
    <glyph glyph-name="Idieresis" unicode="&#xcf;" horiz-adv-x="249" 
d="M70 718l21 98h105l-21 -98h-105zM265 718l21 98h106l-21 -98h-106zM0 0l136 644h135l-136 -644h-135z" />
    <glyph glyph-name="Idotaccent" unicode="&#x130;" horiz-adv-x="250" 
d="M168 718l21 98h105l-21 -98h-105zM1 0l136 644h135l-136 -644h-135z" />
    <glyph glyph-name="uni1ECA" unicode="&#x1eca;" horiz-adv-x="250" 
d="M1 0l136 644h135l-136 -644h-135zM-23 -181l21 99h107l-21 -99h-107z" />
    <glyph glyph-name="Igrave" unicode="&#xcc;" horiz-adv-x="249" 
d="M158 688l-48 187h117l40 -187h-109zM0 0l136 644h135l-136 -644h-135z" />
    <glyph glyph-name="uni1EC8" unicode="&#x1ec8;" horiz-adv-x="250" 
d="M161 687l17 81q56 3 76 14.5t24 33.5q5 20 -11.5 29.5t-48.5 9.5q-14 0 -32.5 -3t-32.5 -8l15 67q41 13 102 13q64 0 92 -26t19 -70q-9 -42 -33 -64t-74 -31l-10 -46h-103zM0 0l136 644h135l-136 -644h-135z" />
    <glyph glyph-name="Imacron" unicode="&#x12a;" horiz-adv-x="250" 
d="M68 722l17 83h308l-17 -83h-308zM0 0l136 644h135l-136 -644h-135z" />
    <glyph glyph-name="Iogonek" unicode="&#x12e;" horiz-adv-x="250" 
d="M18 -220q-46 0 -76 22.5t-20 68.5q17 79 100 129h-22l136 644h135l-136 -644h-13q-35 -22 -59 -48.5t-30 -55.5q-4 -21 7 -29t31 -8q12 0 26 3t24 8l-16 -76q-15 -6 -38.5 -10t-48.5 -4z" />
    <glyph glyph-name="Itilde" unicode="&#x128;" horiz-adv-x="250" 
d="M302 700q-29 0 -55 10t-49.5 20t-48.5 10q-55 0 -98 -37l21 96q17 14 42 22.5t51 8.5q31 0 55 -10t47 -20t51 -10q56 0 91 38l-21 -96q-12 -13 -35 -22.5t-51 -9.5zM0 0l136 644h135l-136 -644h-135z" />
    <glyph glyph-name="J" unicode="J" horiz-adv-x="437" 
d="M102 -10q-81 0 -139 23l24 114q47 -22 113 -22t96 25.5t42 83.5l91 430h135l-97 -460q-21 -97 -85 -145.5t-180 -48.5z" />
    <glyph glyph-name="Jcircumflex" unicode="&#x134;" horiz-adv-x="437" 
d="M231 688l171 174h86l98 -174h-99l-53 100l-93 -100h-110zM102 -10q-81 0 -139 23l24 114q47 -22 113 -22t96 25.5t42 83.5l91 430h135l-97 -460q-21 -97 -85 -145.5t-180 -48.5z" />
    <glyph glyph-name="K" unicode="K" horiz-adv-x="645" 
d="M1 0l136 644h135l-58 -273l306 273h155l-288 -261l164 -383h-144l-122 297l-106 -93l-43 -204h-135z" />
    <glyph glyph-name="uni0136" unicode="&#x136;" horiz-adv-x="645" 
d="M1 0l136 644h135l-58 -273l306 273h155l-288 -261l164 -383h-144l-122 297l-106 -93l-43 -204h-135zM136 -238l73 201h106l-93 -201h-86z" />
    <glyph glyph-name="L" unicode="L" horiz-adv-x="527" 
d="M1 0l136 644h135l-114 -540h317l-22 -104h-452z" />
    <glyph glyph-name="Lacute" unicode="&#x139;" horiz-adv-x="527" 
d="M163 688l120 187h117l-128 -187h-109zM1 0l136 644h135l-114 -540h317l-22 -104h-452z" />
    <glyph glyph-name="Lcaron" unicode="&#x13d;" horiz-adv-x="527" 
d="M1 0l136 644h135l-114 -540h317l-22 -104h-452zM360 443l73 201h106l-92 -201h-87z" />
    <glyph glyph-name="uni013B" unicode="&#x13b;" horiz-adv-x="527" 
d="M1 0l136 644h135l-114 -540h317l-22 -104h-452zM109 -238l73 201h106l-93 -201h-86z" />
    <glyph glyph-name="Ldot" unicode="&#x13f;" horiz-adv-x="527" 
d="M1 0l136 644h135l-114 -540h317l-22 -104h-452zM341 276l21 98h105l-21 -98h-105z" />
    <glyph glyph-name="uni1E36" unicode="&#x1e36;" horiz-adv-x="527" 
d="M1 0l136 644h135l-114 -540h317l-22 -104h-452zM128 -181l21 99h107l-21 -99h-107z" />
    <glyph glyph-name="uni1E38" unicode="&#x1e38;" horiz-adv-x="542" 
d="M101 717l17 83h307l-17 -83h-307zM16 0l136 644h135l-114 -540h317l-22 -104h-452zM143 -181l21 99h107l-21 -99h-107z" />
    <glyph glyph-name="uni1E3A" unicode="&#x1e3a;" horiz-adv-x="527" 
d="M1 0l136 644h135l-114 -540h317l-22 -104h-452zM34 -158l17 83h307l-17 -83h-307z" />
    <glyph glyph-name="Lslash" unicode="&#x141;" horiz-adv-x="527" 
d="M1 0l54 258l-82 -33l21 97l82 33l61 289h135l-49 -230l137 55l-20 -97l-137 -55l-45 -213h317l-22 -104h-452z" />
    <glyph glyph-name="M" unicode="M" horiz-adv-x="764" 
d="M1 0l136 644h131l107 -387l271 387h140l-136 -644h-135l89 419l-216 -308h-78l-85 308l-89 -419h-135z" />
    <glyph glyph-name="uni1E42" unicode="&#x1e42;" horiz-adv-x="764" 
d="M1 0l136 644h131l107 -387l271 387h140l-136 -644h-135l89 419l-216 -308h-78l-85 308l-89 -419h-135zM247 -181l21 99h107l-21 -99h-107z" />
    <glyph glyph-name="N" unicode="N" horiz-adv-x="672" 
d="M1 0l136 644h117l214 -429l91 429h135l-136 -644h-117l-214 429l-91 -429h-135z" />
    <glyph glyph-name="Nacute" unicode="&#x143;" horiz-adv-x="672" 
d="M360 688l120 187h117l-128 -187h-109zM1 0l136 644h117l214 -429l91 429h135l-136 -644h-117l-214 429l-91 -429h-135z" />
    <glyph glyph-name="Ncaron" unicode="&#x147;" horiz-adv-x="672" 
d="M385 688l-97 174h100l50 -100l96 100h109l-172 -174h-86zM1 0l136 644h117l214 -429l91 429h135l-136 -644h-117l-214 429l-91 -429h-135z" />
    <glyph glyph-name="uni0145" unicode="&#x145;" horiz-adv-x="672" 
d="M1 0l136 644h117l214 -429l91 429h135l-136 -644h-117l-214 429l-91 -429h-135zM154 -238l73 201h106l-93 -201h-86z" />
    <glyph glyph-name="uni1E44" unicode="&#x1e44;" horiz-adv-x="672" 
d="M386 713l21 98h105l-21 -98h-105zM1 0l136 644h117l214 -429l91 429h135l-136 -644h-117l-214 429l-91 -429h-135z" />
    <glyph glyph-name="uni1E46" unicode="&#x1e46;" horiz-adv-x="672" 
d="M1 0l136 644h117l214 -429l91 429h135l-136 -644h-117l-214 429l-91 -429h-135zM190 -181l21 99h107l-21 -99h-107z" />
    <glyph glyph-name="Eng" unicode="&#x14a;" horiz-adv-x="671" 
d="M344 -234q-63 0 -104 18l19 93q29 -10 58 -10q41 0 63 16.5t29 52.5l19 89l-201 404l-91 -429h-135l136 644h117l214 -429l91 429h135l-153 -721q-15 -70 -64.5 -113.5t-132.5 -43.5z" />
    <glyph glyph-name="uni1E48" unicode="&#x1e48;" horiz-adv-x="672" 
d="M1 0l136 644h117l214 -429l91 429h135l-136 -644h-117l-214 429l-91 -429h-135zM97 -155l17 83h307l-17 -83h-307z" />
    <glyph glyph-name="Ntilde" unicode="&#xd1;" horiz-adv-x="672" 
d="M522 700q-29 0 -55 10t-49.5 20t-48.5 10q-55 0 -98 -37l21 96q17 14 42 22.5t51 8.5q31 0 55 -10t47 -20t51 -10q56 0 91 38l-21 -96q-12 -13 -35 -22.5t-51 -9.5zM1 0l136 644h117l214 -429l91 429h135l-136 -644h-117l-214 429l-91 -429h-135z" />
    <glyph glyph-name="O" unicode="O" horiz-adv-x="700" 
d="M291 -10q-148 0 -213 81.5t-30 247.5q38 177 129.5 256t255.5 79q152 0 215.5 -79t25.5 -256q-35 -166 -127 -247.5t-256 -81.5zM316 105q91 0 144 52.5t77 161.5q18 83 12.5 131t-39.5 68.5t-102 20.5q-91 0 -144.5 -49.5t-78.5 -170.5q-23 -113 4.5 -163.5t126.5 -50.5
z" />
    <glyph glyph-name="Oacute" unicode="&#xd3;" horiz-adv-x="700" 
d="M378 688l120 187h117l-128 -187h-109zM291 -10q-148 0 -213 81.5t-30 247.5q38 177 129.5 256t255.5 79q152 0 215.5 -79t25.5 -256q-35 -166 -127 -247.5t-256 -81.5zM316 105q91 0 144 52.5t77 161.5q18 83 12.5 131t-39.5 68.5t-102 20.5q-91 0 -144.5 -49.5
t-78.5 -170.5q-23 -113 4.5 -163.5t126.5 -50.5z" />
    <glyph glyph-name="Obreve" unicode="&#x14e;" horiz-adv-x="700" 
d="M439 688q-69 0 -103.5 42t-18.5 115h84q-7 -31 1.5 -55t48.5 -24q35 0 57 24t29 55h95q-16 -73 -64 -115t-129 -42zM291 -10q-148 0 -213 81.5t-30 247.5q38 177 129.5 256t255.5 79q152 0 215.5 -79t25.5 -256q-35 -166 -127 -247.5t-256 -81.5zM316 105q91 0 144 52.5
t77 161.5q18 83 12.5 131t-39.5 68.5t-102 20.5q-91 0 -144.5 -49.5t-78.5 -170.5q-23 -113 4.5 -163.5t126.5 -50.5z" />
    <glyph glyph-name="uni01D1" unicode="&#x1d1;" horiz-adv-x="700" 
d="M397 688l-97 174h100l50 -100l96 100h109l-172 -174h-86zM291 -10q-148 0 -213 81.5t-30 247.5q38 177 129.5 256t255.5 79q152 0 215.5 -79t25.5 -256q-35 -166 -127 -247.5t-256 -81.5zM316 105q91 0 144 52.5t77 161.5q18 83 12.5 131t-39.5 68.5t-102 20.5
q-91 0 -144.5 -49.5t-78.5 -170.5q-23 -113 4.5 -163.5t126.5 -50.5z" />
    <glyph glyph-name="Ocircumflex" unicode="&#xd4;" horiz-adv-x="700" 
d="M263 688l171 174h86l98 -174h-99l-53 100l-93 -100h-110zM291 -10q-148 0 -213 81.5t-30 247.5q38 177 129.5 256t255.5 79q152 0 215.5 -79t25.5 -256q-35 -166 -127 -247.5t-256 -81.5zM316 105q91 0 144 52.5t77 161.5q18 83 12.5 131t-39.5 68.5t-102 20.5
q-91 0 -144.5 -49.5t-78.5 -170.5q-23 -113 4.5 -163.5t126.5 -50.5z" />
    <glyph glyph-name="uni1ED0" unicode="&#x1ed0;" horiz-adv-x="700" 
d="M569 804l95 141h102l-103 -141h-94zM265 687l154 135h103l98 -135h-104l-51 81l-84 -81h-116zM291 -10q-148 0 -213 81.5t-30 247.5q38 177 129.5 256t255.5 79q152 0 215.5 -79t25.5 -256q-35 -166 -127 -247.5t-256 -81.5zM316 105q91 0 144 52.5t77 161.5
q18 83 12.5 131t-39.5 68.5t-102 20.5q-91 0 -144.5 -49.5t-78.5 -170.5q-23 -113 4.5 -163.5t126.5 -50.5z" />
    <glyph glyph-name="uni1ED8" unicode="&#x1ed8;" horiz-adv-x="700" 
d="M265 698l171 174h86l98 -174h-99l-53 100l-93 -100h-110zM291 -10q-148 0 -213 81.5t-30 247.5q38 177 129.5 256t255.5 79q152 0 215.5 -79t25.5 -256q-35 -166 -127 -247.5t-256 -81.5zM316 105q91 0 144 52.5t77 161.5q18 83 12.5 131t-39.5 68.5t-102 20.5
q-91 0 -144.5 -49.5t-78.5 -170.5q-23 -113 4.5 -163.5t126.5 -50.5zM203 -181l21 99h107l-21 -99h-107z" />
    <glyph glyph-name="uni1ED2" unicode="&#x1ed2;" horiz-adv-x="700" 
d="M266 804l-43 141h102l36 -141h-95zM260 687l154 135h103l98 -135h-104l-51 81l-84 -81h-116zM291 -10q-148 0 -213 81.5t-30 247.5q38 177 129.5 256t255.5 79q152 0 215.5 -79t25.5 -256q-35 -166 -127 -247.5t-256 -81.5zM316 105q91 0 144 52.5t77 161.5
q18 83 12.5 131t-39.5 68.5t-102 20.5q-91 0 -144.5 -49.5t-78.5 -170.5q-23 -113 4.5 -163.5t126.5 -50.5z" />
    <glyph glyph-name="uni1ED4" unicode="&#x1ed4;" horiz-adv-x="700" 
d="M567 782l15 70q46 2 62 10.5t19 24.5q5 27 -39 27q-15 0 -29 -3.5t-27 -8.5l14 62q17 5 36.5 8.5t47.5 3.5q53 0 77 -22.5t16 -58.5q-7 -33 -29.5 -53t-63.5 -26l-7 -34h-92zM259 687l154 135h103l98 -135h-104l-51 81l-84 -81h-116zM291 -10q-148 0 -213 81.5t-30 247.5
q38 177 129.5 256t255.5 79q152 0 215.5 -79t25.5 -256q-35 -166 -127 -247.5t-256 -81.5zM316 105q91 0 144 52.5t77 161.5q18 83 12.5 131t-39.5 68.5t-102 20.5q-91 0 -144.5 -49.5t-78.5 -170.5q-23 -113 4.5 -163.5t126.5 -50.5z" />
    <glyph glyph-name="uni1ED6" unicode="&#x1ed6;" horiz-adv-x="700" 
d="M560 838q-29 0 -55 10t-49.5 20t-48.5 10q-55 0 -98 -37l19 86q16 14 41.5 22.5t51.5 8.5q31 0 55 -10t47 -20t51 -10q29 0 51.5 10t38.5 28l-19 -86q-12 -13 -34.5 -22.5t-50.5 -9.5zM259 687l154 135h103l98 -135h-104l-51 81l-84 -81h-116zM291 -10q-148 0 -213 81.5
t-30 247.5q38 177 129.5 256t255.5 79q152 0 215.5 -79t25.5 -256q-35 -166 -127 -247.5t-256 -81.5zM316 105q91 0 144 52.5t77 161.5q18 83 12.5 131t-39.5 68.5t-102 20.5q-91 0 -144.5 -49.5t-78.5 -170.5q-23 -113 4.5 -163.5t126.5 -50.5z" />
    <glyph glyph-name="Odieresis" unicode="&#xd6;" horiz-adv-x="700" 
d="M295 713l21 98h105l-21 -98h-105zM490 713l21 98h106l-21 -98h-106zM291 -10q-148 0 -213 81.5t-30 247.5q38 177 129.5 256t255.5 79q152 0 215.5 -79t25.5 -256q-35 -166 -127 -247.5t-256 -81.5zM316 105q91 0 144 52.5t77 161.5q18 83 12.5 131t-39.5 68.5t-102 20.5
q-91 0 -144.5 -49.5t-78.5 -170.5q-23 -113 4.5 -163.5t126.5 -50.5z" />
    <glyph glyph-name="uni1ECC" unicode="&#x1ecc;" horiz-adv-x="700" 
d="M291 -10q-148 0 -213 81.5t-30 247.5q38 177 129.5 256t255.5 79q152 0 215.5 -79t25.5 -256q-35 -166 -127 -247.5t-256 -81.5zM316 105q91 0 144 52.5t77 161.5q18 83 12.5 131t-39.5 68.5t-102 20.5q-91 0 -144.5 -49.5t-78.5 -170.5q-23 -113 4.5 -163.5t126.5 -50.5
zM203 -181l21 99h107l-21 -99h-107z" />
    <glyph glyph-name="Ograve" unicode="&#xd2;" horiz-adv-x="700" 
d="M391 688l-48 187h117l40 -187h-109zM291 -10q-148 0 -213 81.5t-30 247.5q38 177 129.5 256t255.5 79q152 0 215.5 -79t25.5 -256q-35 -166 -127 -247.5t-256 -81.5zM316 105q91 0 144 52.5t77 161.5q18 83 12.5 131t-39.5 68.5t-102 20.5q-91 0 -144.5 -49.5
t-78.5 -170.5q-23 -113 4.5 -163.5t126.5 -50.5z" />
    <glyph glyph-name="uni1ECE" unicode="&#x1ece;" horiz-adv-x="700" 
d="M389 687l17 81q56 3 76 14.5t24 33.5q5 20 -11.5 29.5t-48.5 9.5q-14 0 -32.5 -3t-32.5 -8l15 67q41 13 102 13q64 0 92 -26t19 -70q-9 -42 -33 -64t-74 -31l-10 -46h-103zM291 -10q-148 0 -213 81.5t-30 247.5q38 177 129.5 256t255.5 79q152 0 215.5 -79t25.5 -256
q-35 -166 -127 -247.5t-256 -81.5zM316 105q91 0 144 52.5t77 161.5q18 83 12.5 131t-39.5 68.5t-102 20.5q-91 0 -144.5 -49.5t-78.5 -170.5q-23 -113 4.5 -163.5t126.5 -50.5z" />
    <glyph glyph-name="Ohorn" unicode="&#x1a0;" horiz-adv-x="781" 
d="M291 -10q-148 0 -213 81.5t-30 247.5q38 177 129.5 256t255.5 79q74 0 127 -18t84 -56q51 2 77 25.5t39 82.5h97q-20 -94 -62 -137.5t-113 -54.5q7 -36 5 -80t-13 -97q-35 -166 -127 -247.5t-256 -81.5zM316 105q91 0 144 52.5t77 161.5q18 83 12.5 131t-39.5 68.5
t-102 20.5q-91 0 -144.5 -49.5t-78.5 -170.5q-23 -113 4.5 -163.5t126.5 -50.5z" />
    <glyph glyph-name="uni1EDA" unicode="&#x1eda;" horiz-adv-x="781" 
d="M395 688l120 187h117l-128 -187h-109zM291 -10q-148 0 -213 81.5t-30 247.5q38 177 129.5 256t255.5 79q74 0 127 -18t84 -56q51 2 77 25.5t39 82.5h97q-20 -94 -62 -137.5t-113 -54.5q7 -36 5 -80t-13 -97q-35 -166 -127 -247.5t-256 -81.5zM316 105q91 0 144 52.5
t77 161.5q18 83 12.5 131t-39.5 68.5t-102 20.5q-91 0 -144.5 -49.5t-78.5 -170.5q-23 -113 4.5 -163.5t126.5 -50.5z" />
    <glyph glyph-name="uni1EE2" unicode="&#x1ee2;" horiz-adv-x="781" 
d="M291 -10q-148 0 -213 81.5t-30 247.5q38 177 129.5 256t255.5 79q74 0 127 -18t84 -56q51 2 77 25.5t39 82.5h97q-20 -94 -62 -137.5t-113 -54.5q7 -36 5 -80t-13 -97q-35 -166 -127 -247.5t-256 -81.5zM316 105q91 0 144 52.5t77 161.5q18 83 12.5 131t-39.5 68.5
t-102 20.5q-91 0 -144.5 -49.5t-78.5 -170.5q-23 -113 4.5 -163.5t126.5 -50.5zM206 -181l21 99h107l-21 -99h-107z" />
    <glyph glyph-name="uni1EDC" unicode="&#x1edc;" horiz-adv-x="781" 
d="M411 688l-48 187h117l40 -187h-109zM291 -10q-148 0 -213 81.5t-30 247.5q38 177 129.5 256t255.5 79q74 0 127 -18t84 -56q51 2 77 25.5t39 82.5h97q-20 -94 -62 -137.5t-113 -54.5q7 -36 5 -80t-13 -97q-35 -166 -127 -247.5t-256 -81.5zM316 105q91 0 144 52.5
t77 161.5q18 83 12.5 131t-39.5 68.5t-102 20.5q-91 0 -144.5 -49.5t-78.5 -170.5q-23 -113 4.5 -163.5t126.5 -50.5z" />
    <glyph glyph-name="uni1EDE" unicode="&#x1ede;" horiz-adv-x="781" 
d="M393 687l17 81q56 3 76 14.5t24 33.5q5 20 -11.5 29.5t-48.5 9.5q-14 0 -32.5 -3t-32.5 -8l15 67q41 13 102 13q64 0 92 -26t19 -70q-9 -42 -33 -64t-74 -31l-10 -46h-103zM291 -10q-148 0 -213 81.5t-30 247.5q38 177 129.5 256t255.5 79q74 0 127 -18t84 -56
q51 2 77 25.5t39 82.5h97q-20 -94 -62 -137.5t-113 -54.5q7 -36 5 -80t-13 -97q-35 -166 -127 -247.5t-256 -81.5zM316 105q91 0 144 52.5t77 161.5q18 83 12.5 131t-39.5 68.5t-102 20.5q-91 0 -144.5 -49.5t-78.5 -170.5q-23 -113 4.5 -163.5t126.5 -50.5z" />
    <glyph glyph-name="uni1EE0" unicode="&#x1ee0;" horiz-adv-x="781" 
d="M539 697q-29 0 -55 10t-49.5 20t-48.5 10q-55 0 -98 -37l21 96q17 14 42 22.5t51 8.5q31 0 55 -10t47 -20t51 -10q56 0 91 38l-21 -96q-12 -13 -35 -22.5t-51 -9.5zM291 -10q-148 0 -213 81.5t-30 247.5q38 177 129.5 256t255.5 79q74 0 127 -18t84 -56q51 2 77 25.5
t39 82.5h97q-20 -94 -62 -137.5t-113 -54.5q7 -36 5 -80t-13 -97q-35 -166 -127 -247.5t-256 -81.5zM316 105q91 0 144 52.5t77 161.5q18 83 12.5 131t-39.5 68.5t-102 20.5q-91 0 -144.5 -49.5t-78.5 -170.5q-23 -113 4.5 -163.5t126.5 -50.5z" />
    <glyph glyph-name="Ohungarumlaut" unicode="&#x150;" horiz-adv-x="700" 
d="M244 687l117 176h119l-129 -176h-107zM471 687l117 176h120l-130 -176h-107zM291 -10q-148 0 -213 81.5t-30 247.5q38 177 129.5 256t255.5 79q152 0 215.5 -79t25.5 -256q-35 -166 -127 -247.5t-256 -81.5zM316 105q91 0 144 52.5t77 161.5q18 83 12.5 131t-39.5 68.5
t-102 20.5q-91 0 -144.5 -49.5t-78.5 -170.5q-23 -113 4.5 -163.5t126.5 -50.5z" />
    <glyph glyph-name="Omacron" unicode="&#x14c;" horiz-adv-x="700" 
d="M291 723l17 83h307l-17 -83h-307zM291 -10q-148 0 -213 81.5t-30 247.5q38 177 129.5 256t255.5 79q152 0 215.5 -79t25.5 -256q-35 -166 -127 -247.5t-256 -81.5zM316 105q91 0 144 52.5t77 161.5q18 83 12.5 131t-39.5 68.5t-102 20.5q-91 0 -144.5 -49.5t-78.5 -170.5
q-23 -113 4.5 -163.5t126.5 -50.5z" />
    <glyph glyph-name="Oslash" unicode="&#xd8;" horiz-adv-x="700" 
d="M93 -53l44 75q-66 35 -90 109t1 188q38 177 129.5 256t255.5 79q42 0 76 -6l27 45h77l-38 -64q74 -31 100 -106.5t-1 -203.5q-35 -166 -127 -247.5t-256 -81.5q-49 0 -90 9l-31 -52h-77zM205 136l238 401q-8 1 -16.5 1.5t-18.5 0.5q-91 0 -144.5 -49.5t-78.5 -170.5
q-14 -69 -10 -114t30 -69zM316 105q91 0 144 52.5t77 161.5q18 83 12.5 130.5t-40.5 68.5l-243 -409q11 -2 23.5 -3t26.5 -1z" />
    <glyph glyph-name="Oslashacute" unicode="&#x1fe;" horiz-adv-x="700" 
d="M359 688l120 187h117l-128 -187h-109zM93 -53l44 75q-66 35 -90 109t1 188q38 177 129.5 256t255.5 79q42 0 76 -6l27 45h77l-38 -64q74 -31 100 -106.5t-1 -203.5q-35 -166 -127 -247.5t-256 -81.5q-49 0 -90 9l-31 -52h-77zM205 136l238 401q-8 1 -16.5 1.5t-18.5 0.5
q-91 0 -144.5 -49.5t-78.5 -170.5q-14 -69 -10 -114t30 -69zM316 105q91 0 144 52.5t77 161.5q18 83 12.5 130.5t-40.5 68.5l-243 -409q11 -2 23.5 -3t26.5 -1z" />
    <glyph glyph-name="Otilde" unicode="&#xd5;" horiz-adv-x="700" 
d="M531 710q-29 0 -55 10t-49.5 20t-48.5 10q-55 0 -98 -37l21 96q17 14 42 22.5t51 8.5q31 0 55 -10t47 -20t51 -10q56 0 91 38l-21 -96q-12 -13 -35 -22.5t-51 -9.5zM291 -10q-148 0 -213 81.5t-30 247.5q38 177 129.5 256t255.5 79q152 0 215.5 -79t25.5 -256
q-35 -166 -127 -247.5t-256 -81.5zM316 105q91 0 144 52.5t77 161.5q18 83 12.5 131t-39.5 68.5t-102 20.5q-91 0 -144.5 -49.5t-78.5 -170.5q-23 -113 4.5 -163.5t126.5 -50.5z" />
    <glyph glyph-name="OE" unicode="&#x152;" horiz-adv-x="1028" 
d="M291 -10q-148 0 -213 81.5t-30 247.5q38 177 129.5 256t255.5 79q108 0 169 -38l6 28h462l-22 -105h-327l-35 -165h290l-22 -104h-290l-35 -166h327l-22 -104h-462l6 26q-78 -36 -187 -36zM316 105q91 0 144 52.5t77 161.5q18 83 12.5 131t-39.5 68.5t-102 20.5
q-91 0 -144.5 -49.5t-78.5 -170.5q-23 -113 4.5 -163.5t126.5 -50.5z" />
    <glyph glyph-name="P" unicode="P" horiz-adv-x="598" 
d="M1 0l136 644h294q74 0 118.5 -30.5t60.5 -81t3 -110.5q-21 -98 -85.5 -159t-180.5 -61h-169l-42 -202h-135zM201 309h135q64 0 97.5 30.5t43.5 82.5q12 56 -4.5 85.5t-82.5 29.5h-140z" />
    <glyph glyph-name="Thorn" unicode="&#xde;" horiz-adv-x="618" 
d="M1 0l136 644h135l-21 -102h167q72 0 115 -29t58 -79t1 -114q-21 -98 -87 -159t-185 -61h-163l-21 -100h-135zM179 207h135q64 0 97.5 30.5t44.5 82.5q11 56 -6 85.5t-82 29.5h-140z" />
    <glyph glyph-name="Q" unicode="Q" horiz-adv-x="700" 
d="M348 -172q-73 0 -105 43.5t-17 123.5q-115 17 -162 97.5t-16 226.5q38 177 129.5 256t255.5 79q152 0 215.5 -79t25.5 -256q-33 -153 -113.5 -234.5t-221.5 -92.5q-7 -40 5 -54t55 -14q17 0 37 3t37 8l-20 -94q-19 -5 -47.5 -9t-57.5 -4zM316 105q91 0 144 52.5t77 161.5
q18 83 12.5 131t-39.5 68.5t-102 20.5q-91 0 -144.5 -49.5t-78.5 -170.5q-23 -113 4.5 -163.5t126.5 -50.5z" />
    <glyph glyph-name="R" unicode="R" horiz-adv-x="618" 
d="M1 0l136 644h309q102 0 146.5 -58.5t22.5 -157.5q-13 -65 -55.5 -113t-110.5 -67q13 -13 19.5 -28t11.5 -40l40 -180h-140l-40 173q-5 22 -15 31t-38 9h-106l-45 -213h-135zM205 325h139q53 0 88 23.5t46 79.5q12 54 -4.5 79t-77.5 25h-147z" />
    <glyph glyph-name="Racute" unicode="&#x154;" horiz-adv-x="618" 
d="M323 688l120 187h117l-128 -187h-109zM1 0l136 644h309q102 0 146.5 -58.5t22.5 -157.5q-13 -65 -55.5 -113t-110.5 -67q13 -13 19.5 -28t11.5 -40l40 -180h-140l-40 173q-5 22 -15 31t-38 9h-106l-45 -213h-135zM205 325h139q53 0 88 23.5t46 79.5q12 54 -4.5 79
t-77.5 25h-147z" />
    <glyph glyph-name="Rcaron" unicode="&#x158;" horiz-adv-x="618" 
d="M348 688l-97 174h100l50 -100l96 100h109l-172 -174h-86zM1 0l136 644h309q102 0 146.5 -58.5t22.5 -157.5q-13 -65 -55.5 -113t-110.5 -67q13 -13 19.5 -28t11.5 -40l40 -180h-140l-40 173q-5 22 -15 31t-38 9h-106l-45 -213h-135zM205 325h139q53 0 88 23.5t46 79.5
q12 54 -4.5 79t-77.5 25h-147z" />
    <glyph glyph-name="uni0156" unicode="&#x156;" horiz-adv-x="618" 
d="M1 0l136 644h309q102 0 146.5 -58.5t22.5 -157.5q-13 -65 -55.5 -113t-110.5 -67q13 -13 19.5 -28t11.5 -40l40 -180h-140l-40 173q-5 22 -15 31t-38 9h-106l-45 -213h-135zM205 325h139q53 0 88 23.5t46 79.5q12 54 -4.5 79t-77.5 25h-147zM109 -238l73 201h106
l-93 -201h-86z" />
    <glyph glyph-name="uni1E5A" unicode="&#x1e5a;" horiz-adv-x="618" 
d="M1 0l136 644h309q102 0 146.5 -58.5t22.5 -157.5q-13 -65 -55.5 -113t-110.5 -67q13 -13 19.5 -28t11.5 -40l40 -180h-140l-40 173q-5 22 -15 31t-38 9h-106l-45 -213h-135zM205 325h139q53 0 88 23.5t46 79.5q12 54 -4.5 79t-77.5 25h-147zM164 -181l21 99h107l-21 -99
h-107z" />
    <glyph glyph-name="uni1E5C" unicode="&#x1e5c;" horiz-adv-x="618" 
d="M238 717l17 83h307l-17 -83h-307zM1 0l136 644h309q102 0 146.5 -58.5t22.5 -157.5q-13 -65 -55.5 -113t-110.5 -67q13 -13 19.5 -28t11.5 -40l40 -180h-140l-40 173q-5 22 -15 31t-38 9h-106l-45 -213h-135zM205 325h139q53 0 88 23.5t46 79.5q12 54 -4.5 79t-77.5 25
h-147zM147 -181l21 99h107l-21 -99h-107z" />
    <glyph glyph-name="uni1E5E" unicode="&#x1e5e;" horiz-adv-x="618" 
d="M1 0l136 644h309q102 0 146.5 -58.5t22.5 -157.5q-13 -65 -55.5 -113t-110.5 -67q13 -13 19.5 -28t11.5 -40l40 -180h-140l-40 173q-5 22 -15 31t-38 9h-106l-45 -213h-135zM205 325h139q53 0 88 23.5t46 79.5q12 54 -4.5 79t-77.5 25h-147zM56 -155l17 83h307l-17 -83
h-307z" />
    <glyph glyph-name="S" unicode="S" horiz-adv-x="556" 
d="M198 -10q-62 0 -113.5 9t-86.5 26l25 119q40 -18 89 -29t98 -11q70 0 105.5 13t45.5 59q6 29 -4.5 46t-42 30.5t-90.5 30.5q-95 28 -127.5 70t-16.5 116q19 89 88.5 137t205.5 48q58 0 106.5 -8t76.5 -19l-26 -119q-74 31 -164 31q-63 0 -102 -13.5t-48 -56.5
q-5 -25 4.5 -40t39 -27t82.5 -27q75 -21 111.5 -50t45.5 -66t-1 -83q-12 -56 -43.5 -98t-93 -65t-164.5 -23z" />
    <glyph glyph-name="Sacute" unicode="&#x15a;" horiz-adv-x="556" 
d="M303 694l120 187h117l-128 -187h-109zM198 -10q-62 0 -113.5 9t-86.5 26l25 119q40 -18 89 -29t98 -11q70 0 105.5 13t45.5 59q6 29 -4.5 46t-42 30.5t-90.5 30.5q-95 28 -127.5 70t-16.5 116q19 89 88.5 137t205.5 48q58 0 106.5 -8t76.5 -19l-26 -119q-74 31 -164 31
q-63 0 -102 -13.5t-48 -56.5q-5 -25 4.5 -40t39 -27t82.5 -27q75 -21 111.5 -50t45.5 -66t-1 -83q-12 -56 -43.5 -98t-93 -65t-164.5 -23z" />
    <glyph glyph-name="Scaron" unicode="&#x160;" horiz-adv-x="556" 
d="M332 688l-97 174h100l50 -100l96 100h109l-172 -174h-86zM198 -10q-62 0 -113.5 9t-86.5 26l25 119q40 -18 89 -29t98 -11q70 0 105.5 13t45.5 59q6 29 -4.5 46t-42 30.5t-90.5 30.5q-95 28 -127.5 70t-16.5 116q19 89 88.5 137t205.5 48q58 0 106.5 -8t76.5 -19
l-26 -119q-74 31 -164 31q-63 0 -102 -13.5t-48 -56.5q-5 -25 4.5 -40t39 -27t82.5 -27q75 -21 111.5 -50t45.5 -66t-1 -83q-12 -56 -43.5 -98t-93 -65t-164.5 -23z" />
    <glyph glyph-name="Scedilla" unicode="&#x15e;" horiz-adv-x="556" 
d="M141 -240q-17 0 -40 2.5t-34 5.5l15 68q27 -8 59 -8q44 0 63.5 6.5t23.5 30.5q5 26 -14 31.5t-54 5.5h-44l44 89q-49 2 -90.5 10.5t-71.5 23.5l25 119q40 -18 89 -29t98 -11q70 0 105.5 13t45.5 59q6 29 -4.5 46t-42 30.5t-90.5 30.5q-95 28 -127.5 70t-16.5 116
q19 89 88.5 137t205.5 48q58 0 106.5 -8t76.5 -19l-26 -119q-74 31 -164 31q-63 0 -102 -13.5t-48 -56.5q-5 -25 4.5 -40t39 -27t82.5 -27q75 -21 111.5 -50t45.5 -66t-1 -83q-11 -52 -38 -91t-78 -63t-135 -30l-20 -37q53 0 74 -24.5t13 -66.5q-10 -49 -53 -76.5
t-121 -27.5z" />
    <glyph glyph-name="Scircumflex" unicode="&#x15c;" horiz-adv-x="556" 
d="M186 704l171 174h86l98 -174h-99l-53 100l-93 -100h-110zM198 -10q-62 0 -113.5 9t-86.5 26l25 119q40 -18 89 -29t98 -11q70 0 105.5 13t45.5 59q6 29 -4.5 46t-42 30.5t-90.5 30.5q-95 28 -127.5 70t-16.5 116q19 89 88.5 137t205.5 48q58 0 106.5 -8t76.5 -19
l-26 -119q-74 31 -164 31q-63 0 -102 -13.5t-48 -56.5q-5 -25 4.5 -40t39 -27t82.5 -27q75 -21 111.5 -50t45.5 -66t-1 -83q-12 -56 -43.5 -98t-93 -65t-164.5 -23z" />
    <glyph glyph-name="uni0218" unicode="&#x218;" horiz-adv-x="556" 
d="M198 -10q-62 0 -113.5 9t-86.5 26l25 119q40 -18 89 -29t98 -11q70 0 105.5 13t45.5 59q6 29 -4.5 46t-42 30.5t-90.5 30.5q-95 28 -127.5 70t-16.5 116q19 89 88.5 137t205.5 48q58 0 106.5 -8t76.5 -19l-26 -119q-74 31 -164 31q-63 0 -102 -13.5t-48 -56.5
q-5 -25 4.5 -40t39 -27t82.5 -27q75 -21 111.5 -50t45.5 -66t-1 -83q-12 -56 -43.5 -98t-93 -65t-164.5 -23zM91 -226l67 179h116l-80 -179h-103z" />
    <glyph glyph-name="uni1E60" unicode="&#x1e60;" horiz-adv-x="556" 
d="M314 713l21 98h105l-21 -98h-105zM198 -10q-62 0 -113.5 9t-86.5 26l25 119q40 -18 89 -29t98 -11q70 0 105.5 13t45.5 59q6 29 -4.5 46t-42 30.5t-90.5 30.5q-95 28 -127.5 70t-16.5 116q19 89 88.5 137t205.5 48q58 0 106.5 -8t76.5 -19l-26 -119q-74 31 -164 31
q-63 0 -102 -13.5t-48 -56.5q-5 -25 4.5 -40t39 -27t82.5 -27q75 -21 111.5 -50t45.5 -66t-1 -83q-12 -56 -43.5 -98t-93 -65t-164.5 -23z" />
    <glyph glyph-name="uni1E62" unicode="&#x1e62;" horiz-adv-x="556" 
d="M198 -10q-62 0 -113.5 9t-86.5 26l25 119q40 -18 89 -29t98 -11q70 0 105.5 13t45.5 59q6 29 -4.5 46t-42 30.5t-90.5 30.5q-95 28 -127.5 70t-16.5 116q19 89 88.5 137t205.5 48q58 0 106.5 -8t76.5 -19l-26 -119q-74 31 -164 31q-63 0 -102 -13.5t-48 -56.5
q-5 -25 4.5 -40t39 -27t82.5 -27q75 -21 111.5 -50t45.5 -66t-1 -83q-12 -56 -43.5 -98t-93 -65t-164.5 -23zM127 -181l21 99h107l-21 -99h-107z" />
    <glyph glyph-name="uni1E9E" unicode="&#x1e9e;" horiz-adv-x="628" 
d="M333 -10q-81 0 -139 23l24 114q23 -10 53.5 -16t59.5 -6q51 0 79.5 21t36.5 61q8 38 -10 53.5t-68 15.5h-94l22 106l186 102q5 21 -2.5 39.5t-32.5 29.5t-75 11q-69 0 -108 -30.5t-52 -90.5l-89 -423h-128l88 417q24 112 99.5 174.5t213.5 62.5q84 0 134 -30t68 -80.5
t5 -110.5l-176 -94h25q42 0 72.5 -19.5t44 -54.5t3.5 -80q-12 -55 -42.5 -99t-79.5 -70t-118 -26z" />
    <glyph glyph-name="uni018F" unicode="&#x18f;" horiz-adv-x="678" 
d="M269 -10q-88 0 -146 34t-81 96t-6 145l25 117h481q9 65 -5.5 102t-63 53t-141.5 16q-30 0 -67.5 -5t-74 -14t-64.5 -20l21 99q48 17 110.5 29t125.5 12q158 0 230.5 -88t37.5 -252q-21 -99 -69 -172t-125.5 -112.5t-187.5 -39.5zM290 87q189 0 231 197h-363l-10 -47
q-16 -72 15 -111t127 -39z" />
    <glyph glyph-name="T" unicode="T" horiz-adv-x="564" 
d="M159 0l114 540h-198l22 104h530l-22 -104h-197l-114 -540h-135z" />
    <glyph glyph-name="Tbar" unicode="&#x166;" horiz-adv-x="564" 
d="M159 0l62 293h-117l21 99h117l31 148h-198l22 104h530l-22 -104h-197l-31 -148h118l-21 -99h-118l-62 -293h-135z" />
    <glyph glyph-name="Tcaron" unicode="&#x164;" horiz-adv-x="564" 
d="M332 704l-97 174h100l50 -100l96 100h109l-172 -174h-86zM159 0l114 540h-198l22 104h530l-22 -104h-197l-114 -540h-135z" />
    <glyph glyph-name="uni0162" unicode="&#x162;" horiz-adv-x="564" 
d="M161 -240q-17 0 -40 2.5t-34 5.5l15 68q27 -8 59 -8q44 0 63.5 6.5t23.5 30.5q5 26 -14 31.5t-54 5.5h-44l49 98h-26l114 540h-198l22 104h530l-22 -104h-197l-114 -540h-21l-25 -45q53 0 74 -24.5t13 -66.5q-10 -49 -53 -76.5t-121 -27.5z" />
    <glyph glyph-name="uni021A" unicode="&#x21a;" horiz-adv-x="552" 
d="M147 0l114 540h-198l22 104h530l-22 -104h-197l-114 -540h-135zM82 -248l73 201h106l-93 -201h-86z" />
    <glyph glyph-name="uni1E6C" unicode="&#x1e6c;" horiz-adv-x="564" 
d="M159 0l114 540h-198l22 104h530l-22 -104h-197l-114 -540h-135zM134 -171l21 99h107l-21 -99h-107z" />
    <glyph glyph-name="uni1E6E" unicode="&#x1e6e;" horiz-adv-x="564" 
d="M159 0l114 540h-198l22 104h530l-22 -104h-197l-114 -540h-135zM42 -145l17 83h307l-17 -83h-307z" />
    <glyph glyph-name="U" unicode="U" horiz-adv-x="680" 
d="M281 -10q-83 0 -141.5 30t-84 86.5t-8.5 135.5l85 402h135l-83 -392q-17 -82 9 -114.5t113 -32.5q81 0 124 36.5t59 110.5l83 392h135l-85 -402q-27 -127 -110.5 -189.5t-230.5 -62.5z" />
    <glyph glyph-name="Uacute" unicode="&#xda;" horiz-adv-x="680" 
d="M371 688l120 187h117l-128 -187h-109zM281 -10q-83 0 -141.5 30t-84 86.5t-8.5 135.5l85 402h135l-83 -392q-17 -82 9 -114.5t113 -32.5q81 0 124 36.5t59 110.5l83 392h135l-85 -402q-27 -127 -110.5 -189.5t-230.5 -62.5z" />
    <glyph glyph-name="Ubreve" unicode="&#x16c;" horiz-adv-x="680" 
d="M423 688q-69 0 -103.5 42t-18.5 115h84q-7 -31 1.5 -55t48.5 -24q35 0 57 24t29 55h95q-16 -73 -64 -115t-129 -42zM281 -10q-83 0 -141.5 30t-84 86.5t-8.5 135.5l85 402h135l-83 -392q-17 -82 9 -114.5t113 -32.5q81 0 124 36.5t59 110.5l83 392h135l-85 -402
q-27 -127 -110.5 -189.5t-230.5 -62.5z" />
    <glyph glyph-name="uni01D3" unicode="&#x1d3;" horiz-adv-x="680" 
d="M387 688l-97 174h100l50 -100l96 100h109l-172 -174h-86zM281 -10q-83 0 -141.5 30t-84 86.5t-8.5 135.5l85 402h135l-83 -392q-17 -82 9 -114.5t113 -32.5q81 0 124 36.5t59 110.5l83 392h135l-85 -402q-27 -127 -110.5 -189.5t-230.5 -62.5z" />
    <glyph glyph-name="Ucircumflex" unicode="&#xdb;" horiz-adv-x="680" 
d="M253 688l171 174h86l98 -174h-99l-53 100l-93 -100h-110zM281 -10q-83 0 -141.5 30t-84 86.5t-8.5 135.5l85 402h135l-83 -392q-17 -82 9 -114.5t113 -32.5q81 0 124 36.5t59 110.5l83 392h135l-85 -402q-27 -127 -110.5 -189.5t-230.5 -62.5z" />
    <glyph glyph-name="Udieresis" unicode="&#xdc;" horiz-adv-x="680" 
d="M285 713l21 98h105l-21 -98h-105zM480 713l21 98h106l-21 -98h-106zM281 -10q-83 0 -141.5 30t-84 86.5t-8.5 135.5l85 402h135l-83 -392q-17 -82 9 -114.5t113 -32.5q81 0 124 36.5t59 110.5l83 392h135l-85 -402q-27 -127 -110.5 -189.5t-230.5 -62.5z" />
    <glyph glyph-name="uni01D7" unicode="&#x1d7;" horiz-adv-x="680" 
d="M403 801l86 129h102l-93 -129h-95zM279 688l20 93h100l-20 -93h-100zM479 688l20 93h101l-20 -93h-101zM281 -10q-83 0 -141.5 30t-84 86.5t-8.5 135.5l85 402h135l-83 -392q-17 -82 9 -114.5t113 -32.5q81 0 124 36.5t59 110.5l83 392h135l-85 -402
q-27 -127 -110.5 -189.5t-230.5 -62.5z" />
    <glyph glyph-name="uni01D9" unicode="&#x1d9;" horiz-adv-x="680" 
d="M407 798l-87 121h95l44 -73l76 73h103l-138 -121h-93zM279 688l20 93h101l-20 -93h-101zM480 688l20 93h100l-20 -93h-100zM281 -10q-83 0 -141.5 30t-84 86.5t-8.5 135.5l85 402h135l-83 -392q-17 -82 9 -114.5t113 -32.5q81 0 124 36.5t59 110.5l83 392h135l-85 -402
q-27 -127 -110.5 -189.5t-230.5 -62.5z" />
    <glyph glyph-name="uni01DB" unicode="&#x1db;" horiz-adv-x="680" 
d="M407 801l-39 129h102l32 -129h-95zM278 688l20 93h100l-20 -93h-100zM478 688l20 93h101l-20 -93h-101zM281 -10q-83 0 -141.5 30t-84 86.5t-8.5 135.5l85 402h135l-83 -392q-17 -82 9 -114.5t113 -32.5q81 0 124 36.5t59 110.5l83 392h135l-85 -402
q-27 -127 -110.5 -189.5t-230.5 -62.5z" />
    <glyph glyph-name="uni01D5" unicode="&#x1d5;" horiz-adv-x="680" 
d="M308 840l17 83h307l-17 -83h-307zM282 702l21 98h105l-21 -98h-105zM477 702l21 98h106l-21 -98h-106zM281 -10q-83 0 -141.5 30t-84 86.5t-8.5 135.5l85 402h135l-83 -392q-17 -82 9 -114.5t113 -32.5q81 0 124 36.5t59 110.5l83 392h135l-85 -402
q-27 -127 -110.5 -189.5t-230.5 -62.5z" />
    <glyph glyph-name="uni1EE4" unicode="&#x1ee4;" horiz-adv-x="680" 
d="M281 -10q-83 0 -141.5 30t-84 86.5t-8.5 135.5l85 402h135l-83 -392q-17 -82 9 -114.5t113 -32.5q81 0 124 36.5t59 110.5l83 392h135l-85 -402q-27 -127 -110.5 -189.5t-230.5 -62.5zM192 -181l21 99h107l-21 -99h-107z" />
    <glyph glyph-name="Ugrave" unicode="&#xd9;" horiz-adv-x="680" 
d="M387 688l-48 187h117l40 -187h-109zM281 -10q-83 0 -141.5 30t-84 86.5t-8.5 135.5l85 402h135l-83 -392q-17 -82 9 -114.5t113 -32.5q81 0 124 36.5t59 110.5l83 392h135l-85 -402q-27 -127 -110.5 -189.5t-230.5 -62.5z" />
    <glyph glyph-name="uni1EE6" unicode="&#x1ee6;" horiz-adv-x="680" 
d="M377 687l17 81q56 3 76 14.5t24 33.5q5 20 -11.5 29.5t-48.5 9.5q-14 0 -32.5 -3t-32.5 -8l15 67q41 13 102 13q64 0 92 -26t19 -70q-9 -42 -33 -64t-74 -31l-10 -46h-103zM281 -10q-83 0 -141.5 30t-84 86.5t-8.5 135.5l85 402h135l-83 -392q-17 -82 9 -114.5t113 -32.5
q81 0 124 36.5t59 110.5l83 392h135l-85 -402q-27 -127 -110.5 -189.5t-230.5 -62.5z" />
    <glyph glyph-name="Uhorn" unicode="&#x1af;" horiz-adv-x="839" 
d="M281 -10q-83 0 -141.5 30t-84 86.5t-8.5 135.5l85 402h135l-83 -392q-17 -82 9 -114.5t113 -32.5q81 0 124 36.5t59 110.5l83 392h135l-14 -64q58 1 82.5 24.5t37.5 83.5h97q-16 -74 -45.5 -117t-76 -61.5t-114.5 -19.5l-52 -248q-27 -127 -110.5 -189.5t-230.5 -62.5z
" />
    <glyph glyph-name="uni1EE8" unicode="&#x1ee8;" horiz-adv-x="839" 
d="M382 688l120 187h117l-128 -187h-109zM281 -10q-83 0 -141.5 30t-84 86.5t-8.5 135.5l85 402h135l-83 -392q-17 -82 9 -114.5t113 -32.5q81 0 124 36.5t59 110.5l83 392h135l-14 -64q58 1 82.5 24.5t37.5 83.5h97q-16 -74 -45.5 -117t-76 -61.5t-114.5 -19.5l-52 -248
q-27 -127 -110.5 -189.5t-230.5 -62.5z" />
    <glyph glyph-name="uni1EF0" unicode="&#x1ef0;" horiz-adv-x="839" 
d="M281 -10q-83 0 -141.5 30t-84 86.5t-8.5 135.5l85 402h135l-83 -392q-17 -82 9 -114.5t113 -32.5q81 0 124 36.5t59 110.5l83 392h135l-14 -64q58 1 82.5 24.5t37.5 83.5h97q-16 -74 -45.5 -117t-76 -61.5t-114.5 -19.5l-52 -248q-27 -127 -110.5 -189.5t-230.5 -62.5z
M191 -181l21 99h107l-21 -99h-107z" />
    <glyph glyph-name="uni1EEA" unicode="&#x1eea;" horiz-adv-x="839" 
d="M385 688l-48 187h117l40 -187h-109zM281 -10q-83 0 -141.5 30t-84 86.5t-8.5 135.5l85 402h135l-83 -392q-17 -82 9 -114.5t113 -32.5q81 0 124 36.5t59 110.5l83 392h135l-14 -64q58 1 82.5 24.5t37.5 83.5h97q-16 -74 -45.5 -117t-76 -61.5t-114.5 -19.5l-52 -248
q-27 -127 -110.5 -189.5t-230.5 -62.5z" />
    <glyph glyph-name="uni1EEC" unicode="&#x1eec;" horiz-adv-x="839" 
d="M383 687l17 81q56 3 76 14.5t24 33.5q5 20 -11.5 29.5t-48.5 9.5q-14 0 -32.5 -3t-32.5 -8l15 67q41 13 102 13q64 0 92 -26t19 -70q-9 -42 -33 -64t-74 -31l-10 -46h-103zM281 -10q-83 0 -141.5 30t-84 86.5t-8.5 135.5l85 402h135l-83 -392q-17 -82 9 -114.5t113 -32.5
q81 0 124 36.5t59 110.5l83 392h135l-14 -64q58 1 82.5 24.5t37.5 83.5h97q-16 -74 -45.5 -117t-76 -61.5t-114.5 -19.5l-52 -248q-27 -127 -110.5 -189.5t-230.5 -62.5z" />
    <glyph glyph-name="uni1EEE" unicode="&#x1eee;" horiz-adv-x="839" 
d="M518 697q-29 0 -55 10t-49.5 20t-48.5 10q-55 0 -98 -37l21 96q17 14 42 22.5t51 8.5q31 0 55 -10t47 -20t51 -10q56 0 91 38l-21 -96q-12 -13 -35 -22.5t-51 -9.5zM281 -10q-83 0 -141.5 30t-84 86.5t-8.5 135.5l85 402h135l-83 -392q-17 -82 9 -114.5t113 -32.5
q81 0 124 36.5t59 110.5l83 392h135l-14 -64q58 1 82.5 24.5t37.5 83.5h97q-16 -74 -45.5 -117t-76 -61.5t-114.5 -19.5l-52 -248q-27 -127 -110.5 -189.5t-230.5 -62.5z" />
    <glyph glyph-name="Uhungarumlaut" unicode="&#x170;" horiz-adv-x="680" 
d="M240 687l117 176h119l-129 -176h-107zM467 687l117 176h120l-130 -176h-107zM281 -10q-83 0 -141.5 30t-84 86.5t-8.5 135.5l85 402h135l-83 -392q-17 -82 9 -114.5t113 -32.5q81 0 124 36.5t59 110.5l83 392h135l-85 -402q-27 -127 -110.5 -189.5t-230.5 -62.5z" />
    <glyph glyph-name="Umacron" unicode="&#x16a;" horiz-adv-x="680" 
d="M284 722l17 83h307l-17 -83h-307zM281 -10q-83 0 -141.5 30t-84 86.5t-8.5 135.5l85 402h135l-83 -392q-17 -82 9 -114.5t113 -32.5q81 0 124 36.5t59 110.5l83 392h135l-85 -402q-27 -127 -110.5 -189.5t-230.5 -62.5z" />
    <glyph glyph-name="Uogonek" unicode="&#x172;" horiz-adv-x="680" 
d="M270 -220q-46 0 -76 22.5t-20 68.5q16 71 85 120q-76 4 -130 35t-76 85.5t-6 130.5l85 402h135l-83 -392q-17 -82 9 -114.5t113 -32.5q81 0 124 36.5t59 110.5l83 392h135l-85 -402q-23 -106 -85 -167.5t-169 -78.5q-33 -22 -55.5 -47t-27.5 -53q-4 -21 7 -29t31 -8
q12 0 26 3t24 8l-16 -76q-15 -6 -38.5 -10t-48.5 -4z" />
    <glyph glyph-name="Uring" unicode="&#x16e;" horiz-adv-x="680" 
d="M429 688q-57 0 -82.5 34.5t-15.5 84.5t49.5 85t98.5 35t85 -35t15 -85q-10 -50 -49 -84.5t-101 -34.5zM442 750q32 0 49 16.5t22 40.5t-7 40.5t-40 16.5q-29 0 -47 -16.5t-23 -40.5t7.5 -40.5t38.5 -16.5zM281 -10q-83 0 -141.5 30t-84 86.5t-8.5 135.5l85 402h135
l-83 -392q-17 -82 9 -114.5t113 -32.5q81 0 124 36.5t59 110.5l83 392h135l-85 -402q-27 -127 -110.5 -189.5t-230.5 -62.5z" />
    <glyph glyph-name="Utilde" unicode="&#x168;" horiz-adv-x="680" 
d="M518 700q-29 0 -55 10t-49.5 20t-48.5 10q-55 0 -98 -37l21 96q17 14 42 22.5t51 8.5q31 0 55 -10t47 -20t51 -10q56 0 91 38l-21 -96q-12 -13 -35 -22.5t-51 -9.5zM281 -10q-83 0 -141.5 30t-84 86.5t-8.5 135.5l85 402h135l-83 -392q-17 -82 9 -114.5t113 -32.5
q81 0 124 36.5t59 110.5l83 392h135l-85 -402q-27 -127 -110.5 -189.5t-230.5 -62.5z" />
    <glyph glyph-name="V" unicode="V" horiz-adv-x="713" 
d="M227 0l-110 644h137l74 -493l283 493h145l-381 -644h-148z" />
    <glyph glyph-name="W" unicode="W" horiz-adv-x="875" 
d="M131 0l-14 644h133l5 -435l180 351l17 84h110l32 -436l192 436h132l-285 -644h-124l-31 412l-214 -412h-133z" />
    <glyph glyph-name="Wacute" unicode="&#x1e82;" horiz-adv-x="875" 
d="M466 688l120 187h117l-128 -187h-109zM131 0l-14 644h133l5 -435l180 351l17 84h110l32 -436l192 436h132l-285 -644h-124l-31 412l-214 -412h-133z" />
    <glyph glyph-name="Wcircumflex" unicode="&#x174;" horiz-adv-x="875" 
d="M356 688l171 174h86l98 -174h-99l-53 100l-93 -100h-110zM131 0l-14 644h133l5 -435l180 351l17 84h110l32 -436l192 436h132l-285 -644h-124l-31 412l-214 -412h-133z" />
    <glyph glyph-name="Wdieresis" unicode="&#x1e84;" horiz-adv-x="875" 
d="M388 713l21 98h105l-21 -98h-105zM583 713l21 98h106l-21 -98h-106zM131 0l-14 644h133l5 -435l180 351l17 84h110l32 -436l192 436h132l-285 -644h-124l-31 412l-214 -412h-133z" />
    <glyph glyph-name="Wgrave" unicode="&#x1e80;" horiz-adv-x="875" 
d="M467 688l-48 187h117l40 -187h-109zM131 0l-14 644h133l5 -435l180 351l17 84h110l32 -436l192 436h132l-285 -644h-124l-31 412l-214 -412h-133z" />
    <glyph glyph-name="X" unicode="X" horiz-adv-x="702" 
d="M-20 0l301 323l-159 321h159l104 -215l194 215h159l-295 -321l165 -323h-161l-108 215l-198 -215h-161z" />
    <glyph glyph-name="Y" unicode="Y" horiz-adv-x="671" 
d="M212 0l50 238l-145 406h137l97 -291l219 291h144l-317 -406l-50 -238h-135z" />
    <glyph glyph-name="Yacute" unicode="&#xdd;" horiz-adv-x="671" 
d="M363 688l120 187h117l-128 -187h-109zM212 0l50 238l-145 406h137l97 -291l219 291h144l-317 -406l-50 -238h-135z" />
    <glyph glyph-name="Ycircumflex" unicode="&#x176;" horiz-adv-x="671" 
d="M249 688l171 174h86l98 -174h-99l-53 100l-93 -100h-110zM212 0l50 238l-145 406h137l97 -291l219 291h144l-317 -406l-50 -238h-135z" />
    <glyph glyph-name="Ydieresis" unicode="&#x178;" horiz-adv-x="671" 
d="M281 713l21 98h105l-21 -98h-105zM476 713l21 98h106l-21 -98h-106zM212 0l50 238l-145 406h137l97 -291l219 291h144l-317 -406l-50 -238h-135z" />
    <glyph glyph-name="uni1E8E" unicode="&#x1e8e;" horiz-adv-x="671" 
d="M378 713l21 98h105l-21 -98h-105zM212 0l50 238l-145 406h137l97 -291l219 291h144l-317 -406l-50 -238h-135z" />
    <glyph glyph-name="uni1EF4" unicode="&#x1ef4;" horiz-adv-x="671" 
d="M212 0l50 238l-145 406h137l97 -291l219 291h144l-317 -406l-50 -238h-135zM190 -171l21 99h107l-21 -99h-107z" />
    <glyph glyph-name="Ygrave" unicode="&#x1ef2;" horiz-adv-x="671" 
d="M381 688l-48 187h117l40 -187h-109zM212 0l50 238l-145 406h137l97 -291l219 291h144l-317 -406l-50 -238h-135z" />
    <glyph glyph-name="uni1EF6" unicode="&#x1ef6;" horiz-adv-x="671" 
d="M369 687l17 81q56 3 76 14.5t24 33.5q5 20 -11.5 29.5t-48.5 9.5q-14 0 -32.5 -3t-32.5 -8l15 67q41 13 102 13q64 0 92 -26t19 -70q-9 -42 -33 -64t-74 -31l-10 -46h-103zM212 0l50 238l-145 406h137l97 -291l219 291h144l-317 -406l-50 -238h-135z" />
    <glyph glyph-name="uni1EF8" unicode="&#x1ef8;" horiz-adv-x="671" 
d="M514 700q-29 0 -55 10t-49.5 20t-48.5 10q-55 0 -98 -37l21 96q17 14 42 22.5t51 8.5q31 0 55 -10t47 -20t51 -10q56 0 91 38l-21 -96q-12 -13 -35 -22.5t-51 -9.5zM212 0l50 238l-145 406h137l97 -291l219 291h144l-317 -406l-50 -238h-135z" />
    <glyph glyph-name="Z" unicode="Z" horiz-adv-x="580" 
d="M-19 0l14 70l423 462h-308l23 112h484l-17 -82l-418 -458h326l-22 -104h-505z" />
    <glyph glyph-name="Zacute" unicode="&#x179;" horiz-adv-x="580" 
d="M331 688l120 187h117l-128 -187h-109zM-19 0l14 70l423 462h-308l23 112h484l-17 -82l-418 -458h326l-22 -104h-505z" />
    <glyph glyph-name="Zcaron" unicode="&#x17d;" horiz-adv-x="580" 
d="M360 688l-97 174h100l50 -100l96 100h109l-172 -174h-86zM-19 0l14 70l423 462h-308l23 112h484l-17 -82l-418 -458h326l-22 -104h-505z" />
    <glyph glyph-name="Zdotaccent" unicode="&#x17b;" horiz-adv-x="580" 
d="M347 713l21 98h105l-21 -98h-105zM-19 0l14 70l423 462h-308l23 112h484l-17 -82l-418 -458h326l-22 -104h-505z" />
    <glyph glyph-name="uni1E92" unicode="&#x1e92;" horiz-adv-x="580" 
d="M-19 0l14 70l423 462h-308l23 112h484l-17 -82l-418 -458h326l-22 -104h-505zM162 -181l21 99h107l-21 -99h-107z" />
    <glyph glyph-name="a" unicode="a" horiz-adv-x="591" 
d="M196 -10q-61 0 -105.5 22t-63 71.5t-1.5 130.5q18 85 60 145t101 92.5t126 32.5q40 0 69 -9t54 -32l6 31h135l-100 -474h-116l1 44q-37 -27 -76.5 -40.5t-89.5 -13.5zM254 89q63 0 116 43l44 211q-31 42 -87 42q-127 0 -164 -171q-16 -73 5.5 -99t85.5 -26z" />
    <glyph glyph-name="aacute" unicode="&#xe1;" horiz-adv-x="591" 
d="M284 522l120 187h117l-128 -187h-109zM196 -10q-61 0 -105.5 22t-63 71.5t-1.5 130.5q18 85 60 145t101 92.5t126 32.5q40 0 69 -9t54 -32l6 31h135l-100 -474h-116l1 44q-37 -27 -76.5 -40.5t-89.5 -13.5zM254 89q63 0 116 43l44 211q-31 42 -87 42q-127 0 -164 -171
q-16 -73 5.5 -99t85.5 -26z" />
    <glyph glyph-name="abreve" unicode="&#x103;" horiz-adv-x="591" 
d="M354 522q-69 0 -103.5 42t-18.5 115h84q-7 -31 1.5 -55t48.5 -24q35 0 57 24t29 55h95q-16 -73 -64 -115t-129 -42zM196 -10q-61 0 -105.5 22t-63 71.5t-1.5 130.5q18 85 60 145t101 92.5t126 32.5q40 0 69 -9t54 -32l6 31h135l-100 -474h-116l1 44q-37 -27 -76.5 -40.5
t-89.5 -13.5zM254 89q63 0 116 43l44 211q-31 42 -87 42q-127 0 -164 -171q-16 -73 5.5 -99t85.5 -26z" />
    <glyph glyph-name="uni1EAF" unicode="&#x1eaf;" horiz-adv-x="591" 
d="M326 652l96 141h102l-103 -141h-95zM354 522q-44 0 -78.5 16t-50 50.5t-3.5 89.5h77q-9 -41 4.5 -63t62.5 -22q83 0 102 85h83q-18 -83 -69 -119.5t-128 -36.5zM196 -10q-61 0 -105.5 22t-63 71.5t-1.5 130.5q18 85 60 145t101 92.5t126 32.5q40 0 69 -9t54 -32l6 31h135
l-100 -474h-116l1 44q-37 -27 -76.5 -40.5t-89.5 -13.5zM254 89q63 0 116 43l44 211q-31 42 -87 42q-127 0 -164 -171q-16 -73 5.5 -99t85.5 -26z" />
    <glyph glyph-name="uni1EB7" unicode="&#x1eb7;" horiz-adv-x="591" 
d="M354 522q-69 0 -103.5 42t-18.5 115h84q-7 -31 1.5 -55t48.5 -24q35 0 57 24t29 55h95q-16 -73 -64 -115t-129 -42zM196 -10q-61 0 -105.5 22t-63 71.5t-1.5 130.5q18 85 60 145t101 92.5t126 32.5q40 0 69 -9t54 -32l6 31h135l-100 -474h-116l1 44q-37 -27 -76.5 -40.5
t-89.5 -13.5zM254 89q63 0 116 43l44 211q-31 42 -87 42q-127 0 -164 -171q-16 -73 5.5 -99t85.5 -26zM154 -181l21 99h107l-21 -99h-107z" />
    <glyph glyph-name="uni1EB1" unicode="&#x1eb1;" horiz-adv-x="591" 
d="M336 652l-43 141h102l36 -141h-95zM350 522q-44 0 -78.5 16t-50 50.5t-3.5 89.5h77q-9 -41 4.5 -63t62.5 -22q83 0 102 85h83q-18 -83 -69 -119.5t-128 -36.5zM196 -10q-61 0 -105.5 22t-63 71.5t-1.5 130.5q18 85 60 145t101 92.5t126 32.5q40 0 69 -9t54 -32l6 31h135
l-100 -474h-116l1 44q-37 -27 -76.5 -40.5t-89.5 -13.5zM254 89q63 0 116 43l44 211q-31 42 -87 42q-127 0 -164 -171q-16 -73 5.5 -99t85.5 -26z" />
    <glyph glyph-name="uni1EB3" unicode="&#x1eb3;" horiz-adv-x="591" 
d="M335 661l13 60q47 2 65.5 12.5t22.5 28.5q4 19 -6.5 25.5t-36.5 6.5q-15 0 -29.5 -3.5t-27.5 -8.5l12 57q18 5 42 8.5t49 3.5q50 0 73 -22t15 -58q-7 -33 -28.5 -51.5t-64.5 -26.5l-7 -32h-92zM356 522q-44 0 -78.5 16t-50 50.5t-3.5 89.5h77q-9 -41 4.5 -63t62.5 -22
q83 0 102 85h83q-18 -83 -69 -119.5t-128 -36.5zM196 -10q-61 0 -105.5 22t-63 71.5t-1.5 130.5q18 85 60 145t101 92.5t126 32.5q40 0 69 -9t54 -32l6 31h135l-100 -474h-116l1 44q-37 -27 -76.5 -40.5t-89.5 -13.5zM254 89q63 0 116 43l44 211q-31 42 -87 42
q-127 0 -164 -171q-16 -73 5.5 -99t85.5 -26z" />
    <glyph glyph-name="uni1EB5" unicode="&#x1eb5;" horiz-adv-x="591" 
d="M485 699q-29 0 -54.5 10t-49 20t-48.5 10q-57 0 -98 -37l18 86q17 14 42.5 22.5t51.5 8.5q31 0 54.5 -10t46.5 -20t51 -10q57 0 90 38l-17 -86q-13 -13 -36 -22.5t-51 -9.5zM362 522q-44 0 -78.5 16t-50 50.5t-3.5 89.5h77q-9 -41 4.5 -63t62.5 -22q83 0 102 85h83
q-18 -83 -69 -119.5t-128 -36.5zM196 -10q-61 0 -105.5 22t-63 71.5t-1.5 130.5q18 85 60 145t101 92.5t126 32.5q40 0 69 -9t54 -32l6 31h135l-100 -474h-116l1 44q-37 -27 -76.5 -40.5t-89.5 -13.5zM254 89q63 0 116 43l44 211q-31 42 -87 42q-127 0 -164 -171
q-16 -73 5.5 -99t85.5 -26z" />
    <glyph glyph-name="uni01CE" unicode="&#x1ce;" horiz-adv-x="591" 
d="M298 522l-97 174h100l50 -100l96 100h109l-172 -174h-86zM196 -10q-61 0 -105.5 22t-63 71.5t-1.5 130.5q18 85 60 145t101 92.5t126 32.5q40 0 69 -9t54 -32l6 31h135l-100 -474h-116l1 44q-37 -27 -76.5 -40.5t-89.5 -13.5zM254 89q63 0 116 43l44 211q-31 42 -87 42
q-127 0 -164 -171q-16 -73 5.5 -99t85.5 -26z" />
    <glyph glyph-name="acircumflex" unicode="&#xe2;" horiz-adv-x="591" 
d="M166 522l171 174h86l98 -174h-99l-53 100l-93 -100h-110zM196 -10q-61 0 -105.5 22t-63 71.5t-1.5 130.5q18 85 60 145t101 92.5t126 32.5q40 0 69 -9t54 -32l6 31h135l-100 -474h-116l1 44q-37 -27 -76.5 -40.5t-89.5 -13.5zM254 89q63 0 116 43l44 211q-31 42 -87 42
q-127 0 -164 -171q-16 -73 5.5 -99t85.5 -26z" />
    <glyph glyph-name="uni1EA5" unicode="&#x1ea5;" horiz-adv-x="591" 
d="M477 638l95 141h102l-103 -141h-94zM173 521l154 135h103l98 -135h-104l-51 81l-84 -81h-116zM196 -10q-61 0 -105.5 22t-63 71.5t-1.5 130.5q18 85 60 145t101 92.5t126 32.5q40 0 69 -9t54 -32l6 31h135l-100 -474h-116l1 44q-37 -27 -76.5 -40.5t-89.5 -13.5zM254 89
q63 0 116 43l44 211q-31 42 -87 42q-127 0 -164 -171q-16 -73 5.5 -99t85.5 -26z" />
    <glyph glyph-name="uni1EAD" unicode="&#x1ead;" horiz-adv-x="591" 
d="M169 522l171 174h86l98 -174h-99l-53 100l-93 -100h-110zM196 -10q-61 0 -105.5 22t-63 71.5t-1.5 130.5q18 85 60 145t101 92.5t126 32.5q40 0 69 -9t54 -32l6 31h135l-100 -474h-116l1 44q-37 -27 -76.5 -40.5t-89.5 -13.5zM254 89q63 0 116 43l44 211q-31 42 -87 42
q-127 0 -164 -171q-16 -73 5.5 -99t85.5 -26zM145 -181l21 99h107l-21 -99h-107z" />
    <glyph glyph-name="uni1EA7" unicode="&#x1ea7;" horiz-adv-x="591" 
d="M172 638l-43 141h102l36 -141h-95zM166 521l154 135h103l98 -135h-104l-51 81l-84 -81h-116zM196 -10q-61 0 -105.5 22t-63 71.5t-1.5 130.5q18 85 60 145t101 92.5t126 32.5q40 0 69 -9t54 -32l6 31h135l-100 -474h-116l1 44q-37 -27 -76.5 -40.5t-89.5 -13.5zM254 89
q63 0 116 43l44 211q-31 42 -87 42q-127 0 -164 -171q-16 -73 5.5 -99t85.5 -26z" />
    <glyph glyph-name="uni1EA9" unicode="&#x1ea9;" horiz-adv-x="591" 
d="M473 616l15 70q46 2 62 10.5t19 24.5q5 27 -39 27q-15 0 -29 -3.5t-27 -8.5l14 62q17 5 36.5 8.5t47.5 3.5q53 0 77 -22.5t16 -58.5q-7 -33 -29.5 -53t-63.5 -26l-7 -34h-92zM165 521l154 135h103l98 -135h-104l-51 81l-84 -81h-116zM196 -10q-61 0 -105.5 22t-63 71.5
t-1.5 130.5q18 85 60 145t101 92.5t126 32.5q40 0 69 -9t54 -32l6 31h135l-100 -474h-116l1 44q-37 -27 -76.5 -40.5t-89.5 -13.5zM254 89q63 0 116 43l44 211q-31 42 -87 42q-127 0 -164 -171q-16 -73 5.5 -99t85.5 -26z" />
    <glyph glyph-name="uni1EAB" unicode="&#x1eab;" horiz-adv-x="591" 
d="M471 671q-29 0 -55 10t-49.5 20t-48.5 10q-55 0 -98 -37l19 86q16 14 41.5 22.5t51.5 8.5q31 0 55 -10t47 -20t51 -10q29 0 51.5 10t38.5 28l-19 -86q-12 -13 -34.5 -22.5t-50.5 -9.5zM167 521l154 135h103l98 -135h-104l-51 81l-84 -81h-116zM196 -10q-61 0 -105.5 22
t-63 71.5t-1.5 130.5q18 85 60 145t101 92.5t126 32.5q40 0 69 -9t54 -32l6 31h135l-100 -474h-116l1 44q-37 -27 -76.5 -40.5t-89.5 -13.5zM254 89q63 0 116 43l44 211q-31 42 -87 42q-127 0 -164 -171q-16 -73 5.5 -99t85.5 -26z" />
    <glyph glyph-name="adieresis" unicode="&#xe4;" horiz-adv-x="591" 
d="M206 547l21 98h105l-21 -98h-105zM401 547l21 98h106l-21 -98h-106zM196 -10q-61 0 -105.5 22t-63 71.5t-1.5 130.5q18 85 60 145t101 92.5t126 32.5q40 0 69 -9t54 -32l6 31h135l-100 -474h-116l1 44q-37 -27 -76.5 -40.5t-89.5 -13.5zM254 89q63 0 116 43l44 211
q-31 42 -87 42q-127 0 -164 -171q-16 -73 5.5 -99t85.5 -26z" />
    <glyph glyph-name="uni1EA1" unicode="&#x1ea1;" horiz-adv-x="591" 
d="M196 -10q-61 0 -105.5 22t-63 71.5t-1.5 130.5q18 85 60 145t101 92.5t126 32.5q40 0 69 -9t54 -32l6 31h135l-100 -474h-116l1 44q-37 -27 -76.5 -40.5t-89.5 -13.5zM254 89q63 0 116 43l44 211q-31 42 -87 42q-127 0 -164 -171q-16 -73 5.5 -99t85.5 -26zM151 -181
l21 99h107l-21 -99h-107z" />
    <glyph glyph-name="agrave" unicode="&#xe0;" horiz-adv-x="591" 
d="M297 522l-48 187h117l40 -187h-109zM196 -10q-61 0 -105.5 22t-63 71.5t-1.5 130.5q18 85 60 145t101 92.5t126 32.5q40 0 69 -9t54 -32l6 31h135l-100 -474h-116l1 44q-37 -27 -76.5 -40.5t-89.5 -13.5zM254 89q63 0 116 43l44 211q-31 42 -87 42q-127 0 -164 -171
q-16 -73 5.5 -99t85.5 -26z" />
    <glyph glyph-name="uni1EA3" unicode="&#x1ea3;" horiz-adv-x="591" 
d="M285 521l17 81q56 3 76 14.5t24 33.5q5 20 -11.5 29.5t-48.5 9.5q-14 0 -32.5 -3t-32.5 -8l15 67q41 13 102 13q64 0 92 -26t19 -70q-9 -42 -33 -64t-74 -31l-10 -46h-103zM196 -10q-61 0 -105.5 22t-63 71.5t-1.5 130.5q18 85 60 145t101 92.5t126 32.5q40 0 69 -9
t54 -32l6 31h135l-100 -474h-116l1 44q-37 -27 -76.5 -40.5t-89.5 -13.5zM254 89q63 0 116 43l44 211q-31 42 -87 42q-127 0 -164 -171q-16 -73 5.5 -99t85.5 -26z" />
    <glyph glyph-name="uni0251" unicode="&#x251;" horiz-adv-x="591" 
d="M196 -10q-61 0 -105.5 22t-63 71.5t-1.5 130.5q18 85 60 145t101 92.5t126 32.5q40 0 69 -9t54 -32l6 31h135l-100 -474h-116l1 44q-37 -27 -76.5 -40.5t-89.5 -13.5zM254 89q63 0 116 43l44 211q-31 42 -87 42q-127 0 -164 -171q-16 -73 5.5 -99t85.5 -26z" />
    <glyph glyph-name="amacron" unicode="&#x101;" horiz-adv-x="591" 
d="M204 541l17 83h307l-17 -83h-307zM196 -10q-61 0 -105.5 22t-63 71.5t-1.5 130.5q18 85 60 145t101 92.5t126 32.5q40 0 69 -9t54 -32l6 31h135l-100 -474h-116l1 44q-37 -27 -76.5 -40.5t-89.5 -13.5zM254 89q63 0 116 43l44 211q-31 42 -87 42q-127 0 -164 -171
q-16 -73 5.5 -99t85.5 -26z" />
    <glyph glyph-name="aogonek" unicode="&#x105;" horiz-adv-x="591" 
d="M373 -220q-46 0 -76 22.5t-20 68.5q9 43 34.5 76t49.5 53l1 44q-37 -27 -76.5 -40.5t-89.5 -13.5q-61 0 -105.5 22t-63 71.5t-1.5 130.5q18 85 60 145t101 92.5t126 32.5q40 0 69 -9t54 -32l6 31h135l-100 -474q-35 -22 -59 -48.5t-30 -55.5q-4 -21 7 -29t31 -8
q12 0 26 3t24 8l-16 -76q-15 -6 -38.5 -10t-48.5 -4zM254 89q63 0 116 43l44 211q-31 42 -87 42q-127 0 -164 -171q-16 -73 5.5 -99t85.5 -26z" />
    <glyph glyph-name="aring" unicode="&#xe5;" horiz-adv-x="591" 
d="M355 522q-57 0 -82.5 34.5t-15.5 84.5t49.5 85t98.5 35t85 -35t15 -85q-10 -50 -49 -84.5t-101 -34.5zM368 584q32 0 49 16.5t22 40.5t-7 40.5t-40 16.5q-29 0 -47 -16.5t-23 -40.5t7.5 -40.5t38.5 -16.5zM196 -10q-61 0 -105.5 22t-63 71.5t-1.5 130.5q18 85 60 145
t101 92.5t126 32.5q40 0 69 -9t54 -32l6 31h135l-100 -474h-116l1 44q-37 -27 -76.5 -40.5t-89.5 -13.5zM254 89q63 0 116 43l44 211q-31 42 -87 42q-127 0 -164 -171q-16 -73 5.5 -99t85.5 -26z" />
    <glyph glyph-name="aringacute" unicode="&#x1fb;" horiz-adv-x="591" 
d="M375 786l120 149h117l-128 -149h-109zM354 517q-57 0 -82.5 34.5t-15.5 84.5t49.5 85t98.5 35t85 -35t15 -85q-10 -50 -49 -84.5t-101 -34.5zM367 579q32 0 49 16.5t22 40.5t-7 40.5t-40 16.5q-29 0 -47 -16.5t-23 -40.5t7.5 -40.5t38.5 -16.5zM196 -10q-61 0 -105.5 22
t-63 71.5t-1.5 130.5q18 85 60 145t101 92.5t126 32.5q40 0 69 -9t54 -32l6 31h135l-100 -474h-116l1 44q-37 -27 -76.5 -40.5t-89.5 -13.5zM254 89q63 0 116 43l44 211q-31 42 -87 42q-127 0 -164 -171q-16 -73 5.5 -99t85.5 -26z" />
    <glyph glyph-name="atilde" unicode="&#xe3;" horiz-adv-x="591" 
d="M441 534q-29 0 -55 10t-49.5 20t-48.5 10q-55 0 -98 -37l21 96q17 14 42 22.5t51 8.5q31 0 55 -10t47 -20t51 -10q56 0 91 38l-21 -96q-12 -13 -35 -22.5t-51 -9.5zM196 -10q-61 0 -105.5 22t-63 71.5t-1.5 130.5q18 85 60 145t101 92.5t126 32.5q40 0 69 -9t54 -32l6 31
h135l-100 -474h-116l1 44q-37 -27 -76.5 -40.5t-89.5 -13.5zM254 89q63 0 116 43l44 211q-31 42 -87 42q-127 0 -164 -171q-16 -73 5.5 -99t85.5 -26z" />
    <glyph glyph-name="ae" unicode="&#xe6;" horiz-adv-x="882" 
d="M159 -10q-46 0 -84 16.5t-56.5 49t-8.5 81.5q14 70 72.5 112t155.5 42h140l3 13q9 44 -11.5 62t-94.5 18q-81 0 -161 -25l20 95q36 13 85 21.5t105 8.5q114 0 157 -52q35 26 83 39t100 13q110 0 156.5 -57.5t26.5 -150.5l-18 -86h-343q-1 -57 35.5 -79.5t112.5 -22.5
q38 0 79 7t72 18l-20 -93q-36 -15 -82 -22.5t-98 -7.5q-54 0 -104.5 19.5t-72.5 57.5q-35 -25 -70.5 -42t-78 -26t-100.5 -9zM504 273h225l5 26q9 41 -6.5 64.5t-79.5 23.5q-67 0 -99 -27t-45 -87zM203 79q45 0 79.5 13.5t61.5 35.5l16 79h-137q-79 0 -92 -65
q-7 -30 7.5 -46.5t64.5 -16.5z" />
    <glyph glyph-name="aeacute" unicode="&#x1fd;" horiz-adv-x="882" 
d="M438 522l120 187h117l-128 -187h-109zM159 -10q-46 0 -84 16.5t-56.5 49t-8.5 81.5q14 70 72.5 112t155.5 42h140l3 13q9 44 -11.5 62t-94.5 18q-81 0 -161 -25l20 95q36 13 85 21.5t105 8.5q114 0 157 -52q35 26 83 39t100 13q110 0 156.5 -57.5t26.5 -150.5l-18 -86
h-343q-1 -57 35.5 -79.5t112.5 -22.5q38 0 79 7t72 18l-20 -93q-36 -15 -82 -22.5t-98 -7.5q-54 0 -104.5 19.5t-72.5 57.5q-35 -25 -70.5 -42t-78 -26t-100.5 -9zM504 273h225l5 26q9 41 -6.5 64.5t-79.5 23.5q-67 0 -99 -27t-45 -87zM203 79q45 0 79.5 13.5t61.5 35.5
l16 79h-137q-79 0 -92 -65q-7 -30 7.5 -46.5t64.5 -16.5z" />
    <glyph glyph-name="b" unicode="b" horiz-adv-x="590" 
d="M276 -10q-50 0 -85 14.5t-58 39.5l-16 -44h-117l143 674h135l-48 -226q66 36 147 36q62 0 106 -26t62.5 -79.5t1.5 -137.5q-26 -128 -94 -189.5t-177 -61.5zM259 89q65 0 100 38t51 114q17 79 -2 111.5t-87 32.5q-66 0 -112 -35l-46 -218q15 -21 40 -32t56 -11z" />
    <glyph glyph-name="c" unicode="c" horiz-adv-x="488" 
d="M239 -10q-76 0 -129.5 28t-75 83t-4.5 136q26 125 107 186t211 61q50 0 84.5 -7t65.5 -23l-21 -97q-22 12 -53.5 19t-69.5 7q-76 0 -123 -31.5t-64 -114.5q-16 -76 8.5 -111t115.5 -35q35 0 70 7t67 21l-21 -100q-74 -29 -168 -29z" />
    <glyph glyph-name="cacute" unicode="&#x107;" horiz-adv-x="488" 
d="M279 522l120 187h117l-128 -187h-109zM239 -10q-76 0 -129.5 28t-75 83t-4.5 136q26 125 107 186t211 61q50 0 84.5 -7t65.5 -23l-21 -97q-22 12 -53.5 19t-69.5 7q-76 0 -123 -31.5t-64 -114.5q-16 -76 8.5 -111t115.5 -35q35 0 70 7t67 21l-21 -100q-74 -29 -168 -29z
" />
    <glyph glyph-name="ccaron" unicode="&#x10d;" horiz-adv-x="488" 
d="M293 522l-97 174h100l50 -100l96 100h109l-172 -174h-86zM239 -10q-76 0 -129.5 28t-75 83t-4.5 136q26 125 107 186t211 61q50 0 84.5 -7t65.5 -23l-21 -97q-22 12 -53.5 19t-69.5 7q-76 0 -123 -31.5t-64 -114.5q-16 -76 8.5 -111t115.5 -35q35 0 70 7t67 21l-21 -100
q-74 -29 -168 -29z" />
    <glyph glyph-name="ccedilla" unicode="&#xe7;" horiz-adv-x="488" 
d="M158 -240q-17 0 -40 2.5t-34 5.5l15 68q27 -8 59 -8q44 0 63.5 6.5t23.5 30.5q5 26 -14 31.5t-54 5.5h-44l46 93q-87 15 -129 76t-20 166q26 125 107 186t211 61q50 0 84.5 -7t65.5 -23l-21 -97q-22 12 -53.5 19t-69.5 7q-76 0 -123 -31.5t-64 -114.5q-16 -76 8.5 -111
t115.5 -35q35 0 70 7t67 21l-21 -100q-33 -13 -68 -19.5t-75 -8.5l-19 -36q53 0 74 -24.5t13 -66.5q-10 -49 -53 -76.5t-121 -27.5z" />
    <glyph glyph-name="ccircumflex" unicode="&#x109;" horiz-adv-x="488" 
d="M155 522l171 174h86l98 -174h-99l-53 100l-93 -100h-110zM239 -10q-76 0 -129.5 28t-75 83t-4.5 136q26 125 107 186t211 61q50 0 84.5 -7t65.5 -23l-21 -97q-22 12 -53.5 19t-69.5 7q-76 0 -123 -31.5t-64 -114.5q-16 -76 8.5 -111t115.5 -35q35 0 70 7t67 21l-21 -100
q-74 -29 -168 -29z" />
    <glyph glyph-name="cdotaccent" unicode="&#x10b;" horiz-adv-x="488" 
d="M286 547l21 98h105l-21 -98h-105zM239 -10q-76 0 -129.5 28t-75 83t-4.5 136q26 125 107 186t211 61q50 0 84.5 -7t65.5 -23l-21 -97q-22 12 -53.5 19t-69.5 7q-76 0 -123 -31.5t-64 -114.5q-16 -76 8.5 -111t115.5 -35q35 0 70 7t67 21l-21 -100q-74 -29 -168 -29z" />
    <glyph glyph-name="d" unicode="d" horiz-adv-x="591" 
d="M196 -10q-59 0 -103 25.5t-62.5 79.5t-0.5 139q27 127 100 188.5t179 61.5q80 0 128 -36l48 226h135l-143 -674h-116l1 44q-37 -27 -76.5 -40.5t-89.5 -13.5zM254 89q63 0 116 43l45 216q-32 37 -92 37q-59 0 -99 -36.5t-57 -116.5q-16 -76 4 -109.5t83 -33.5z" />
    <glyph glyph-name="eth" unicode="&#xf0;" horiz-adv-x="572" 
d="M228 -10q-131 0 -179 56t-27 153q44 204 268 204q36 0 75.5 -11.5t66.5 -34.5l8 35q7 33 9.5 60t-1.5 48l-136 -54l13 60l98 39q-28 22 -92 22q-42 0 -78.5 -7t-71.5 -20l19 89q77 25 171 25q59 0 99.5 -17t64.5 -48l100 40l-13 -60l-62 -25q24 -70 3 -169l-28 -132
q-27 -129 -97.5 -191t-209.5 -62zM247 80q126 0 154 131l14 64q-24 19 -54.5 31t-63.5 12q-74 0 -108 -31.5t-46 -87.5q-12 -55 9.5 -87t94.5 -32z" />
    <glyph glyph-name="dcaron" unicode="&#x10f;" horiz-adv-x="735" 
d="M195 -10q-78 0 -125 43t-47 128q0 88 35 161.5t99.5 117.5t152.5 44q78 0 126 -36l48 226h135l-144 -674h-116l2 44q-37 -27 -76.5 -40.5t-89.5 -13.5zM641 473l74 201h106l-93 -201h-87zM253 89q63 0 116 43l45 216q-32 37 -90 37q-46 0 -84 -28t-60 -76.5t-22 -108.5
q0 -46 25 -64.5t70 -18.5z" />
    <glyph glyph-name="dcroat" unicode="&#x111;" horiz-adv-x="592" 
d="M196 -10q-59 0 -103 25.5t-62.5 79.5t-0.5 139q27 127 100 188.5t179 61.5q80 0 128 -36l17 79h-139l19 90h139l12 57h135l-12 -57h51l-19 -90h-51l-112 -527h-116l1 44q-37 -27 -76.5 -40.5t-89.5 -13.5zM254 89q63 0 116 43l45 216q-32 37 -92 37q-59 0 -99 -36.5
t-57 -116.5q-16 -76 4 -109.5t83 -33.5z" />
    <glyph glyph-name="uni1E0D" unicode="&#x1e0d;" horiz-adv-x="591" 
d="M196 -10q-59 0 -103 25.5t-62.5 79.5t-0.5 139q27 127 100 188.5t179 61.5q80 0 128 -36l48 226h135l-143 -674h-116l1 44q-37 -27 -76.5 -40.5t-89.5 -13.5zM254 89q63 0 116 43l45 216q-32 37 -92 37q-59 0 -99 -36.5t-57 -116.5q-16 -76 4 -109.5t83 -33.5zM146 -181
l21 99h107l-21 -99h-107z" />
    <glyph glyph-name="uni1E0F" unicode="&#x1e0f;" horiz-adv-x="591" 
d="M196 -10q-59 0 -103 25.5t-62.5 79.5t-0.5 139q27 127 100 188.5t179 61.5q80 0 128 -36l48 226h135l-143 -674h-116l1 44q-37 -27 -76.5 -40.5t-89.5 -13.5zM254 89q63 0 116 43l45 216q-32 37 -92 37q-59 0 -99 -36.5t-57 -116.5q-16 -76 4 -109.5t83 -33.5zM57 -183
l17 83h307l-17 -83h-307z" />
    <glyph glyph-name="e" unicode="e" horiz-adv-x="543" 
d="M245 -10q-77 0 -131.5 27t-77 82.5t-5.5 138.5q16 76 50 131t93.5 85t149.5 30q110 0 156.5 -57.5t26.5 -150.5l-18 -86h-343q-1 -57 30.5 -78t118.5 -21q38 0 79 7t71 18l-20 -96q-36 -15 -82 -22.5t-98 -7.5zM164 273h225l5 26q9 41 -10 64.5t-76 23.5q-67 0 -99 -27
t-45 -87z" />
    <glyph glyph-name="eacute" unicode="&#xe9;" horiz-adv-x="543" 
d="M279 522l120 187h117l-128 -187h-109zM245 -10q-77 0 -131.5 27t-77 82.5t-5.5 138.5q16 76 50 131t93.5 85t149.5 30q110 0 156.5 -57.5t26.5 -150.5l-18 -86h-343q-1 -57 30.5 -78t118.5 -21q38 0 79 7t71 18l-20 -96q-36 -15 -82 -22.5t-98 -7.5zM164 273h225l5 26
q9 41 -10 64.5t-76 23.5q-67 0 -99 -27t-45 -87z" />
    <glyph glyph-name="ebreve" unicode="&#x115;" horiz-adv-x="543" 
d="M337 522q-69 0 -103.5 42t-18.5 115h84q-7 -31 1.5 -55t48.5 -24q35 0 57 24t29 55h95q-16 -73 -64 -115t-129 -42zM245 -10q-77 0 -131.5 27t-77 82.5t-5.5 138.5q16 76 50 131t93.5 85t149.5 30q110 0 156.5 -57.5t26.5 -150.5l-18 -86h-343q-1 -57 30.5 -78t118.5 -21
q38 0 79 7t71 18l-20 -96q-36 -15 -82 -22.5t-98 -7.5zM164 273h225l5 26q9 41 -10 64.5t-76 23.5q-67 0 -99 -27t-45 -87z" />
    <glyph glyph-name="ecaron" unicode="&#x11b;" horiz-adv-x="543" 
d="M299 522l-97 174h100l50 -100l96 100h109l-172 -174h-86zM245 -10q-77 0 -131.5 27t-77 82.5t-5.5 138.5q16 76 50 131t93.5 85t149.5 30q110 0 156.5 -57.5t26.5 -150.5l-18 -86h-343q-1 -57 30.5 -78t118.5 -21q38 0 79 7t71 18l-20 -96q-36 -15 -82 -22.5t-98 -7.5z
M164 273h225l5 26q9 41 -10 64.5t-76 23.5q-67 0 -99 -27t-45 -87z" />
    <glyph glyph-name="ecircumflex" unicode="&#xea;" horiz-adv-x="543" 
d="M157 522l171 174h86l98 -174h-99l-53 100l-93 -100h-110zM245 -10q-77 0 -131.5 27t-77 82.5t-5.5 138.5q16 76 50 131t93.5 85t149.5 30q110 0 156.5 -57.5t26.5 -150.5l-18 -86h-343q-1 -57 30.5 -78t118.5 -21q38 0 79 7t71 18l-20 -96q-36 -15 -82 -22.5t-98 -7.5z
M164 273h225l5 26q9 41 -10 64.5t-76 23.5q-67 0 -99 -27t-45 -87z" />
    <glyph glyph-name="uni1EBF" unicode="&#x1ebf;" horiz-adv-x="542" 
d="M467 638l95 141h102l-103 -141h-94zM163 521l154 135h103l98 -135h-104l-51 81l-84 -81h-116zM245 -10q-77 0 -131.5 27t-77 82.5t-5.5 138.5q16 76 50 131t93.5 85t149.5 30q110 0 156.5 -57.5t26.5 -150.5l-18 -86h-343q-1 -57 30.5 -78t118.5 -21q38 0 79 7t71 18
l-20 -96q-36 -15 -82 -22.5t-98 -7.5zM164 273h225l5 26q9 41 -10 64.5t-76 23.5q-67 0 -99 -27t-45 -87z" />
    <glyph glyph-name="uni1EC7" unicode="&#x1ec7;" horiz-adv-x="543" 
d="M157 522l171 174h86l98 -174h-99l-53 100l-93 -100h-110zM245 -10q-77 0 -131.5 27t-77 82.5t-5.5 138.5q16 76 50 131t93.5 85t149.5 30q110 0 156.5 -57.5t26.5 -150.5l-18 -86h-343q-1 -57 30.5 -78t118.5 -21q38 0 79 7t71 18l-20 -96q-36 -15 -82 -22.5t-98 -7.5z
M164 273h225l5 26q9 41 -10 64.5t-76 23.5q-67 0 -99 -27t-45 -87zM133 -181l21 99h107l-21 -99h-107z" />
    <glyph glyph-name="uni1EC1" unicode="&#x1ec1;" horiz-adv-x="542" 
d="M170 648l-43 141h102l36 -141h-95zM164 531l154 135h103l98 -135h-104l-51 81l-84 -81h-116zM244 -10q-77 0 -131.5 27t-77 82.5t-5.5 138.5q16 76 50 131t93.5 85t149.5 30q110 0 156.5 -57.5t26.5 -150.5l-18 -86h-343q-1 -57 30.5 -78t118.5 -21q38 0 79 7t71 18
l-20 -96q-36 -15 -82 -22.5t-98 -7.5zM163 273h225l5 26q9 41 -10 64.5t-76 23.5q-67 0 -99 -27t-45 -87z" />
    <glyph glyph-name="uni1EC3" unicode="&#x1ec3;" horiz-adv-x="542" 
d="M466 616l15 70q46 2 62 10.5t19 24.5q5 27 -39 27q-15 0 -29 -3.5t-27 -8.5l14 62q17 5 36.5 8.5t47.5 3.5q53 0 77 -22.5t16 -58.5q-7 -33 -29.5 -53t-63.5 -26l-7 -34h-92zM158 521l154 135h103l98 -135h-104l-51 81l-84 -81h-116zM245 -10q-77 0 -131.5 27t-77 82.5
t-5.5 138.5q16 76 50 131t93.5 85t149.5 30q110 0 156.5 -57.5t26.5 -150.5l-18 -86h-343q-1 -57 30.5 -78t118.5 -21q38 0 79 7t71 18l-20 -96q-36 -15 -82 -22.5t-98 -7.5zM164 273h225l5 26q9 41 -10 64.5t-76 23.5q-67 0 -99 -27t-45 -87z" />
    <glyph glyph-name="uni1EC5" unicode="&#x1ec5;" horiz-adv-x="543" 
d="M465 671q-29 0 -55 10t-49.5 20t-48.5 10q-55 0 -98 -37l19 86q16 14 41.5 22.5t51.5 8.5q31 0 55 -10t47 -20t51 -10q29 0 51.5 10t38.5 28l-19 -86q-12 -13 -34.5 -22.5t-50.5 -9.5zM161 521l154 135h103l98 -135h-104l-51 81l-84 -81h-116zM245 -10q-77 0 -131.5 27
t-77 82.5t-5.5 138.5q16 76 50 131t93.5 85t149.5 30q110 0 156.5 -57.5t26.5 -150.5l-18 -86h-343q-1 -57 30.5 -78t118.5 -21q38 0 79 7t71 18l-20 -96q-36 -15 -82 -22.5t-98 -7.5zM164 273h225l5 26q9 41 -10 64.5t-76 23.5q-67 0 -99 -27t-45 -87z" />
    <glyph glyph-name="edieresis" unicode="&#xeb;" horiz-adv-x="543" 
d="M188 547l21 98h105l-21 -98h-105zM383 547l21 98h106l-21 -98h-106zM245 -10q-77 0 -131.5 27t-77 82.5t-5.5 138.5q16 76 50 131t93.5 85t149.5 30q110 0 156.5 -57.5t26.5 -150.5l-18 -86h-343q-1 -57 30.5 -78t118.5 -21q38 0 79 7t71 18l-20 -96q-36 -15 -82 -22.5
t-98 -7.5zM164 273h225l5 26q9 41 -10 64.5t-76 23.5q-67 0 -99 -27t-45 -87z" />
    <glyph glyph-name="edotaccent" unicode="&#x117;" horiz-adv-x="543" 
d="M288 547l21 98h105l-21 -98h-105zM245 -10q-77 0 -131.5 27t-77 82.5t-5.5 138.5q16 76 50 131t93.5 85t149.5 30q110 0 156.5 -57.5t26.5 -150.5l-18 -86h-343q-1 -57 30.5 -78t118.5 -21q38 0 79 7t71 18l-20 -96q-36 -15 -82 -22.5t-98 -7.5zM164 273h225l5 26
q9 41 -10 64.5t-76 23.5q-67 0 -99 -27t-45 -87z" />
    <glyph glyph-name="uni1EB9" unicode="&#x1eb9;" horiz-adv-x="543" 
d="M245 -10q-77 0 -131.5 27t-77 82.5t-5.5 138.5q16 76 50 131t93.5 85t149.5 30q110 0 156.5 -57.5t26.5 -150.5l-18 -86h-343q-1 -57 30.5 -78t118.5 -21q38 0 79 7t71 18l-20 -96q-36 -15 -82 -22.5t-98 -7.5zM164 273h225l5 26q9 41 -10 64.5t-76 23.5q-67 0 -99 -27
t-45 -87zM137 -181l21 99h107l-21 -99h-107z" />
    <glyph glyph-name="egrave" unicode="&#xe8;" horiz-adv-x="543" 
d="M281 522l-48 187h117l40 -187h-109zM245 -10q-77 0 -131.5 27t-77 82.5t-5.5 138.5q16 76 50 131t93.5 85t149.5 30q110 0 156.5 -57.5t26.5 -150.5l-18 -86h-343q-1 -57 30.5 -78t118.5 -21q38 0 79 7t71 18l-20 -96q-36 -15 -82 -22.5t-98 -7.5zM164 273h225l5 26
q9 41 -10 64.5t-76 23.5q-67 0 -99 -27t-45 -87z" />
    <glyph glyph-name="uni1EBB" unicode="&#x1ebb;" horiz-adv-x="543" 
d="M287 521l17 81q56 3 76 14.5t24 33.5q5 20 -11.5 29.5t-48.5 9.5q-14 0 -32.5 -3t-32.5 -8l15 67q41 13 102 13q64 0 92 -26t19 -70q-9 -42 -33 -64t-74 -31l-10 -46h-103zM245 -10q-77 0 -131.5 27t-77 82.5t-5.5 138.5q16 76 50 131t93.5 85t149.5 30
q110 0 156.5 -57.5t26.5 -150.5l-18 -86h-343q-1 -57 30.5 -78t118.5 -21q38 0 79 7t71 18l-20 -96q-36 -15 -82 -22.5t-98 -7.5zM164 273h225l5 26q9 41 -10 64.5t-76 23.5q-67 0 -99 -27t-45 -87z" />
    <glyph glyph-name="emacron" unicode="&#x113;" horiz-adv-x="543" 
d="M196 556l17 83h307l-17 -83h-307zM245 -10q-77 0 -131.5 27t-77 82.5t-5.5 138.5q16 76 50 131t93.5 85t149.5 30q110 0 156.5 -57.5t26.5 -150.5l-18 -86h-343q-1 -57 30.5 -78t118.5 -21q38 0 79 7t71 18l-20 -96q-36 -15 -82 -22.5t-98 -7.5zM164 273h225l5 26
q9 41 -10 64.5t-76 23.5q-67 0 -99 -27t-45 -87z" />
    <glyph glyph-name="eogonek" unicode="&#x119;" horiz-adv-x="543" 
d="M250 -220q-46 0 -76 22.5t-20 68.5q15 70 85 119q-76 1 -129 28.5t-74.5 82.5t-4.5 137q16 76 50 131t93.5 85t149.5 30q110 0 156.5 -57.5t26.5 -150.5l-18 -86h-343q-1 -57 30.5 -78t118.5 -21q38 0 79 7t71 18l-20 -96q-32 -13 -72 -21q-35 -22 -58.5 -48.5
t-29.5 -54.5q-4 -21 7 -29t31 -8q12 0 26 3t24 8l-16 -76q-15 -6 -38.5 -10t-48.5 -4zM164 273h225l5 26q9 41 -10 64.5t-76 23.5q-67 0 -99 -27t-45 -87z" />
    <glyph glyph-name="uni1EBD" unicode="&#x1ebd;" horiz-adv-x="543" 
d="M427 534q-29 0 -55 10t-49.5 20t-48.5 10q-55 0 -98 -37l21 96q17 14 42 22.5t51 8.5q31 0 55 -10t47 -20t51 -10q56 0 91 38l-21 -96q-12 -13 -35 -22.5t-51 -9.5zM245 -10q-77 0 -131.5 27t-77 82.5t-5.5 138.5q16 76 50 131t93.5 85t149.5 30q110 0 156.5 -57.5
t26.5 -150.5l-18 -86h-343q-1 -57 30.5 -78t118.5 -21q38 0 79 7t71 18l-20 -96q-36 -15 -82 -22.5t-98 -7.5zM164 273h225l5 26q9 41 -10 64.5t-76 23.5q-67 0 -99 -27t-45 -87z" />
    <glyph glyph-name="uni0259" unicode="&#x259;" horiz-adv-x="542" 
d="M204 -10q-65 0 -111.5 24t-65.5 70.5t-5 113.5l18 86h343q1 38 -10.5 59.5t-43.5 30.5t-95 9q-37 0 -78.5 -7t-71.5 -18l20 96q36 15 81.5 22.5t97.5 7.5q129 0 185 -61.5t30 -186.5q-15 -71 -50.5 -127t-95 -87.5t-148.5 -31.5zM221 87q67 0 99 27t45 87h-225l-5 -26
q-8 -43 8.5 -65.5t77.5 -22.5z" />
    <glyph glyph-name="f" unicode="f" horiz-adv-x="371" 
d="M26 0l78 370h-66l22 104h66l10 48q15 74 62.5 121t139.5 47q33 0 58 -5t45 -14l-20 -93q-13 5 -26.5 8t-30.5 3q-43 0 -64 -15.5t-29 -53.5l-10 -46h120l-28 -104h-114l-78 -370h-135z" />
    <glyph glyph-name="g" unicode="g" horiz-adv-x="591" 
d="M165 -176q-16 0 -40.5 1.5t-48 4t-37.5 5.5l22 103q20 -6 51 -9.5t53 -3.5q73 0 121 19t58 67l5 25q-61 -36 -143 -36q-62 0 -108 22.5t-66 72t-4 130.5q26 128 98 193.5t182 65.5q50 0 80.5 -14t55.5 -40l17 44h116l-93 -441q-13 -60 -49.5 -107.5t-102.5 -74.5
t-167 -27zM256 99q34 0 62 9.5t52 26.5l44 207q-18 22 -40.5 32.5t-54.5 10.5q-65 0 -100.5 -41.5t-52.5 -117.5q-16 -72 4 -99.5t86 -27.5z" />
    <glyph glyph-name="gbreve" unicode="&#x11f;" horiz-adv-x="591" 
d="M324 522q-69 0 -103.5 42t-18.5 115h84q-7 -31 1.5 -55t48.5 -24q35 0 57 24t29 55h95q-16 -73 -64 -115t-129 -42zM165 -176q-16 0 -40.5 1.5t-48 4t-37.5 5.5l22 103q20 -6 51 -9.5t53 -3.5q73 0 121 19t58 67l5 25q-61 -36 -143 -36q-62 0 -108 22.5t-66 72t-4 130.5
q26 128 98 193.5t182 65.5q50 0 80.5 -14t55.5 -40l17 44h116l-93 -441q-13 -60 -49.5 -107.5t-102.5 -74.5t-167 -27zM256 99q34 0 62 9.5t52 26.5l44 207q-18 22 -40.5 32.5t-54.5 10.5q-65 0 -100.5 -41.5t-52.5 -117.5q-16 -72 4 -99.5t86 -27.5z" />
    <glyph glyph-name="gcaron" unicode="&#x1e7;" horiz-adv-x="591" 
d="M303 522l-97 174h100l50 -100l96 100h109l-172 -174h-86zM165 -176q-16 0 -40.5 1.5t-48 4t-37.5 5.5l22 103q20 -6 51 -9.5t53 -3.5q73 0 121 19t58 67l5 25q-61 -36 -143 -36q-62 0 -108 22.5t-66 72t-4 130.5q26 128 98 193.5t182 65.5q50 0 80.5 -14t55.5 -40l17 44
h116l-93 -441q-13 -60 -49.5 -107.5t-102.5 -74.5t-167 -27zM256 99q34 0 62 9.5t52 26.5l44 207q-18 22 -40.5 32.5t-54.5 10.5q-65 0 -100.5 -41.5t-52.5 -117.5q-16 -72 4 -99.5t86 -27.5z" />
    <glyph glyph-name="gcircumflex" unicode="&#x11d;" horiz-adv-x="591" 
d="M152 522l171 174h86l98 -174h-99l-53 100l-93 -100h-110zM165 -176q-16 0 -40.5 1.5t-48 4t-37.5 5.5l22 103q20 -6 51 -9.5t53 -3.5q73 0 121 19t58 67l5 25q-61 -36 -143 -36q-62 0 -108 22.5t-66 72t-4 130.5q26 128 98 193.5t182 65.5q50 0 80.5 -14t55.5 -40l17 44
h116l-93 -441q-13 -60 -49.5 -107.5t-102.5 -74.5t-167 -27zM256 99q34 0 62 9.5t52 26.5l44 207q-18 22 -40.5 32.5t-54.5 10.5q-65 0 -100.5 -41.5t-52.5 -117.5q-16 -72 4 -99.5t86 -27.5z" />
    <glyph glyph-name="uni0123" unicode="&#x123;" horiz-adv-x="591" 
d="M268 522l93 201h86l-73 -201h-106zM165 -176q-16 0 -40.5 1.5t-48 4t-37.5 5.5l22 103q20 -6 51 -9.5t53 -3.5q73 0 121 19t58 67l5 25q-61 -36 -143 -36q-62 0 -108 22.5t-66 72t-4 130.5q26 128 98 193.5t182 65.5q50 0 80.5 -14t55.5 -40l17 44h116l-93 -441
q-13 -60 -49.5 -107.5t-102.5 -74.5t-167 -27zM256 99q34 0 62 9.5t52 26.5l44 207q-18 22 -40.5 32.5t-54.5 10.5q-65 0 -100.5 -41.5t-52.5 -117.5q-16 -72 4 -99.5t86 -27.5z" />
    <glyph glyph-name="gdotaccent" unicode="&#x121;" horiz-adv-x="591" 
d="M268 537l21 98h105l-21 -98h-105zM165 -176q-16 0 -40.5 1.5t-48 4t-37.5 5.5l22 103q20 -6 51 -9.5t53 -3.5q73 0 121 19t58 67l5 25q-61 -36 -143 -36q-62 0 -108 22.5t-66 72t-4 130.5q26 128 98 193.5t182 65.5q50 0 80.5 -14t55.5 -40l17 44h116l-93 -441
q-13 -60 -49.5 -107.5t-102.5 -74.5t-167 -27zM256 99q34 0 62 9.5t52 26.5l44 207q-18 22 -40.5 32.5t-54.5 10.5q-65 0 -100.5 -41.5t-52.5 -117.5q-16 -72 4 -99.5t86 -27.5z" />
    <glyph glyph-name="uni1E21" unicode="&#x1e21;" horiz-adv-x="591" 
d="M192 551l17 83h307l-17 -83h-307zM165 -176q-16 0 -40.5 1.5t-48 4t-37.5 5.5l22 103q20 -6 51 -9.5t53 -3.5q73 0 121 19t58 67l5 25q-61 -36 -143 -36q-62 0 -108 22.5t-66 72t-4 130.5q26 128 98 193.5t182 65.5q50 0 80.5 -14t55.5 -40l17 44h116l-93 -441
q-13 -60 -49.5 -107.5t-102.5 -74.5t-167 -27zM256 99q34 0 62 9.5t52 26.5l44 207q-18 22 -40.5 32.5t-54.5 10.5q-65 0 -100.5 -41.5t-52.5 -117.5q-16 -72 4 -99.5t86 -27.5z" />
    <glyph glyph-name="h" unicode="h" horiz-adv-x="587" 
d="M0 0l143 674h135l-51 -240q34 22 78.5 36t93.5 14q88 0 124.5 -45.5t17.5 -134.5l-64 -304h-135l63 297q10 48 -4.5 68t-69.5 20q-31 0 -65 -14t-60 -35l-71 -336h-135z" />
    <glyph glyph-name="hbar" unicode="&#x127;" horiz-adv-x="588" 
d="M1 0l112 529h-50l19 92h50l12 53h135l-12 -53h134l-19 -92h-134l-20 -95q34 22 78.5 36t93.5 14q88 0 124.5 -45.5t17.5 -134.5l-64 -304h-135l63 297q10 48 -4.5 68t-69.5 20q-31 0 -65 -14t-60 -35l-71 -336h-135z" />
    <glyph glyph-name="uni1E2B" unicode="&#x1e2b;" horiz-adv-x="587" 
d="M0 0l143 674h135l-51 -240q34 22 78.5 36t93.5 14q88 0 124.5 -45.5t17.5 -134.5l-64 -304h-135l63 297q10 48 -4.5 68t-69.5 20q-31 0 -65 -14t-60 -35l-71 -336h-135zM200 -217q-42 0 -73.5 19t-45.5 54t-4 84h86q-7 -31 2 -55t48 -24q35 0 56.5 24t28.5 55h94
q-16 -73 -66.5 -115t-125.5 -42z" />
    <glyph glyph-name="hcircumflex" unicode="&#x125;" horiz-adv-x="587" 
d="M154 705l171 174h86l98 -174h-99l-53 100l-93 -100h-110zM0 0l143 674h135l-51 -240q34 22 78.5 36t93.5 14q88 0 124.5 -45.5t17.5 -134.5l-64 -304h-135l63 297q10 48 -4.5 68t-69.5 20q-31 0 -65 -14t-60 -35l-71 -336h-135z" />
    <glyph glyph-name="uni1E25" unicode="&#x1e25;" horiz-adv-x="587" 
d="M0 0l143 674h135l-51 -240q34 22 78.5 36t93.5 14q88 0 124.5 -45.5t17.5 -134.5l-64 -304h-135l63 297q10 48 -4.5 68t-69.5 20q-31 0 -65 -14t-60 -35l-71 -336h-135zM153 -181l21 99h107l-21 -99h-107z" />
    <glyph glyph-name="i" unicode="i" horiz-adv-x="295" 
d="M153 561l22 106h147l-22 -106h-147zM45 0l79 374h-71l33 100h194l-100 -474h-135z" />
    <glyph glyph-name="dotlessi" unicode="&#x131;" horiz-adv-x="322" 
d="M72 0l79 374h-71l33 100h194l-100 -474h-135z" />
    <glyph glyph-name="iacute" unicode="&#xed;" horiz-adv-x="322" 
d="M182 522l120 187h117l-128 -187h-109zM72 0l79 374h-71l33 100h194l-100 -474h-135z" />
    <glyph glyph-name="ibreve" unicode="&#x12d;" horiz-adv-x="321" 
d="M220 522q-70 0 -104.5 42t-18.5 115h85q-7 -31 1.5 -55t48.5 -24q38 0 58.5 24t27.5 55h95q-16 -73 -66 -115t-127 -42zM71 0l79 374h-71l33 100h194l-100 -474h-135z" />
    <glyph glyph-name="uni01D0" unicode="&#x1d0;" horiz-adv-x="320" 
d="M188 522l-97 174h100l50 -100l96 100h109l-172 -174h-86zM71 0l79 374h-71l33 100h194l-100 -474h-135z" />
    <glyph glyph-name="icircumflex" unicode="&#xee;" horiz-adv-x="320" 
d="M47 522l171 174h86l98 -174h-99l-53 100l-93 -100h-110zM71 0l79 374h-71l33 100h194l-100 -474h-135z" />
    <glyph glyph-name="idieresis" unicode="&#xef;" horiz-adv-x="320" 
d="M73 547l21 98h105l-21 -98h-105zM268 547l21 98h106l-21 -98h-106zM71 0l79 374h-71l33 100h194l-100 -474h-135z" />
    <glyph glyph-name="uni1ECB" unicode="&#x1ecb;" horiz-adv-x="322" 
d="M180 561l22 106h147l-22 -106h-147zM72 0l79 374h-71l33 100h194l-100 -474h-135zM49 -181l21 99h107l-21 -99h-107z" />
    <glyph glyph-name="igrave" unicode="&#xec;" horiz-adv-x="321" 
d="M191 522l-48 187h117l40 -187h-109zM71 0l79 374h-71l33 100h194l-100 -474h-135z" />
    <glyph glyph-name="uni1EC9" unicode="&#x1ec9;" horiz-adv-x="322" 
d="M175 521l17 81q56 3 76 14.5t24 33.5q5 20 -11.5 29.5t-48.5 9.5q-14 0 -32.5 -3t-32.5 -8l15 67q41 13 102 13q64 0 92 -26t19 -70q-9 -42 -33 -64t-74 -31l-10 -46h-103zM72 0l79 374h-71l33 100h194l-100 -474h-135z" />
    <glyph glyph-name="ij" unicode="&#x133;" horiz-adv-x="583" 
d="M180 561l22 106h147l-22 -106h-147zM441 561l22 106h147l-22 -106h-147zM255 -234q-62 0 -103 18l19 93q29 -10 58 -10q45 0 64.5 16.5t26.5 52.5l93 438h-71l33 100h194l-117 -551q-15 -70 -61 -113.5t-136 -43.5zM72 0l79 374h-71l33 100h194l-100 -474h-135z" />
    <glyph glyph-name="imacron" unicode="&#x12b;" horiz-adv-x="322" 
d="M74 570l17 83h308l-17 -83h-308zM72 0l79 374h-71l33 100h194l-100 -474h-135z" />
    <glyph glyph-name="iogonek" unicode="&#x12f;" horiz-adv-x="322" 
d="M180 561l22 106h147l-22 -106h-147zM92 -220q-46 0 -76 22.5t-20 68.5q17 79 100 129h-24l79 374h-71l33 100h194l-100 -474h-11q-35 -22 -59 -48.5t-30 -55.5q-4 -21 7 -29t31 -8q12 0 26 3t24 8l-16 -76q-15 -6 -38.5 -10t-48.5 -4z" />
    <glyph glyph-name="itilde" unicode="&#x129;" horiz-adv-x="321" 
d="M304 533q-29 0 -55 10t-49.5 20t-48.5 10q-55 0 -98 -37l21 96q17 14 42 22.5t51 8.5q31 0 55 -10t47 -20t51 -10q56 0 91 38l-21 -96q-12 -13 -35 -22.5t-51 -9.5zM71 0l79 374h-71l33 100h194l-100 -474h-135z" />
    <glyph glyph-name="j" unicode="j" horiz-adv-x="324" 
d="M181 561l22 106h147l-22 -106h-147zM-5 -234q-62 0 -103 18l19 93q29 -10 58 -10q45 0 64.5 16.5t26.5 52.5l93 438h-71l33 100h194l-117 -551q-15 -70 -61 -113.5t-136 -43.5z" />
    <glyph glyph-name="uni0237" unicode="&#x237;" horiz-adv-x="320" 
d="M-8 -234q-62 0 -103 18l19 93q29 -10 58 -10q50 0 67 16.5t24 52.5l93 438h-71l33 100h194l-117 -551q-15 -70 -61.5 -113.5t-135.5 -43.5z" />
    <glyph glyph-name="jcircumflex" unicode="&#x135;" horiz-adv-x="320" 
d="M46 522l171 174h86l98 -174h-99l-53 100l-93 -100h-110zM-8 -234q-62 0 -103 18l19 93q29 -10 58 -10q50 0 67 16.5t24 52.5l93 438h-71l33 100h194l-117 -551q-15 -70 -61.5 -113.5t-135.5 -43.5z" />
    <glyph glyph-name="k" unicode="k" horiz-adv-x="564" 
d="M0 0l143 674h135l-79 -371l213 171h154l-232 -194l143 -280h-143l-100 209l-66 -53l-33 -156h-135z" />
    <glyph glyph-name="uni0137" unicode="&#x137;" horiz-adv-x="571" 
d="M0 0l143 674h135l-79 -371l213 171h154l-232 -194l143 -280h-143l-100 209l-66 -53l-33 -156h-135zM86 -238l73 201h106l-93 -201h-86z" />
    <glyph glyph-name="kgreenlandic" unicode="&#x138;" horiz-adv-x="572" 
d="M1 0l100 474h135l-39 -187l216 187h154l-235 -206l146 -268h-143l-102 196l-68 -58l-29 -138h-135z" />
    <glyph glyph-name="l" unicode="l" horiz-adv-x="298" 
d="M129 -10q-132 0 -103 134l117 550h135l-115 -539q-5 -25 1.5 -34.5t28.5 -9.5q26 0 48 7l-19 -93q-42 -15 -93 -15z" />
    <glyph glyph-name="lacute" unicode="&#x13a;" horiz-adv-x="298" 
d="M172 737l120 187h117l-128 -187h-109zM129 -10q-132 0 -103 134l117 550h135l-115 -539q-5 -25 1.5 -34.5t28.5 -9.5q26 0 48 7l-19 -93q-42 -15 -93 -15z" />
    <glyph glyph-name="lcaron" unicode="&#x13e;" horiz-adv-x="385" 
d="M130 -10q-76 0 -96.5 35t-7.5 99l117 550h135l-115 -539q-5 -25 3 -34.5t27 -9.5q26 0 48 7l-19 -93q-23 -8 -43 -11.5t-49 -3.5zM291 473l74 201h106l-93 -201h-87z" />
    <glyph glyph-name="uni013C" unicode="&#x13c;" horiz-adv-x="298" 
d="M129 -10q-132 0 -103 134l117 550h135l-115 -539q-5 -25 1.5 -34.5t28.5 -9.5q26 0 48 7l-19 -93q-42 -15 -93 -15zM-4 -238l73 201h106l-93 -201h-86z" />
    <glyph glyph-name="ldot" unicode="&#x140;" horiz-adv-x="339" 
d="M129 -10q-132 0 -103 134l117 550h135l-115 -539q-5 -25 1.5 -34.5t28.5 -9.5q26 0 48 7l-19 -93q-42 -15 -93 -15zM245 281l21 98h105l-21 -98h-105z" />
    <glyph glyph-name="uni1E37" unicode="&#x1e37;" horiz-adv-x="298" 
d="M129 -10q-132 0 -103 134l117 550h135l-115 -539q-5 -25 1.5 -34.5t28.5 -9.5q26 0 48 7l-19 -93q-42 -15 -93 -15zM12 -181l21 99h107l-21 -99h-107z" />
    <glyph glyph-name="uni1E39" unicode="&#x1e39;" horiz-adv-x="298" 
d="M69 724l17 83h307l-17 -83h-307zM130 -10q-132 0 -103 134l117 550h135l-115 -539q-5 -25 1.5 -34.5t28.5 -9.5q26 0 48 7l-19 -93q-42 -15 -93 -15zM13 -181l21 99h107l-21 -99h-107z" />
    <glyph glyph-name="uni1E3B" unicode="&#x1e3b;" horiz-adv-x="298" 
d="M129 -10q-132 0 -103 134l117 550h135l-115 -539q-5 -25 1.5 -34.5t28.5 -9.5q26 0 48 7l-19 -93q-42 -15 -93 -15zM-90 -158l17 83h307l-17 -83h-307z" />
    <glyph glyph-name="lslash" unicode="&#x142;" horiz-adv-x="299" 
d="M130 -10q-132 0 -103 134l31 144l-94 -37l20 97l94 38l66 308h135l-53 -250l100 40l-20 -97l-101 -40l-41 -192q-5 -25 1.5 -34.5t28.5 -9.5q26 0 48 7l-19 -93q-42 -15 -93 -15z" />
    <glyph glyph-name="m" unicode="m" horiz-adv-x="859" 
d="M1 0l100 474h125l-5 -46q40 26 83.5 41t90.5 15q50 0 74.5 -15t33.5 -43q38 26 84 42t104 16q76 0 109 -42.5t15 -129.5l-66 -312h-133l63 297q10 47 -3.5 67.5t-62.5 20.5q-60 0 -109 -43q1 -17 -4 -41l-63 -301h-126l63 297q9 44 -1.5 66t-53.5 22q-30 0 -59.5 -15.5
t-55.5 -35.5l-70 -334h-133z" />
    <glyph glyph-name="uni1E43" unicode="&#x1e43;" horiz-adv-x="859" 
d="M1 0l100 474h125l-5 -46q40 26 83.5 41t90.5 15q50 0 74.5 -15t33.5 -43q38 26 84 42t104 16q76 0 109 -42.5t15 -129.5l-66 -312h-133l63 297q10 47 -3.5 67.5t-62.5 20.5q-60 0 -109 -43q1 -17 -4 -41l-63 -301h-126l63 297q9 44 -1.5 66t-53.5 22q-30 0 -59.5 -15.5
t-55.5 -35.5l-70 -334h-133zM296 -181l21 99h107l-21 -99h-107z" />
    <glyph glyph-name="n" unicode="n" horiz-adv-x="588" 
d="M1 0l100 474h125l-4 -45q34 22 81.5 38.5t96.5 16.5q180 0 142 -180l-64 -304h-135l63 297q10 48 -4 68t-64 20q-37 0 -71 -14t-60 -35l-71 -336h-135z" />
    <glyph glyph-name="nacute" unicode="&#x144;" horiz-adv-x="588" 
d="M278 522l120 187h117l-128 -187h-109zM1 0l100 474h125l-4 -45q34 22 81.5 38.5t96.5 16.5q180 0 142 -180l-64 -304h-135l63 297q10 48 -4 68t-64 20q-37 0 -71 -14t-60 -35l-71 -336h-135z" />
    <glyph glyph-name="napostrophe" unicode="&#x149;" horiz-adv-x="612" 
d="M-29 445l73 201h106l-93 -201h-86zM25 0l100 474h125l-4 -45q34 22 81.5 38.5t96.5 16.5q180 0 142 -180l-64 -304h-135l63 297q10 48 -4 68t-64 20q-37 0 -71 -14t-60 -35l-71 -336h-135z" />
    <glyph glyph-name="ncaron" unicode="&#x148;" horiz-adv-x="588" 
d="M297 522l-97 174h100l50 -100l96 100h109l-172 -174h-86zM1 0l100 474h125l-4 -45q34 22 81.5 38.5t96.5 16.5q180 0 142 -180l-64 -304h-135l63 297q10 48 -4 68t-64 20q-37 0 -71 -14t-60 -35l-71 -336h-135z" />
    <glyph glyph-name="uni0146" unicode="&#x146;" horiz-adv-x="588" 
d="M1 0l100 474h125l-4 -45q34 22 81.5 38.5t96.5 16.5q180 0 142 -180l-64 -304h-135l63 297q10 48 -4 68t-64 20q-37 0 -71 -14t-60 -35l-71 -336h-135zM117 -238l73 201h106l-93 -201h-86z" />
    <glyph glyph-name="uni1E45" unicode="&#x1e45;" horiz-adv-x="588" 
d="M303 547l21 98h105l-21 -98h-105zM1 0l100 474h125l-4 -45q34 22 81.5 38.5t96.5 16.5q180 0 142 -180l-64 -304h-135l63 297q10 48 -4 68t-64 20q-37 0 -71 -14t-60 -35l-71 -336h-135z" />
    <glyph glyph-name="uni1E47" unicode="&#x1e47;" horiz-adv-x="588" 
d="M1 0l100 474h125l-4 -45q34 22 81.5 38.5t96.5 16.5q180 0 142 -180l-64 -304h-135l63 297q10 48 -4 68t-64 20q-37 0 -71 -14t-60 -35l-71 -336h-135zM155 -181l21 99h107l-21 -99h-107z" />
    <glyph glyph-name="eng" unicode="&#x14b;" horiz-adv-x="587" 
d="M264 -234q-63 0 -104 18l19 93q29 -10 58 -10q41 0 63 16.5t29 52.5l77 361q10 48 -5.5 68t-68.5 20q-31 0 -65 -14t-60 -35l-71 -336h-135l100 474h125l-4 -45q34 22 81.5 38.5t96.5 16.5q94 0 128 -44t14 -136l-81 -381q-15 -70 -64.5 -113.5t-132.5 -43.5z" />
    <glyph glyph-name="uni1E49" unicode="&#x1e49;" horiz-adv-x="588" 
d="M1 0l100 474h125l-4 -45q34 22 81.5 38.5t96.5 16.5q180 0 142 -180l-64 -304h-135l63 297q10 48 -4 68t-64 20q-37 0 -71 -14t-60 -35l-71 -336h-135zM60 -155l17 83h307l-17 -83h-307z" />
    <glyph glyph-name="ntilde" unicode="&#xf1;" horiz-adv-x="588" 
d="M443 534q-29 0 -55 10t-49.5 20t-48.5 10q-55 0 -98 -37l21 96q17 14 42 22.5t51 8.5q31 0 55 -10t47 -20t51 -10q56 0 91 38l-21 -96q-12 -13 -35 -22.5t-51 -9.5zM1 0l100 474h125l-4 -45q34 22 81.5 38.5t96.5 16.5q180 0 142 -180l-64 -304h-135l63 297q10 48 -4 68
t-64 20q-37 0 -71 -14t-60 -35l-71 -336h-135z" />
    <glyph glyph-name="o" unicode="o" horiz-adv-x="589" 
d="M234 -10q-127 0 -178 64.5t-26 182.5t98 182.5t211 64.5q129 0 180 -64.5t26 -182.5t-97 -182.5t-214 -64.5zM259 105q65 0 99 29.5t50 102.5q15 73 -4 102.5t-89 29.5q-64 0 -98.5 -29.5t-49.5 -102.5q-16 -73 3 -102.5t89 -29.5z" />
    <glyph glyph-name="oacute" unicode="&#xf3;" horiz-adv-x="589" 
d="M286 522l120 187h117l-128 -187h-109zM234 -10q-127 0 -178 64.5t-26 182.5t98 182.5t211 64.5q129 0 180 -64.5t26 -182.5t-97 -182.5t-214 -64.5zM259 105q65 0 99 29.5t50 102.5q15 73 -4 102.5t-89 29.5q-64 0 -98.5 -29.5t-49.5 -102.5q-16 -73 3 -102.5t89 -29.5z
" />
    <glyph glyph-name="obreve" unicode="&#x14f;" horiz-adv-x="589" 
d="M347 522q-69 0 -103.5 42t-18.5 115h84q-7 -31 1.5 -55t48.5 -24q35 0 57 24t29 55h95q-16 -73 -64 -115t-129 -42zM234 -10q-127 0 -178 64.5t-26 182.5t98 182.5t211 64.5q129 0 180 -64.5t26 -182.5t-97 -182.5t-214 -64.5zM259 105q65 0 99 29.5t50 102.5
q15 73 -4 102.5t-89 29.5q-64 0 -98.5 -29.5t-49.5 -102.5q-16 -73 3 -102.5t89 -29.5z" />
    <glyph glyph-name="uni01D2" unicode="&#x1d2;" horiz-adv-x="589" 
d="M304 522l-97 174h100l50 -100l96 100h109l-172 -174h-86zM234 -10q-127 0 -178 64.5t-26 182.5t98 182.5t211 64.5q129 0 180 -64.5t26 -182.5t-97 -182.5t-214 -64.5zM259 105q65 0 99 29.5t50 102.5q15 73 -4 102.5t-89 29.5q-64 0 -98.5 -29.5t-49.5 -102.5
q-16 -73 3 -102.5t89 -29.5z" />
    <glyph glyph-name="ocircumflex" unicode="&#xf4;" horiz-adv-x="589" 
d="M170 522l171 174h86l98 -174h-99l-53 100l-93 -100h-110zM234 -10q-127 0 -178 64.5t-26 182.5t98 182.5t211 64.5q129 0 180 -64.5t26 -182.5t-97 -182.5t-214 -64.5zM259 105q65 0 99 29.5t50 102.5q15 73 -4 102.5t-89 29.5q-64 0 -98.5 -29.5t-49.5 -102.5
q-16 -73 3 -102.5t89 -29.5z" />
    <glyph glyph-name="uni1ED1" unicode="&#x1ed1;" horiz-adv-x="588" 
d="M479 638l95 141h102l-103 -141h-94zM175 521l154 135h103l98 -135h-104l-51 81l-84 -81h-116zM234 -10q-127 0 -178 64.5t-26 182.5t98 182.5t211 64.5q129 0 180 -64.5t26 -182.5t-97 -182.5t-214 -64.5zM259 105q65 0 99 29.5t50 102.5q15 73 -4 102.5t-89 29.5
q-64 0 -98.5 -29.5t-49.5 -102.5q-16 -73 3 -102.5t89 -29.5z" />
    <glyph glyph-name="uni1ED9" unicode="&#x1ed9;" horiz-adv-x="589" 
d="M170 522l171 174h86l98 -174h-99l-53 100l-93 -100h-110zM234 -10q-127 0 -178 64.5t-26 182.5t98 182.5t211 64.5q129 0 180 -64.5t26 -182.5t-97 -182.5t-214 -64.5zM259 105q65 0 99 29.5t50 102.5q15 73 -4 102.5t-89 29.5q-64 0 -98.5 -29.5t-49.5 -102.5
q-16 -73 3 -102.5t89 -29.5zM146 -181l21 99h107l-21 -99h-107z" />
    <glyph glyph-name="uni1ED3" unicode="&#x1ed3;" horiz-adv-x="589" 
d="M177 638l-43 141h102l36 -141h-95zM171 521l154 135h103l98 -135h-104l-51 81l-84 -81h-116zM234 -10q-127 0 -178 64.5t-26 182.5t98 182.5t211 64.5q129 0 180 -64.5t26 -182.5t-97 -182.5t-214 -64.5zM259 105q65 0 99 29.5t50 102.5q15 73 -4 102.5t-89 29.5
q-64 0 -98.5 -29.5t-49.5 -102.5q-16 -73 3 -102.5t89 -29.5z" />
    <glyph glyph-name="uni1ED5" unicode="&#x1ed5;" horiz-adv-x="588" 
d="M486 616l15 70q46 2 62 10.5t19 24.5q5 27 -39 27q-15 0 -29 -3.5t-27 -8.5l14 62q17 5 36.5 8.5t47.5 3.5q53 0 77 -22.5t16 -58.5q-7 -33 -29.5 -53t-63.5 -26l-7 -34h-92zM178 521l154 135h103l98 -135h-104l-51 81l-84 -81h-116zM234 -10q-127 0 -178 64.5t-26 182.5
t98 182.5t211 64.5q129 0 180 -64.5t26 -182.5t-97 -182.5t-214 -64.5zM259 105q65 0 99 29.5t50 102.5q15 73 -4 102.5t-89 29.5q-64 0 -98.5 -29.5t-49.5 -102.5q-16 -73 3 -102.5t89 -29.5z" />
    <glyph glyph-name="uni1ED7" unicode="&#x1ed7;" horiz-adv-x="589" 
d="M466 671q-29 0 -55 10t-49.5 20t-48.5 10q-55 0 -98 -37l19 86q16 14 41.5 22.5t51.5 8.5q31 0 55 -10t47 -20t51 -10q29 0 51.5 10t38.5 28l-19 -86q-12 -13 -34.5 -22.5t-50.5 -9.5zM178 521l154 135h103l98 -135h-104l-51 81l-84 -81h-116zM234 -10q-127 0 -178 64.5
t-26 182.5t98 182.5t211 64.5q129 0 180 -64.5t26 -182.5t-97 -182.5t-214 -64.5zM259 105q65 0 99 29.5t50 102.5q15 73 -4 102.5t-89 29.5q-64 0 -98.5 -29.5t-49.5 -102.5q-16 -73 3 -102.5t89 -29.5z" />
    <glyph glyph-name="odieresis" unicode="&#xf6;" horiz-adv-x="589" 
d="M202 547l21 98h105l-21 -98h-105zM397 547l21 98h106l-21 -98h-106zM234 -10q-127 0 -178 64.5t-26 182.5t98 182.5t211 64.5q129 0 180 -64.5t26 -182.5t-97 -182.5t-214 -64.5zM259 105q65 0 99 29.5t50 102.5q15 73 -4 102.5t-89 29.5q-64 0 -98.5 -29.5t-49.5 -102.5
q-16 -73 3 -102.5t89 -29.5z" />
    <glyph glyph-name="uni1ECD" unicode="&#x1ecd;" horiz-adv-x="589" 
d="M234 -10q-127 0 -178 64.5t-26 182.5t98 182.5t211 64.5q129 0 180 -64.5t26 -182.5t-97 -182.5t-214 -64.5zM259 105q65 0 99 29.5t50 102.5q15 73 -4 102.5t-89 29.5q-64 0 -98.5 -29.5t-49.5 -102.5q-16 -73 3 -102.5t89 -29.5zM146 -181l21 99h107l-21 -99h-107z" />
    <glyph glyph-name="ograve" unicode="&#xf2;" horiz-adv-x="589" 
d="M297 522l-48 187h117l40 -187h-109zM234 -10q-127 0 -178 64.5t-26 182.5t98 182.5t211 64.5q129 0 180 -64.5t26 -182.5t-97 -182.5t-214 -64.5zM259 105q65 0 99 29.5t50 102.5q15 73 -4 102.5t-89 29.5q-64 0 -98.5 -29.5t-49.5 -102.5q-16 -73 3 -102.5t89 -29.5z
" />
    <glyph glyph-name="uni1ECF" unicode="&#x1ecf;" horiz-adv-x="589" 
d="M299 521l17 81q56 3 76 14.5t24 33.5q5 20 -11.5 29.5t-48.5 9.5q-14 0 -32.5 -3t-32.5 -8l15 67q41 13 102 13q64 0 92 -26t19 -70q-9 -42 -33 -64t-74 -31l-10 -46h-103zM234 -10q-127 0 -178 64.5t-26 182.5t98 182.5t211 64.5q129 0 180 -64.5t26 -182.5t-97 -182.5
t-214 -64.5zM259 105q65 0 99 29.5t50 102.5q15 73 -4 102.5t-89 29.5q-64 0 -98.5 -29.5t-49.5 -102.5q-16 -73 3 -102.5t89 -29.5z" />
    <glyph glyph-name="ohorn" unicode="&#x1a1;" horiz-adv-x="693" 
d="M234 -10q-127 0 -178 64.5t-26 182.5t98 182.5t211 64.5q124 0 177 -61q57 1 84 26.5t40 86.5h97q-20 -97 -65 -142.5t-120 -56.5l-1 1q6 -44 -6 -101q-25 -118 -97 -182.5t-214 -64.5zM259 105q65 0 99 29.5t50 102.5q15 73 -4 102.5t-89 29.5q-64 0 -98.5 -29.5
t-49.5 -102.5q-16 -73 3 -102.5t89 -29.5z" />
    <glyph glyph-name="uni1EDB" unicode="&#x1edb;" horiz-adv-x="693" 
d="M299 522l120 187h117l-128 -187h-109zM234 -10q-127 0 -178 64.5t-26 182.5t98 182.5t211 64.5q124 0 177 -61q57 1 84 26.5t40 86.5h97q-20 -97 -65 -142.5t-120 -56.5l-1 1q6 -44 -6 -101q-25 -118 -97 -182.5t-214 -64.5zM259 105q65 0 99 29.5t50 102.5
q15 73 -4 102.5t-89 29.5q-64 0 -98.5 -29.5t-49.5 -102.5q-16 -73 3 -102.5t89 -29.5z" />
    <glyph glyph-name="uni1EE3" unicode="&#x1ee3;" horiz-adv-x="693" 
d="M234 -10q-127 0 -178 64.5t-26 182.5t98 182.5t211 64.5q124 0 177 -61q57 1 84 26.5t40 86.5h97q-20 -97 -65 -142.5t-120 -56.5l-1 1q6 -44 -6 -101q-25 -118 -97 -182.5t-214 -64.5zM259 105q65 0 99 29.5t50 102.5q15 73 -4 102.5t-89 29.5q-64 0 -98.5 -29.5
t-49.5 -102.5q-16 -73 3 -102.5t89 -29.5zM154 -181l21 99h107l-21 -99h-107z" />
    <glyph glyph-name="uni1EDD" unicode="&#x1edd;" horiz-adv-x="693" 
d="M312 522l-48 187h117l40 -187h-109zM234 -10q-127 0 -178 64.5t-26 182.5t98 182.5t211 64.5q124 0 177 -61q57 1 84 26.5t40 86.5h97q-20 -97 -65 -142.5t-120 -56.5l-1 1q6 -44 -6 -101q-25 -118 -97 -182.5t-214 -64.5zM259 105q65 0 99 29.5t50 102.5q15 73 -4 102.5
t-89 29.5q-64 0 -98.5 -29.5t-49.5 -102.5q-16 -73 3 -102.5t89 -29.5z" />
    <glyph glyph-name="uni1EDF" unicode="&#x1edf;" horiz-adv-x="693" 
d="M295 521l17 81q56 3 76 14.5t24 33.5q5 20 -11.5 29.5t-48.5 9.5q-14 0 -32.5 -3t-32.5 -8l15 67q41 13 102 13q64 0 92 -26t19 -70q-9 -42 -33 -64t-74 -31l-10 -46h-103zM234 -10q-127 0 -178 64.5t-26 182.5t98 182.5t211 64.5q124 0 177 -61q57 1 84 26.5t40 86.5h97
q-20 -97 -65 -142.5t-120 -56.5l-1 1q6 -44 -6 -101q-25 -118 -97 -182.5t-214 -64.5zM259 105q65 0 99 29.5t50 102.5q15 73 -4 102.5t-89 29.5q-64 0 -98.5 -29.5t-49.5 -102.5q-16 -73 3 -102.5t89 -29.5z" />
    <glyph glyph-name="uni1EE1" unicode="&#x1ee1;" horiz-adv-x="693" 
d="M442 531q-29 0 -55 10t-49.5 20t-48.5 10q-55 0 -98 -37l21 96q17 14 42 22.5t51 8.5q31 0 55 -10t47 -20t51 -10q56 0 91 38l-21 -96q-12 -13 -35 -22.5t-51 -9.5zM234 -10q-127 0 -178 64.5t-26 182.5t98 182.5t211 64.5q124 0 177 -61q57 1 84 26.5t40 86.5h97
q-20 -97 -65 -142.5t-120 -56.5l-1 1q6 -44 -6 -101q-25 -118 -97 -182.5t-214 -64.5zM259 105q65 0 99 29.5t50 102.5q15 73 -4 102.5t-89 29.5q-64 0 -98.5 -29.5t-49.5 -102.5q-16 -73 3 -102.5t89 -29.5z" />
    <glyph glyph-name="ohungarumlaut" unicode="&#x151;" horiz-adv-x="589" 
d="M173 521l117 176h119l-129 -176h-107zM400 521l117 176h120l-130 -176h-107zM234 -10q-127 0 -178 64.5t-26 182.5t98 182.5t211 64.5q129 0 180 -64.5t26 -182.5t-97 -182.5t-214 -64.5zM259 105q65 0 99 29.5t50 102.5q15 73 -4 102.5t-89 29.5q-64 0 -98.5 -29.5
t-49.5 -102.5q-16 -73 3 -102.5t89 -29.5z" />
    <glyph glyph-name="omacron" unicode="&#x14d;" horiz-adv-x="589" 
d="M196 556l17 83h307l-17 -83h-307zM234 -10q-127 0 -178 64.5t-26 182.5t98 182.5t211 64.5q129 0 180 -64.5t26 -182.5t-97 -182.5t-214 -64.5zM259 105q65 0 99 29.5t50 102.5q15 73 -4 102.5t-89 29.5q-64 0 -98.5 -29.5t-49.5 -102.5q-16 -73 3 -102.5t89 -29.5z" />
    <glyph glyph-name="oslash" unicode="&#xf8;" horiz-adv-x="589" 
d="M73 -53l38 65q-58 26 -78.5 83.5t-2.5 141.5q25 118 98 182.5t211 64.5q27 0 51 -3l28 47h77l-38 -64q62 -26 84 -83.5t4 -143.5q-25 -118 -97 -182.5t-214 -64.5q-16 0 -29.5 1t-27.5 3l-27 -47h-77zM178 125l145 244h-8q-64 0 -98.5 -29.5t-49.5 -102.5
q-20 -86 11 -112zM244 105h15q65 0 99 29.5t50 102.5q9 45 6 73t-23 42z" />
    <glyph glyph-name="oslashacute" unicode="&#x1ff;" horiz-adv-x="589" 
d="M269 522l120 187h117l-128 -187h-109zM73 -53l38 65q-58 26 -78.5 83.5t-2.5 141.5q25 118 98 182.5t211 64.5q27 0 51 -3l28 47h77l-38 -64q62 -26 84 -83.5t4 -143.5q-25 -118 -97 -182.5t-214 -64.5q-16 0 -29.5 1t-27.5 3l-27 -47h-77zM178 125l145 244h-8
q-64 0 -98.5 -29.5t-49.5 -102.5q-20 -86 11 -112zM244 105h15q65 0 99 29.5t50 102.5q9 45 6 73t-23 42z" />
    <glyph glyph-name="otilde" unicode="&#xf5;" horiz-adv-x="589" 
d="M439 544q-29 0 -55 10t-49.5 20t-48.5 10q-55 0 -98 -37l21 96q17 14 42 22.5t51 8.5q31 0 55 -10t47 -20t51 -10q56 0 91 38l-21 -96q-12 -13 -35 -22.5t-51 -9.5zM234 -10q-127 0 -178 64.5t-26 182.5t98 182.5t211 64.5q129 0 180 -64.5t26 -182.5t-97 -182.5
t-214 -64.5zM259 105q65 0 99 29.5t50 102.5q15 73 -4 102.5t-89 29.5q-64 0 -98.5 -29.5t-49.5 -102.5q-16 -73 3 -102.5t89 -29.5z" />
    <glyph glyph-name="oe" unicode="&#x153;" horiz-adv-x="930" 
d="M234 -10q-127 0 -178 64.5t-26 182.5t98 182.5t211 64.5q123 0 176 -60q35 29 83 44.5t113 15.5q110 0 156.5 -57.5t26.5 -150.5l-18 -86h-343q-1 -57 30.5 -78t118.5 -21q38 0 79 7t71 18l-20 -96q-36 -15 -82 -22.5t-98 -7.5q-60 0 -107 16.5t-75 49.5q-38 -32 -91 -49
t-125 -17zM551 273h225l5 26q9 41 -10 64.5t-76 23.5q-67 0 -99 -27t-45 -87zM259 105q65 0 99 29.5t50 102.5q15 73 -4 102.5t-89 29.5q-64 0 -98.5 -29.5t-49.5 -102.5q-16 -73 3 -102.5t89 -29.5z" />
    <glyph glyph-name="p" unicode="p" horiz-adv-x="590" 
d="M-45 -216l146 690h117l-2 -44q36 26 76 40t90 14q99 0 145.5 -59t19.5 -187t-96 -188t-182 -60q-80 0 -128 36l-51 -242h-135zM256 89q60 0 99 36t56 115q16 76 -1.5 110.5t-86.5 34.5q-62 0 -115 -43l-46 -217q17 -16 38.5 -26t55.5 -10z" />
    <glyph glyph-name="thorn" unicode="&#xfe;" horiz-adv-x="590" 
d="M-45 -216l194 916h135l-53 -252q32 18 70 27t78 9q64 0 108 -26t61 -80t-1 -140q-27 -128 -97 -188t-181 -60q-80 0 -128 36l-51 -242h-135zM256 89q60 0 99 36t56 115q16 76 -2 110.5t-86 34.5q-62 0 -115 -43l-46 -217q17 -16 38.5 -26t55.5 -10z" />
    <glyph glyph-name="q" unicode="q" horiz-adv-x="572" 
d="M427 -242q-69 0 -96.5 34t-11.5 106l27 128q-63 -36 -144 -36q-62 0 -107.5 26.5t-64 81.5t-0.5 140q27 128 95 187t176 59q50 0 83.5 -14t58.5 -40l17 44h116l-119 -563q-7 -29 2 -40.5t37 -11.5q11 0 21.5 2t20.5 5l-20 -93q-22 -7 -42 -11t-49 -4zM257 89
q35 0 60.5 10t49.5 26l46 217q-18 22 -40.5 32.5t-54.5 10.5q-67 0 -100.5 -34.5t-49.5 -110.5q-17 -79 3.5 -115t85.5 -36z" />
    <glyph glyph-name="r" unicode="r" horiz-adv-x="374" 
d="M1 0l100 474h125l-4 -49q37 20 87.5 36.5t97.5 22.5l-21 -102q-28 -4 -61.5 -12t-65 -18t-53.5 -21l-70 -331h-135z" />
    <glyph glyph-name="racute" unicode="&#x155;" horiz-adv-x="383" 
d="M165 522l120 187h117l-128 -187h-109zM5 0l100 474h125l-4 -49q37 20 87.5 36.5t97.5 22.5l-21 -102q-28 -4 -61.5 -12t-65 -18t-53.5 -21l-70 -331h-135z" />
    <glyph glyph-name="rcaron" unicode="&#x159;" horiz-adv-x="378" 
d="M167 522l-97 174h100l50 -100l96 100h109l-172 -174h-86zM0 0l100 474h125l-4 -49q37 20 87.5 36.5t97.5 22.5l-21 -102q-28 -4 -61.5 -12t-65 -18t-53.5 -21l-70 -331h-135z" />
    <glyph glyph-name="uni0157" unicode="&#x157;" horiz-adv-x="377" 
d="M-1 0l100 474h125l-4 -49q37 20 87.5 36.5t97.5 22.5l-21 -102q-28 -4 -61.5 -12t-65 -18t-53.5 -21l-70 -331h-135zM-69 -238l73 201h106l-93 -201h-86z" />
    <glyph glyph-name="uni1E5B" unicode="&#x1e5b;" horiz-adv-x="379" 
d="M1 0l100 474h125l-4 -49q37 20 87.5 36.5t97.5 22.5l-21 -102q-28 -4 -61.5 -12t-65 -18t-53.5 -21l-70 -331h-135zM-31 -181l21 99h107l-21 -99h-107z" />
    <glyph glyph-name="uni1E5D" unicode="&#x1e5d;" horiz-adv-x="387" 
d="M83 551l17 83h307l-17 -83h-307zM9 0l100 474h125l-4 -49q37 20 87.5 36.5t97.5 22.5l-21 -102q-28 -4 -61.5 -12t-65 -18t-53.5 -21l-70 -331h-135zM-16 -181l21 99h107l-21 -99h-107z" />
    <glyph glyph-name="uni1E5F" unicode="&#x1e5f;" horiz-adv-x="378" 
d="M0 0l100 474h125l-4 -49q37 20 87.5 36.5t97.5 22.5l-21 -102q-28 -4 -61.5 -12t-65 -18t-53.5 -21l-70 -331h-135zM-114 -155l17 83h307l-17 -83h-307z" />
    <glyph glyph-name="s" unicode="s" horiz-adv-x="471" 
d="M165 -10q-53 0 -99 7.5t-73 18.5l24 112q32 -14 74.5 -21.5t79.5 -7.5q50 0 72 6t26 27q5 24 -24.5 35t-86.5 31q-61 22 -89.5 54.5t-15.5 90.5q15 68 69 104.5t170 36.5q44 0 82 -6.5t63 -15.5l-24 -111q-24 13 -57.5 19.5t-63.5 6.5q-43 0 -69.5 -6t-31.5 -26
q-4 -22 21 -31t80 -27q79 -26 102.5 -61t11.5 -92q-15 -71 -71.5 -107.5t-169.5 -36.5z" />
    <glyph glyph-name="sacute" unicode="&#x15b;" horiz-adv-x="471" 
d="M227 522l120 187h117l-128 -187h-109zM165 -10q-53 0 -99 7.5t-73 18.5l24 112q32 -14 74.5 -21.5t79.5 -7.5q50 0 72 6t26 27q5 24 -24.5 35t-86.5 31q-61 22 -89.5 54.5t-15.5 90.5q15 68 69 104.5t170 36.5q44 0 82 -6.5t63 -15.5l-24 -111q-24 13 -57.5 19.5
t-63.5 6.5q-43 0 -69.5 -6t-31.5 -26q-4 -22 21 -31t80 -27q79 -26 102.5 -61t11.5 -92q-15 -71 -71.5 -107.5t-169.5 -36.5z" />
    <glyph glyph-name="scaron" unicode="&#x161;" horiz-adv-x="471" 
d="M244 522l-97 174h100l50 -100l96 100h109l-172 -174h-86zM165 -10q-53 0 -99 7.5t-73 18.5l24 112q32 -14 74.5 -21.5t79.5 -7.5q50 0 72 6t26 27q5 24 -24.5 35t-86.5 31q-61 22 -89.5 54.5t-15.5 90.5q15 68 69 104.5t170 36.5q44 0 82 -6.5t63 -15.5l-24 -111
q-24 13 -57.5 19.5t-63.5 6.5q-43 0 -69.5 -6t-31.5 -26q-4 -22 21 -31t80 -27q79 -26 102.5 -61t11.5 -92q-15 -71 -71.5 -107.5t-169.5 -36.5z" />
    <glyph glyph-name="scedilla" unicode="&#x15f;" horiz-adv-x="471" 
d="M109 -240q-17 0 -40 2.5t-34 5.5l15 68q27 -8 59 -8q44 0 63.5 6.5t23.5 30.5q5 26 -14 31.5t-54 5.5h-44l44 89q-42 2 -77.5 8.5t-57.5 16.5l24 112q32 -14 74.5 -21.5t79.5 -7.5q50 0 72 6t26 27q5 24 -24.5 35t-86.5 31q-61 22 -89.5 54.5t-15.5 90.5q15 68 69 104.5
t170 36.5q44 0 82 -6.5t63 -15.5l-24 -111q-24 13 -57.5 19.5t-63.5 6.5q-43 0 -69.5 -6t-31.5 -26q-4 -22 21 -31t80 -27q79 -26 102.5 -61t11.5 -92q-13 -63 -58 -98t-131 -43l-21 -38q53 0 74 -24.5t13 -66.5q-10 -49 -53 -76.5t-121 -27.5z" />
    <glyph glyph-name="scircumflex" unicode="&#x15d;" horiz-adv-x="471" 
d="M119 532l171 174h86l98 -174h-99l-53 100l-93 -100h-110zM165 -10q-53 0 -99 7.5t-73 18.5l24 112q32 -14 74.5 -21.5t79.5 -7.5q50 0 72 6t26 27q5 24 -24.5 35t-86.5 31q-61 22 -89.5 54.5t-15.5 90.5q15 68 69 104.5t170 36.5q44 0 82 -6.5t63 -15.5l-24 -111
q-24 13 -57.5 19.5t-63.5 6.5q-43 0 -69.5 -6t-31.5 -26q-4 -22 21 -31t80 -27q79 -26 102.5 -61t11.5 -92q-15 -71 -71.5 -107.5t-169.5 -36.5z" />
    <glyph glyph-name="uni0219" unicode="&#x219;" horiz-adv-x="471" 
d="M165 -10q-53 0 -99 7.5t-73 18.5l24 112q32 -14 74.5 -21.5t79.5 -7.5q50 0 72 6t26 27q5 24 -24.5 35t-86.5 31q-61 22 -89.5 54.5t-15.5 90.5q15 68 69 104.5t170 36.5q44 0 82 -6.5t63 -15.5l-24 -111q-24 13 -57.5 19.5t-63.5 6.5q-43 0 -69.5 -6t-31.5 -26
q-4 -22 21 -31t80 -27q79 -26 102.5 -61t11.5 -92q-15 -71 -71.5 -107.5t-169.5 -36.5zM52 -226l67 179h116l-80 -179h-103z" />
    <glyph glyph-name="uni1E61" unicode="&#x1e61;" horiz-adv-x="471" 
d="M238 547l21 98h105l-21 -98h-105zM165 -10q-53 0 -99 7.5t-73 18.5l24 112q32 -14 74.5 -21.5t79.5 -7.5q50 0 72 6t26 27q5 24 -24.5 35t-86.5 31q-61 22 -89.5 54.5t-15.5 90.5q15 68 69 104.5t170 36.5q44 0 82 -6.5t63 -15.5l-24 -111q-24 13 -57.5 19.5t-63.5 6.5
q-43 0 -69.5 -6t-31.5 -26q-4 -22 21 -31t80 -27q79 -26 102.5 -61t11.5 -92q-15 -71 -71.5 -107.5t-169.5 -36.5z" />
    <glyph glyph-name="uni1E63" unicode="&#x1e63;" horiz-adv-x="471" 
d="M165 -10q-53 0 -99 7.5t-73 18.5l24 112q32 -14 74.5 -21.5t79.5 -7.5q50 0 72 6t26 27q5 24 -24.5 35t-86.5 31q-61 22 -89.5 54.5t-15.5 90.5q15 68 69 104.5t170 36.5q44 0 82 -6.5t63 -15.5l-24 -111q-24 13 -57.5 19.5t-63.5 6.5q-43 0 -69.5 -6t-31.5 -26
q-4 -22 21 -31t80 -27q79 -26 102.5 -61t11.5 -92q-15 -71 -71.5 -107.5t-169.5 -36.5zM100 -181l21 99h107l-21 -99h-107z" />
    <glyph glyph-name="germandbls" unicode="&#xdf;" horiz-adv-x="633" 
d="M328 -10q-81 0 -139 23l24 114q47 -22 113 -22q44 0 76 23t42 66q11 51 -11.5 73.5t-78.5 22.5h-73l22 104h70q53 0 82 25t39 72q9 41 -14.5 67.5t-97.5 26.5q-61 0 -105 -33t-60 -106l-94 -446h-128l95 448q15 72 53 129t103 90t160 33q86 0 137 -29.5t70 -77t7 -102.5
q-11 -53 -35 -93.5t-73 -64.5q43 -16 61 -52.5t6 -93.5q-19 -93 -84.5 -145t-166.5 -52z" />
    <glyph glyph-name="t" unicode="t" horiz-adv-x="363" 
d="M186 -10q-79 0 -111 43t-16 117l47 220h-67l22 104h67l22 102l143 40l-30 -142h120l-30 -104h-112l-45 -211q-8 -39 4.5 -53.5t55.5 -14.5q27 0 60 10l-20 -93q-48 -18 -110 -18z" />
    <glyph glyph-name="tbar" unicode="&#x167;" horiz-adv-x="368" 
d="M186 -10q-79 0 -111 43t-16 117l9 45h-66l19 91h67l18 84h-67l22 104h67l22 102l143 40l-30 -142h120l-30 -104h-112l-18 -84h121l-19 -91h-122l-7 -36q-8 -39 4.5 -53.5t55.5 -14.5q27 0 60 10l-20 -93q-48 -18 -110 -18z" />
    <glyph glyph-name="tcaron" unicode="&#x165;" horiz-adv-x="397" 
d="M387 559l73 201h106l-93 -201h-86zM186 -10q-79 0 -111 43t-16 117l47 220h-67l22 104h67l22 102l143 40l-30 -142h120l-30 -104h-112l-45 -211q-8 -39 4.5 -53.5t55.5 -14.5q27 0 60 10l-20 -93q-48 -18 -110 -18z" />
    <glyph glyph-name="uni0163" unicode="&#x163;" horiz-adv-x="392" 
d="M115 -240q-17 0 -40 2.5t-34 5.5l15 68q27 -8 59 -8q44 0 63.5 6.5t23.5 30.5q5 26 -14 31.5t-54 5.5h-44l46 94q-51 12 -70.5 52.5t-6.5 101.5l47 220h-67l22 104h67l22 102l143 40l-30 -142h120l-30 -104h-112l-45 -211q-8 -39 4.5 -53.5t55.5 -14.5q27 0 60 10
l-20 -93q-17 -6 -35.5 -10t-38.5 -6l-20 -37q53 0 74 -24.5t13 -66.5q-10 -49 -53 -76.5t-121 -27.5z" />
    <glyph glyph-name="uni021B" unicode="&#x21b;" horiz-adv-x="368" 
d="M186 -10q-79 0 -111 43t-16 117l47 220h-67l22 104h67l22 102l143 40l-30 -142h120l-30 -104h-112l-45 -211q-8 -39 4.5 -53.5t55.5 -14.5q27 0 60 10l-20 -93q-48 -18 -110 -18zM38 -248l73 201h106l-93 -201h-86z" />
    <glyph glyph-name="uni1E97" unicode="&#x1e97;" horiz-adv-x="378" 
d="M108 642l21 98h105l-21 -98h-105zM303 642l21 98h106l-21 -98h-106zM195 -10q-79 0 -111 43t-16 117l47 220h-67l22 104h67l22 102l143 40l-30 -142h120l-30 -104h-112l-45 -211q-8 -39 4.5 -53.5t55.5 -14.5q27 0 60 10l-20 -93q-48 -18 -110 -18z" />
    <glyph glyph-name="uni1E6D" unicode="&#x1e6d;" horiz-adv-x="368" 
d="M186 -10q-79 0 -111 43t-16 117l47 220h-67l22 104h67l22 102l143 40l-30 -142h120l-30 -104h-112l-45 -211q-8 -39 4.5 -53.5t55.5 -14.5q27 0 60 10l-20 -93q-48 -18 -110 -18zM83 -171l21 99h107l-21 -99h-107z" />
    <glyph glyph-name="uni1E6F" unicode="&#x1e6f;" horiz-adv-x="377" 
d="M186 -10q-79 0 -111 43t-16 117l47 220h-67l22 104h67l22 102l143 40l-30 -142h120l-30 -104h-112l-45 -211q-8 -39 4.5 -53.5t55.5 -14.5q27 0 60 10l-20 -93q-48 -18 -110 -18zM-35 -145l17 83h307l-17 -83h-307z" />
    <glyph glyph-name="u" unicode="u" horiz-adv-x="588" 
d="M173 -10q-82 0 -120.5 47.5t-19.5 139.5l63 297h135l-62 -294q-10 -48 6 -69.5t66 -21.5q35 0 68 14t58 35l71 336h135l-100 -474h-125l4 45q-35 -24 -79 -39.5t-100 -15.5z" />
    <glyph glyph-name="uacute" unicode="&#xfa;" horiz-adv-x="588" 
d="M275 522l120 187h117l-128 -187h-109zM173 -10q-82 0 -120.5 47.5t-19.5 139.5l63 297h135l-62 -294q-10 -48 6 -69.5t66 -21.5q35 0 68 14t58 35l71 336h135l-100 -474h-125l4 45q-35 -24 -79 -39.5t-100 -15.5z" />
    <glyph glyph-name="ubreve" unicode="&#x16d;" horiz-adv-x="588" 
d="M352 522q-69 0 -103.5 42t-18.5 115h84q-7 -31 1.5 -55t48.5 -24q35 0 57 24t29 55h95q-16 -73 -64 -115t-129 -42zM173 -10q-82 0 -120.5 47.5t-19.5 139.5l63 297h135l-62 -294q-10 -48 6 -69.5t66 -21.5q35 0 68 14t58 35l71 336h135l-100 -474h-125l4 45
q-35 -24 -79 -39.5t-100 -15.5z" />
    <glyph glyph-name="uni01D4" unicode="&#x1d4;" horiz-adv-x="588" 
d="M302 522l-97 174h100l50 -100l96 100h109l-172 -174h-86zM173 -10q-82 0 -120.5 47.5t-19.5 139.5l63 297h135l-62 -294q-10 -48 6 -69.5t66 -21.5q35 0 68 14t58 35l71 336h135l-100 -474h-125l4 45q-35 -24 -79 -39.5t-100 -15.5z" />
    <glyph glyph-name="ucircumflex" unicode="&#xfb;" horiz-adv-x="588" 
d="M167 522l171 174h86l98 -174h-99l-53 100l-93 -100h-110zM173 -10q-82 0 -120.5 47.5t-19.5 139.5l63 297h135l-62 -294q-10 -48 6 -69.5t66 -21.5q35 0 68 14t58 35l71 336h135l-100 -474h-125l4 45q-35 -24 -79 -39.5t-100 -15.5z" />
    <glyph glyph-name="udieresis" unicode="&#xfc;" horiz-adv-x="588" 
d="M199 547l21 98h105l-21 -98h-105zM394 547l21 98h106l-21 -98h-106zM173 -10q-82 0 -120.5 47.5t-19.5 139.5l63 297h135l-62 -294q-10 -48 6 -69.5t66 -21.5q35 0 68 14t58 35l71 336h135l-100 -474h-125l4 45q-35 -24 -79 -39.5t-100 -15.5z" />
    <glyph glyph-name="uni01D8" unicode="&#x1d8;" horiz-adv-x="588" 
d="M311 635l86 129h102l-93 -129h-95zM187 522l20 93h100l-20 -93h-100zM387 522l20 93h101l-20 -93h-101zM173 -10q-82 0 -120.5 47.5t-19.5 139.5l63 297h135l-62 -294q-10 -48 6 -69.5t66 -21.5q35 0 68 14t58 35l71 336h135l-100 -474h-125l4 45q-35 -24 -79 -39.5
t-100 -15.5z" />
    <glyph glyph-name="uni01DA" unicode="&#x1da;" horiz-adv-x="588" 
d="M326 631l-87 121h95l44 -73l76 73h103l-138 -121h-93zM198 521l20 93h101l-20 -93h-101zM399 521l20 93h100l-20 -93h-100zM173 -10q-82 0 -120.5 47.5t-19.5 139.5l63 297h135l-62 -294q-10 -48 6 -69.5t66 -21.5q35 0 68 14t58 35l71 336h135l-100 -474h-125l4 45
q-35 -24 -79 -39.5t-100 -15.5z" />
    <glyph glyph-name="uni01DC" unicode="&#x1dc;" horiz-adv-x="588" 
d="M331 635l-39 129h102l32 -129h-95zM202 522l20 93h100l-20 -93h-100zM402 522l20 93h101l-20 -93h-101zM173 -10q-82 0 -120.5 47.5t-19.5 139.5l63 297h135l-62 -294q-10 -48 6 -69.5t66 -21.5q35 0 68 14t58 35l71 336h135l-100 -474h-125l4 45q-35 -24 -79 -39.5
t-100 -15.5z" />
    <glyph glyph-name="uni01D6" unicode="&#x1d6;" horiz-adv-x="588" 
d="M234 685l17 83h307l-17 -83h-307zM202 537l21 98h105l-21 -98h-105zM397 537l21 98h106l-21 -98h-106zM173 -10q-82 0 -120.5 47.5t-19.5 139.5l63 297h135l-62 -294q-10 -48 6 -69.5t66 -21.5q35 0 68 14t58 35l71 336h135l-100 -474h-125l4 45q-35 -24 -79 -39.5
t-100 -15.5z" />
    <glyph glyph-name="uni1EE5" unicode="&#x1ee5;" horiz-adv-x="588" 
d="M173 -10q-82 0 -120.5 47.5t-19.5 139.5l63 297h135l-62 -294q-10 -48 6 -69.5t66 -21.5q35 0 68 14t58 35l71 336h135l-100 -474h-125l4 45q-35 -24 -79 -39.5t-100 -15.5zM139 -181l21 99h107l-21 -99h-107z" />
    <glyph glyph-name="ugrave" unicode="&#xf9;" horiz-adv-x="588" 
d="M305 522l-48 187h117l40 -187h-109zM173 -10q-82 0 -120.5 47.5t-19.5 139.5l63 297h135l-62 -294q-10 -48 6 -69.5t66 -21.5q35 0 68 14t58 35l71 336h135l-100 -474h-125l4 45q-35 -24 -79 -39.5t-100 -15.5z" />
    <glyph glyph-name="uni1EE7" unicode="&#x1ee7;" horiz-adv-x="588" 
d="M294 521l17 81q56 3 76 14.5t24 33.5q5 20 -11.5 29.5t-48.5 9.5q-14 0 -32.5 -3t-32.5 -8l15 67q41 13 102 13q64 0 92 -26t19 -70q-9 -42 -33 -64t-74 -31l-10 -46h-103zM173 -10q-82 0 -120.5 47.5t-19.5 139.5l63 297h135l-62 -294q-10 -48 6 -69.5t66 -21.5
q35 0 68 14t58 35l71 336h135l-100 -474h-125l4 45q-35 -24 -79 -39.5t-100 -15.5z" />
    <glyph glyph-name="uhorn" unicode="&#x1b0;" horiz-adv-x="721" 
d="M173 -10q-82 0 -120.5 47.5t-19.5 139.5l63 297h135l-62 -294q-10 -48 6 -69.5t66 -21.5q35 0 68 14t58 35l71 336h135l-11 -50q47 4 70.5 30t35.5 82h97q-22 -108 -74.5 -152.5t-147.5 -49.5l-70 -334h-125l4 45q-35 -24 -79 -39.5t-100 -15.5z" />
    <glyph glyph-name="uni1EE9" unicode="&#x1ee9;" horiz-adv-x="721" 
d="M294 522l120 187h117l-128 -187h-109zM173 -10q-82 0 -120.5 47.5t-19.5 139.5l63 297h135l-62 -294q-10 -48 6 -69.5t66 -21.5q35 0 68 14t58 35l71 336h135l-11 -50q47 4 70.5 30t35.5 82h97q-22 -108 -74.5 -152.5t-147.5 -49.5l-70 -334h-125l4 45q-35 -24 -79 -39.5
t-100 -15.5z" />
    <glyph glyph-name="uni1EF1" unicode="&#x1ef1;" horiz-adv-x="721" 
d="M173 -10q-82 0 -120.5 47.5t-19.5 139.5l63 297h135l-62 -294q-10 -48 6 -69.5t66 -21.5q35 0 68 14t58 35l71 336h135l-11 -50q47 4 70.5 30t35.5 82h97q-22 -108 -74.5 -152.5t-147.5 -49.5l-70 -334h-125l4 45q-35 -24 -79 -39.5t-100 -15.5zM143 -181l21 99h107
l-21 -99h-107z" />
    <glyph glyph-name="uni1EEB" unicode="&#x1eeb;" horiz-adv-x="721" 
d="M302 522l-48 187h117l40 -187h-109zM173 -10q-82 0 -120.5 47.5t-19.5 139.5l63 297h135l-62 -294q-10 -48 6 -69.5t66 -21.5q35 0 68 14t58 35l71 336h135l-11 -50q47 4 70.5 30t35.5 82h97q-22 -108 -74.5 -152.5t-147.5 -49.5l-70 -334h-125l4 45q-35 -24 -79 -39.5
t-100 -15.5z" />
    <glyph glyph-name="uni1EED" unicode="&#x1eed;" horiz-adv-x="721" 
d="M299 521l17 81q56 3 76 14.5t24 33.5q5 20 -11.5 29.5t-48.5 9.5q-14 0 -32.5 -3t-32.5 -8l15 67q41 13 102 13q64 0 92 -26t19 -70q-9 -42 -33 -64t-74 -31l-10 -46h-103zM173 -10q-82 0 -120.5 47.5t-19.5 139.5l63 297h135l-62 -294q-10 -48 6 -69.5t66 -21.5
q35 0 68 14t58 35l71 336h135l-11 -50q47 4 70.5 30t35.5 82h97q-22 -108 -74.5 -152.5t-147.5 -49.5l-70 -334h-125l4 45q-35 -24 -79 -39.5t-100 -15.5z" />
    <glyph glyph-name="uni1EEF" unicode="&#x1eef;" horiz-adv-x="721" 
d="M440 531q-29 0 -55 10t-49.5 20t-48.5 10q-55 0 -98 -37l21 96q17 14 42 22.5t51 8.5q31 0 55 -10t47 -20t51 -10q56 0 91 38l-21 -96q-12 -13 -35 -22.5t-51 -9.5zM173 -10q-82 0 -120.5 47.5t-19.5 139.5l63 297h135l-62 -294q-10 -48 6 -69.5t66 -21.5q35 0 68 14
t58 35l71 336h135l-11 -50q47 4 70.5 30t35.5 82h97q-22 -108 -74.5 -152.5t-147.5 -49.5l-70 -334h-125l4 45q-35 -24 -79 -39.5t-100 -15.5z" />
    <glyph glyph-name="uhungarumlaut" unicode="&#x171;" horiz-adv-x="588" 
d="M153 521l117 176h119l-129 -176h-107zM380 521l117 176h120l-130 -176h-107zM173 -10q-82 0 -120.5 47.5t-19.5 139.5l63 297h135l-62 -294q-10 -48 6 -69.5t66 -21.5q35 0 68 14t58 35l71 336h135l-100 -474h-125l4 45q-35 -24 -79 -39.5t-100 -15.5z" />
    <glyph glyph-name="umacron" unicode="&#x16b;" horiz-adv-x="588" 
d="M204 556l17 83h307l-17 -83h-307zM173 -10q-82 0 -120.5 47.5t-19.5 139.5l63 297h135l-62 -294q-10 -48 6 -69.5t66 -21.5q35 0 68 14t58 35l71 336h135l-100 -474h-125l4 45q-35 -24 -79 -39.5t-100 -15.5z" />
    <glyph glyph-name="uogonek" unicode="&#x173;" horiz-adv-x="618" 
d="M369 -220q-46 0 -75.5 22.5t-20.5 68.5q8 41 31.5 73.5t52.5 55.5l-5 45q-35 -24 -79 -39.5t-100 -15.5q-82 0 -120.5 47.5t-19.5 139.5l63 297h135l-62 -294q-10 -48 6 -69.5t66 -21.5q35 0 68 14t58 35l71 336h135l-100 -474q-39 -21 -61 -48t-28 -56q-4 -21 7 -29
t31 -8q12 0 26 3t24 8l-16 -76q-15 -6 -38.5 -10t-48.5 -4z" />
    <glyph glyph-name="uring" unicode="&#x16f;" horiz-adv-x="588" 
d="M346 522q-57 0 -82.5 34.5t-15.5 84.5t49.5 85t98.5 35t85 -35t15 -85q-10 -50 -49 -84.5t-101 -34.5zM359 584q32 0 49 16.5t22 40.5t-7 40.5t-40 16.5q-29 0 -47 -16.5t-23 -40.5t7.5 -40.5t38.5 -16.5zM173 -10q-82 0 -120.5 47.5t-19.5 139.5l63 297h135l-62 -294
q-10 -48 6 -69.5t66 -21.5q35 0 68 14t58 35l71 336h135l-100 -474h-125l4 45q-35 -24 -79 -39.5t-100 -15.5z" />
    <glyph glyph-name="utilde" unicode="&#x169;" horiz-adv-x="588" 
d="M438 534q-29 0 -55 10t-49.5 20t-48.5 10q-55 0 -98 -37l21 96q17 14 42 22.5t51 8.5q31 0 55 -10t47 -20t51 -10q56 0 91 38l-21 -96q-12 -13 -35 -22.5t-51 -9.5zM173 -10q-82 0 -120.5 47.5t-19.5 139.5l63 297h135l-62 -294q-10 -48 6 -69.5t66 -21.5q35 0 68 14
t58 35l71 336h135l-100 -474h-125l4 45q-35 -24 -79 -39.5t-100 -15.5z" />
    <glyph glyph-name="v" unicode="v" horiz-adv-x="593" 
d="M168 0l-87 474h136l46 -338l191 338h145l-286 -474h-145z" />
    <glyph glyph-name="w" unicode="w" horiz-adv-x="757" 
d="M106 0l-25 474h135l7 -308l131 247l13 61h103l25 -308l135 308h134l-224 -474h-119l-33 277l-151 -277h-131z" />
    <glyph glyph-name="wacute" unicode="&#x1e83;" horiz-adv-x="757" 
d="M375 522l120 187h117l-128 -187h-109zM106 0l-25 474h135l7 -308l131 247l13 61h103l25 -308l135 308h134l-224 -474h-119l-33 277l-151 -277h-131z" />
    <glyph glyph-name="wcircumflex" unicode="&#x175;" horiz-adv-x="757" 
d="M258 522l171 174h86l98 -174h-99l-53 100l-93 -100h-110zM106 0l-25 474h135l7 -308l131 247l13 61h103l25 -308l135 308h134l-224 -474h-119l-33 277l-151 -277h-131z" />
    <glyph glyph-name="wdieresis" unicode="&#x1e85;" horiz-adv-x="757" 
d="M290 547l21 98h105l-21 -98h-105zM485 547l21 98h106l-21 -98h-106zM106 0l-25 474h135l7 -308l131 247l13 61h103l25 -308l135 308h134l-224 -474h-119l-33 277l-151 -277h-131z" />
    <glyph glyph-name="wgrave" unicode="&#x1e81;" horiz-adv-x="757" 
d="M374 522l-48 187h117l40 -187h-109zM106 0l-25 474h135l7 -308l131 247l13 61h103l25 -308l135 308h134l-224 -474h-119l-33 277l-151 -277h-131z" />
    <glyph glyph-name="x" unicode="x" horiz-adv-x="562" 
d="M-31 0l233 241l-126 233h146l73 -138l131 138h146l-223 -233l130 -241h-147l-78 145l-138 -145h-147z" />
    <glyph glyph-name="y" unicode="y" horiz-adv-x="600" 
d="M152 -176q-16 0 -40.5 1.5t-48 4t-37.5 5.5l22 103q20 -6 51 -9.5t53 -3.5q77 0 130 20t64 70l6 30q-35 -24 -78.5 -39.5t-99.5 -15.5q-50 0 -86 23.5t-51 65.5t-3 98l63 297h135l-62 -294q-10 -48 3.5 -69.5t68.5 -21.5q35 0 68 14t58 35l71 336h135l-93 -441
q-13 -61 -49 -108.5t-103.5 -74t-176.5 -26.5z" />
    <glyph glyph-name="yacute" unicode="&#xfd;" horiz-adv-x="600" 
d="M309 522l120 187h117l-128 -187h-109zM151 -176q-16 0 -40.5 1.5t-48 4t-37.5 5.5l22 103q20 -6 51 -9.5t53 -3.5q77 0 130 20t64 70l6 30q-35 -24 -78.5 -39.5t-99.5 -15.5q-50 0 -86 23.5t-51 65.5t-3 98l63 297h135l-62 -294q-10 -48 3.5 -69.5t68.5 -21.5q35 0 68 14
t58 35l71 336h135l-93 -441q-13 -61 -49 -108.5t-103.5 -74t-176.5 -26.5z" />
    <glyph glyph-name="ycircumflex" unicode="&#x177;" horiz-adv-x="600" 
d="M195 522l171 174h86l98 -174h-99l-53 100l-93 -100h-110zM151 -176q-16 0 -40.5 1.5t-48 4t-37.5 5.5l22 103q20 -6 51 -9.5t53 -3.5q77 0 130 20t64 70l6 30q-35 -24 -78.5 -39.5t-99.5 -15.5q-50 0 -86 23.5t-51 65.5t-3 98l63 297h135l-62 -294q-10 -48 3.5 -69.5
t68.5 -21.5q35 0 68 14t58 35l71 336h135l-93 -441q-13 -61 -49 -108.5t-103.5 -74t-176.5 -26.5z" />
    <glyph glyph-name="ydieresis" unicode="&#xff;" horiz-adv-x="600" 
d="M231 561l21 98h105l-21 -98h-105zM426 561l21 98h106l-21 -98h-106zM151 -176q-16 0 -40.5 1.5t-48 4t-37.5 5.5l22 103q20 -6 51 -9.5t53 -3.5q77 0 130 20t64 70l6 30q-35 -24 -78.5 -39.5t-99.5 -15.5q-50 0 -86 23.5t-51 65.5t-3 98l63 297h135l-62 -294
q-10 -48 3.5 -69.5t68.5 -21.5q35 0 68 14t58 35l71 336h135l-93 -441q-13 -61 -49 -108.5t-103.5 -74t-176.5 -26.5z" />
    <glyph glyph-name="uni1E8F" unicode="&#x1e8f;" horiz-adv-x="600" 
d="M323 547l21 98h105l-21 -98h-105zM151 -176q-16 0 -40.5 1.5t-48 4t-37.5 5.5l22 103q20 -6 51 -9.5t53 -3.5q77 0 130 20t64 70l6 30q-35 -24 -78.5 -39.5t-99.5 -15.5q-50 0 -86 23.5t-51 65.5t-3 98l63 297h135l-62 -294q-10 -48 3.5 -69.5t68.5 -21.5q35 0 68 14
t58 35l71 336h135l-93 -441q-13 -61 -49 -108.5t-103.5 -74t-176.5 -26.5z" />
    <glyph glyph-name="uni1EF5" unicode="&#x1ef5;" horiz-adv-x="600" 
d="M151 -176q-16 0 -40.5 1.5t-48 4t-37.5 5.5l22 103q20 -6 51 -9.5t53 -3.5q77 0 130 20t64 70l6 30q-35 -24 -78.5 -39.5t-99.5 -15.5q-50 0 -86 23.5t-51 65.5t-3 98l63 297h135l-62 -294q-10 -48 3.5 -69.5t68.5 -21.5q35 0 68 14t58 35l71 336h135l-93 -441
q-13 -61 -49 -108.5t-103.5 -74t-176.5 -26.5zM438 -171l21 99h107l-21 -99h-107z" />
    <glyph glyph-name="ygrave" unicode="&#x1ef3;" horiz-adv-x="600" 
d="M320 522l-48 187h117l40 -187h-109zM151 -176q-16 0 -40.5 1.5t-48 4t-37.5 5.5l22 103q20 -6 51 -9.5t53 -3.5q77 0 130 20t64 70l6 30q-35 -24 -78.5 -39.5t-99.5 -15.5q-50 0 -86 23.5t-51 65.5t-3 98l63 297h135l-62 -294q-10 -48 3.5 -69.5t68.5 -21.5q35 0 68 14
t58 35l71 336h135l-93 -441q-13 -61 -49 -108.5t-103.5 -74t-176.5 -26.5z" />
    <glyph glyph-name="uni1EF7" unicode="&#x1ef7;" horiz-adv-x="600" 
d="M322 521l17 81q56 3 76 14.5t24 33.5q5 20 -11.5 29.5t-48.5 9.5q-14 0 -32.5 -3t-32.5 -8l15 67q41 13 102 13q64 0 92 -26t19 -70q-9 -42 -33 -64t-74 -31l-10 -46h-103zM151 -176q-16 0 -40.5 1.5t-48 4t-37.5 5.5l22 103q20 -6 51 -9.5t53 -3.5q77 0 130 20t64 70
l6 30q-35 -24 -78.5 -39.5t-99.5 -15.5q-50 0 -86 23.5t-51 65.5t-3 98l63 297h135l-62 -294q-10 -48 3.5 -69.5t68.5 -21.5q35 0 68 14t58 35l71 336h135l-93 -441q-13 -61 -49 -108.5t-103.5 -74t-176.5 -26.5z" />
    <glyph glyph-name="uni1EF9" unicode="&#x1ef9;" horiz-adv-x="600" 
d="M459 534q-29 0 -55 10t-49.5 20t-48.5 10q-55 0 -98 -37l21 96q17 14 42 22.5t51 8.5q31 0 55 -10t47 -20t51 -10q56 0 91 38l-21 -96q-12 -13 -35 -22.5t-51 -9.5zM151 -176q-16 0 -40.5 1.5t-48 4t-37.5 5.5l22 103q20 -6 51 -9.5t53 -3.5q77 0 130 20t64 70l6 30
q-35 -24 -78.5 -39.5t-99.5 -15.5q-50 0 -86 23.5t-51 65.5t-3 98l63 297h135l-62 -294q-10 -48 3.5 -69.5t68.5 -21.5q35 0 68 14t58 35l71 336h135l-93 -441q-13 -61 -49 -108.5t-103.5 -74t-176.5 -26.5z" />
    <glyph glyph-name="z" unicode="z" horiz-adv-x="490" 
d="M-19 0l14 70l301 292h-229l24 112h398l-17 -82l-295 -288h241l-22 -104h-415z" />
    <glyph glyph-name="zacute" unicode="&#x17a;" horiz-adv-x="490" 
d="M248 522l120 187h117l-128 -187h-109zM-19 0l14 70l301 292h-229l24 112h398l-17 -82l-295 -288h241l-22 -104h-415z" />
    <glyph glyph-name="zcaron" unicode="&#x17e;" horiz-adv-x="490" 
d="M257 522l-97 174h100l50 -100l96 100h109l-172 -174h-86zM-19 0l14 70l301 292h-229l24 112h398l-17 -82l-295 -288h241l-22 -104h-415z" />
    <glyph glyph-name="zdotaccent" unicode="&#x17c;" horiz-adv-x="490" 
d="M257 547l21 98h105l-21 -98h-105zM-19 0l14 70l301 292h-229l24 112h398l-17 -82l-295 -288h241l-22 -104h-415z" />
    <glyph glyph-name="uni1E93" unicode="&#x1e93;" horiz-adv-x="490" 
d="M-19 0l14 70l301 292h-229l24 112h398l-17 -82l-295 -288h241l-22 -104h-415zM98 -181l21 99h107l-21 -99h-107z" />
    <glyph glyph-name="ordfeminine" unicode="&#xaa;" horiz-adv-x="341" 
d="M155 380q-38 0 -62 19t-15 62q10 43 41 65.5t86 22.5h78l1 5q5 22 -4.5 30.5t-52.5 8.5q-45 0 -89 -14l12 58q20 8 49.5 12.5t57.5 4.5q55 0 86 -24.5t20 -77.5l-35 -166h-71l-1 23q-21 -15 -44.5 -22t-56.5 -7zM193 434q20 0 38.5 7.5t33.5 23.5l7 33h-61
q-25 0 -38.5 -6.5t-18.5 -26.5q-4 -18 7 -24.5t32 -6.5z" />
    <glyph glyph-name="ordmasculine" unicode="&#xba;" horiz-adv-x="361" 
d="M204 380q-143 0 -114 137q15 68 54.5 102.5t118.5 34.5q144 0 114 -137q-14 -67 -54.5 -102t-118.5 -35zM217 440q34 0 52 19t26 58t0 57.5t-45 18.5q-63 0 -79 -76q-8 -39 -1 -58t47 -19z" />
    <glyph glyph-name="uni207F" unicode="&#x207f;" horiz-adv-x="355" 
d="M68 386l55 262h75l-3 -24q49 29 109 29q43 0 63.5 -25.5t11.5 -69.5l-36 -172h-80l33 158q6 26 -1 37t-33 11q-19 0 -40.5 -7.5t-35.5 -18.5l-38 -180h-80z" />
    <glyph glyph-name="uni0394" unicode="&#x394;" horiz-adv-x="645" 
d="M-19 0l15 73l346 571h118l106 -572l-15 -72h-570zM137 104h309l-71 391z" />
    <glyph glyph-name="uni03A9" unicode="&#x3a9;" horiz-adv-x="759" 
d="M-12 0l21 100h128q-51 41 -74 111.5t-5 154.5q21 98 72.5 172t135.5 115.5t204 41.5q105 0 172 -44t93 -118.5t7 -166.5q-19 -90 -68 -157.5t-123 -108.5h128l-21 -100h-286l21 103q91 45 142.5 109t68.5 146q15 69 5.5 118.5t-48.5 76.5t-115 27q-109 0 -170 -61.5
t-82 -160.5q-18 -82 6.5 -146t94.5 -109l-21 -103h-286z" />
    <glyph glyph-name="uni03BC" unicode="&#x3bc;" horiz-adv-x="593" 
d="M-30 -143l131 617h135l-62 -294q-10 -48 8 -69.5t64 -21.5q35 0 68 14t58 35l71 336h135l-100 -474h-125l4 45q-35 -24 -79 -39.5t-100 -15.5q-12 0 -24 2.5t-19 5.5l-30 -141h-135z" />
    <glyph glyph-name="pi" unicode="&#x3c0;" horiz-adv-x="676" 
d="M489 -10q-74 0 -108.5 43t-18.5 117l47 220h-160l-78 -370h-135l78 370h-65l22 104h559l-22 -104h-64l-45 -211q-8 -39 3 -53.5t57 -14.5q27 0 60 10l-20 -93q-48 -18 -110 -18z" />
    <glyph glyph-name="uni0E01" unicode="&#xe01;" horiz-adv-x="622" 
d="M6 0l36 172q10 46 33 81.5t72 49.5l-96 27l27 129q49 35 123 63t162 28q122 0 179 -51t31 -173l-69 -326h-135l69 329q14 63 -8 89.5t-96 26.5q-45 0 -85.5 -13t-67.5 -33l-3 -14l105 -30l-17 -82q-42 -10 -60.5 -32.5t-28.5 -69.5l-36 -171h-135z" />
    <glyph glyph-name="uni0E02" unicode="&#xe02;" horiz-adv-x="595" 
d="M229 -10q-76 0 -124.5 27.5t-67 75t-6.5 106.5l7 34q7 34 25.5 61t40 48t38.5 39t20 34q3 15 -3 20t-24 5h-65l32 100h140q83 0 67 -77q-7 -34 -26 -61.5t-42 -52.5t-42 -52.5t-26 -62.5l-9 -43q-10 -50 8.5 -73t79.5 -23q110 0 131 100l73 345h135l-72 -339
q-22 -102 -92 -156.5t-198 -54.5z" />
    <glyph glyph-name="uni0E03" unicode="&#xe03;" horiz-adv-x="595" 
d="M229 -10q-77 0 -126 28t-67.5 74t-6.5 100l3 13q8 35 32 67.5t52.5 61t50.5 51.5t25 39q3 19 -12 19q-7 0 -14 -3t-14 -8l-8 -41h-85l31 149h89l-6 -28q18 12 38.5 20t48.5 8q80 0 63 -82q-8 -39 -30 -69.5t-48 -58t-47.5 -55.5t-28.5 -62l-5 -22q-10 -50 8.5 -73
t79.5 -23q110 0 131 100l73 345h135l-72 -339q-22 -102 -92 -156.5t-198 -54.5z" />
    <glyph glyph-name="uni0E04" unicode="&#xe04;" horiz-adv-x="629" 
d="M1 0l71 335q16 73 50.5 120.5t95.5 71t154 23.5q121 0 175 -60t34 -155l-71 -335h-135l73 345q11 54 -10 77t-88 23t-98.5 -23.5t-42.5 -76.5l-21 -97q22 14 47.5 23t53.5 9h65l-19 -107h-72q-28 0 -51.5 -7.5t-45.5 -21.5l-30 -144h-135z" />
    <glyph glyph-name="uni0E05" unicode="&#xe05;" horiz-adv-x="629" 
d="M1 0l82 386q15 74 57.5 119t114.5 45q69 0 103 -51q25 28 61.5 39.5t73.5 11.5q67 0 91.5 -43.5t7.5 -120.5l-82 -386h-134l80 379q6 27 0.5 41.5t-30.5 14.5q-19 0 -34 -9.5t-25 -26.5h-55q-2 16 -9.5 26t-24.5 10q-29 0 -43.5 -15t-19.5 -41l-28 -131q22 14 47.5 23
t53.5 9h66l-19 -107h-73q-28 0 -51.5 -7.5t-45.5 -21.5l-30 -144h-134z" />
    <glyph glyph-name="uni0E06" unicode="&#xe06;" horiz-adv-x="619" 
d="M310 -10q-56 0 -97.5 17t-70.5 46l-17 -53h-124l40 192q8 38 32.5 73t53.5 65t51.5 54t25.5 40q3 19 -12 19q-7 0 -14 -3t-14 -8l-8 -41h-85l31 149h89l-6 -28q18 12 38.5 20t48.5 8q38 0 55 -20.5t8 -61.5q-9 -40 -31.5 -72.5t-49 -62.5t-48 -59.5t-28.5 -63.5l-10 -49
q17 -24 50 -40t70 -16q56 0 81.5 23.5t36.5 78.5l73 343h135l-74 -351q-20 -94 -77.5 -146.5t-152.5 -52.5z" />
    <glyph glyph-name="uni0E07" unicode="&#xe07;" horiz-adv-x="548" 
d="M201 -10q-27 0 -56.5 4t-50.5 11l-74 370h131l58 -289q75 0 119 50.5t66 150.5q13 60 10 94t-26 48.5t-72 14.5h-41l20 96h60q113 0 158.5 -62.5t18.5 -190.5q-34 -158 -115.5 -227.5t-205.5 -69.5z" />
    <glyph glyph-name="uni0E08" unicode="&#xe08;" horiz-adv-x="560" 
d="M214 -10q-22 0 -49 4.5t-43 10.5l-33 203h-74l26 96h153l34 -211q60 0 104.5 42.5t64.5 139.5q14 65 8 102t-42 52.5t-112 15.5q-40 0 -86.5 -6.5t-90.5 -19.5l21 100q43 13 98.5 22t114.5 9q140 0 193 -73t24 -202q-31 -139 -113 -212t-198 -73z" />
    <glyph glyph-name="uni0E09" unicode="&#xe09;" horiz-adv-x="596" 
d="M159 -10q-76 0 -115 47t-20 140l26 123h135l-22 -103q-12 -57 3 -79.5t71 -22.5q41 0 75 15.5t62 41.5l35 167q11 48 2.5 75.5t-41.5 39t-98 11.5q-27 0 -63 -4t-73 -10.5t-67 -15.5l21 100q50 16 113.5 25.5t125.5 9.5q264 0 215 -232l-67 -318h-124l5 54
q-39 -28 -88 -46t-111 -18z" />
    <glyph glyph-name="uni0E0A" unicode="&#xe0a;" horiz-adv-x="598" 
d="M231 -10q-114 0 -166.5 56t-31.5 153l7 34q8 36 26.5 63.5t39.5 48t38 37.5t20 33q3 15 -3 20t-24 5h-65l32 100h140q83 0 67 -77q-7 -34 -26 -61.5t-42 -52.5t-42 -52.5t-26 -62.5l-9 -43q-10 -50 8.5 -73t79.5 -23q110 0 131 100l13 63q8 39 -1.5 54.5t-42.5 15.5h-28
l26 94h18q38 0 54 17t24 54l12 57h135l-11 -54q-9 -46 -30 -74.5t-65 -46.5q35 -20 43 -53t0 -69l-11 -52q-20 -97 -89.5 -154t-200.5 -57z" />
    <glyph glyph-name="uni0E0B" unicode="&#xe0b;" horiz-adv-x="598" 
d="M231 -10q-114 0 -166.5 54t-34.5 142l5 25q7 36 31 68t52.5 59t50.5 48.5t25 37.5q3 19 -12 19q-7 0 -14 -3t-14 -8l-8 -41h-85l31 149h89l-6 -28q18 12 39.5 20t47.5 8q80 0 63 -82q-8 -37 -30 -67.5t-48 -58t-47.5 -56.5t-28.5 -63l-5 -22q-11 -50 8 -73t80 -23
q59 0 90 25t41 75l13 63q8 39 -1.5 54.5t-42.5 15.5h-28l26 94h18q38 0 54 17t24 54l12 57h135l-11 -54q-9 -46 -30 -74.5t-65 -46.5q32 -22 41.5 -54t1.5 -68l-11 -52q-20 -97 -89.5 -154t-200.5 -57z" />
    <glyph glyph-name="uni0E0C" unicode="&#xe0c;" horiz-adv-x="962" 
d="M658 -10q-56 0 -95 17t-68 46l-17 -53h-119l69 329q14 63 -7 89.5t-87 26.5q-45 0 -85.5 -13t-67.5 -33l-3 -14l105 -30l-17 -82q-42 -10 -60.5 -32.5t-28.5 -69.5l-6 -29q-4 -22 -0.5 -29.5t23.5 -7.5h59l-22 -105h-122q-46 0 -68.5 30t-12.5 76l14 66q10 46 33 81.5
t72 49.5l-96 27l27 129q49 35 123 63t162 28q72 0 122 -22t70 -71t3 -131l-37 -175q17 -24 47.5 -40t67.5 -16q54 0 77 21.5t36 80.5l73 343h135l-74 -351q-42 -199 -225 -199z" />
    <glyph glyph-name="uni0E0D" unicode="&#xe0d;" horiz-adv-x="977" 
d="M598 -71q-52 0 -102.5 10.5t-94.5 32.5l22 104q40 -23 88.5 -33t104.5 -10q62 0 102.5 13t45.5 36q2 10 -1.5 18t-10.5 12q-24 -14 -56 -23t-73 -9q-69 0 -119 23t-72 73.5t-8 130.5l4 22q9 42 5.5 67.5t-26.5 37t-73 11.5q-45 0 -85.5 -13t-67.5 -33l-3 -14l105 -30
l-17 -82q-42 -10 -60.5 -32.5t-28.5 -69.5l-6 -29q-4 -22 -0.5 -29.5t23.5 -7.5h59l-22 -105h-122q-46 0 -68.5 30t-12.5 76l14 66q10 46 33 81.5t72 49.5l-96 27l27 129q49 35 123 63t162 28q68 0 118.5 -24t72.5 -73.5t4 -126.5l-5 -21q-15 -64 2.5 -92t89.5 -28
q116 0 142 120l50 235h135l-49 -233q-10 -45 -27.5 -80t-49.5 -61q17 -16 26 -41t3 -54q-16 -71 -82.5 -106.5t-194.5 -35.5z" />
    <glyph glyph-name="uni0E0D.less" horiz-adv-x="977" 
d="M603 -10q-72 0 -121.5 28t-70 79t-6.5 120l23 112q14 63 -6.5 89.5t-87.5 26.5q-45 0 -85.5 -13t-67.5 -33l-3 -14l105 -30l-17 -82q-42 -10 -60.5 -32.5t-28.5 -69.5l-6 -29q-4 -20 1.5 -28.5t27.5 -8.5h53l-22 -105h-122q-46 0 -68.5 30t-12.5 76l14 66q10 46 33 81.5
t72 49.5l-96 27l27 129q49 35 123 63t162 28q72 0 121.5 -24.5t70 -74t3.5 -125.5l-24 -111q-13 -64 4.5 -92t87.5 -28q61 0 95 29.5t47 90.5l69 325h135l-68 -323q-49 -227 -301 -227z" />
    <glyph glyph-name="uni0E0E" unicode="&#xe0e;" horiz-adv-x="658" 
d="M66 -197l22 103q38 17 82 26t95 9q38 0 70 -7t51 -18l87 413q14 63 -5 89.5t-87 26.5q-45 0 -85.5 -13t-67.5 -33l-3 -14l105 -30l-17 -82q-41 -12 -56.5 -33.5t-25.5 -68.5l-8 -37q-15 -71 -52 -102.5t-108 -31.5h-72l22 105h33q20 0 28.5 8t12.5 28l7 31q10 46 30.5 80
t69.5 51l-96 27l27 129q49 35 123 63t162 28q73 0 123.5 -24t71 -73.5t3.5 -126.5l-111 -520h-135q-47 30 -135 30q-39 0 -84 -9.5t-77 -23.5z" />
    <glyph glyph-name="uni0E0E.short" horiz-adv-x="658" 
d="M81 -127l21 103q38 17 82.5 26t95.5 9q38 0 70 -7t51 -18l72 343q14 63 -6.5 89.5t-85.5 26.5q-45 0 -85.5 -13t-67.5 -33l-3 -14l105 -30l-17 -82q-41 -12 -56.5 -33.5t-25.5 -68.5l-8 -37q-15 -71 -55.5 -102.5t-104.5 -31.5h-72l22 105h33q20 0 28.5 8t12.5 28l7 31
q10 46 30.5 80t69.5 51l-96 27l27 129q49 35 123 63t162 28q74 0 124 -24t70.5 -73.5t3.5 -126.5l-96 -450h-124q-25 16 -59 23t-87 7q-39 0 -84 -9.5t-77 -23.5z" />
    <glyph glyph-name="uni0E0F" unicode="&#xe0f;" horiz-adv-x="658" 
d="M337 -195q-37 0 -66 13t-41 35q-16 -21 -40.5 -34t-60.5 -13h-104l28 102h73q29 0 46.5 10t31.5 34h86q2 -22 11 -35t34 -13q48 0 59 51l79 374q14 63 -4 89.5t-88 26.5q-45 0 -85.5 -13t-67.5 -33l-3 -14l105 -30l-17 -82q-41 -12 -56.5 -33.5t-25.5 -68.5l-8 -37
q-16 -74 -56 -104t-104 -30h-72l22 105h33q20 0 28.5 8t12.5 28l7 31q10 46 30.5 80t69.5 51l-96 27l27 129q49 35 123 63t162 28q72 0 122 -24.5t71 -74t5 -125.5l-79 -373q-15 -68 -57.5 -108t-134.5 -40z" />
    <glyph glyph-name="uni0E0F.short" horiz-adv-x="658" 
d="M352 -124q-37 0 -66 13t-41 35q-16 -21 -40.5 -34t-60.5 -13h-104l28 102h73q29 0 47 10t31 34h86q2 -22 11 -35t34 -13q48 0 59 51l64 303q14 63 -5.5 89.5t-86.5 26.5q-45 0 -85.5 -13t-67.5 -33l-3 -14l105 -30l-17 -82q-41 -12 -56.5 -33.5t-25.5 -68.5l-8 -37
q-15 -71 -55.5 -102.5t-104.5 -31.5h-72l22 105h33q20 0 28.5 8t12.5 28l7 31q10 46 30.5 80t69.5 51l-96 27l27 129q49 35 123 63t162 28q75 0 125 -23t70 -72.5t3 -128.5l-64 -302q-15 -68 -62.5 -108t-129.5 -40z" />
    <glyph glyph-name="uni0E10" unicode="&#xe10;" horiz-adv-x="599" 
d="M214 -10q-22 0 -49 4.5t-43 10.5l-33 203h-74l26 96h153l34 -211q60 0 104.5 42.5t64.5 139.5q14 65 8 102t-42 52.5t-112 15.5q-40 0 -86.5 -6.5t-90.5 -19.5l21 100q43 13 98.5 22t114.5 9q26 0 48.5 -2.5t41.5 -7.5h237l-29 -103h-90q31 -63 9 -162
q-31 -139 -113 -212t-198 -73zM246 -209q-40 0 -65.5 13t-37.5 35q-16 -21 -40.5 -34t-60.5 -13h-90l28 102h59q29 0 47 10t31 34h86q2 -22 13 -35t39 -13q55 0 66 51l5 23h112l-5 -25q-15 -68 -59 -108t-128 -40z" />
    <glyph glyph-name="uni0E10.less" horiz-adv-x="599" 
d="M214 -10q-22 0 -49 4.5t-43 10.5l-33 203h-74l26 96h153l34 -211q60 0 104.5 42.5t64.5 139.5q14 65 8 102t-42 52.5t-112 15.5q-40 0 -86.5 -6.5t-90.5 -19.5l21 100q43 13 98.5 22t114.5 9q26 0 48.5 -2.5t41.5 -7.5h237l-29 -103h-90q31 -63 9 -162
q-31 -139 -113 -212t-198 -73z" />
    <glyph glyph-name="uni0E11" unicode="&#xe11;" horiz-adv-x="613" 
d="M18 0l41 197q7 34 27 66t43.5 61.5t42 55t22.5 44.5q3 19 -12 19q-7 0 -14 -3t-14 -8l-8 -41h-85l31 149h89l-6 -28q18 12 36.5 20t46.5 8q39 0 54 -29q26 17 61 28t71 11q84 0 115 -47.5t12 -137.5l-77 -365h-135l76 361q10 46 0 65t-48 19q-16 0 -39 -7t-37 -18
q-7 -31 -23 -57t-35 -51t-35 -53.5t-24 -65.5l-41 -193h-135z" />
    <glyph glyph-name="uni0E12" unicode="&#xe12;" horiz-adv-x="994" 
d="M204 -10q-59 0 -104 29t-64 88.5t0 151.5q29 143 87 217t151 74q43 0 63.5 -14t31.5 -37q23 23 59 37t76 14q71 0 93 -43t7 -113l-51 -243q17 -24 47.5 -40t67.5 -16q53 0 77.5 23.5t35.5 78.5l73 343h135l-74 -351q-20 -94 -76 -146.5t-149 -52.5q-56 0 -95 17t-68 46
l-17 -53h-119l79 373q8 35 4.5 53.5t-30.5 18.5q-18 0 -35 -11.5t-28 -34.5h-65q-5 23 -13.5 34.5t-29.5 11.5q-43 0 -67.5 -51.5t-41.5 -134.5q-19 -91 0.5 -127.5t86.5 -36.5q19 0 38 2t32 6l-21 -99q-19 -7 -42 -10.5t-54 -3.5z" />
    <glyph glyph-name="uni0E13" unicode="&#xe13;" horiz-adv-x="967" 
d="M538 -10q-49 0 -85.5 23.5t-51.5 67.5t-2 108l29 140q14 63 -6.5 89.5t-87.5 26.5q-45 0 -85.5 -13t-67.5 -33l-3 -14l105 -30l-17 -82q-42 -10 -60.5 -32.5t-28.5 -69.5l-6 -29q-4 -20 1.5 -28.5t27.5 -8.5h53l-22 -105h-122q-46 0 -68.5 30t-12.5 76l14 66
q10 46 33 81.5t72 49.5l-96 27l27 129q49 35 123 63t162 28q72 0 122 -23t70.5 -72t2.5 -129l-28 -129q-13 -62 4 -82t72 -20q38 0 75 16t64 40l82 389h135l-114 -540h-124l5 53q-41 -31 -88 -47t-103 -16z" />
    <glyph glyph-name="uni0E14" unicode="&#xe14;" horiz-adv-x="654" 
d="M204 -10q-62 0 -107.5 28t-63 87.5t2.5 153.5q29 138 110 214.5t233 76.5q71 0 118 -20.5t73 -53.5t34 -72.5t0 -77.5l-69 -326h-135l67 317q9 40 4 68.5t-32 44t-84 15.5q-71 0 -121 -46t-70 -140q-19 -91 0 -127.5t87 -36.5q19 0 38 2t32 6l-21 -99q-19 -7 -42 -10.5
t-54 -3.5z" />
    <glyph glyph-name="uni0E15" unicode="&#xe15;" horiz-adv-x="660" 
d="M204 -10q-61 0 -106.5 28t-63.5 87.5t2 153.5q30 143 91 217t157 74q43 0 63 -14t31 -37q25 23 60.5 37t80.5 14q67 0 94 -41t11 -115l-83 -394h-135l79 373q8 37 2 54.5t-33 17.5q-18 0 -35 -11.5t-28 -34.5h-65q-5 23 -13.5 34.5t-29.5 11.5q-45 0 -73 -51.5
t-46 -134.5q-20 -94 -0.5 -129t87.5 -35q19 0 38 2t32 6l-21 -99q-19 -7 -42 -10.5t-54 -3.5z" />
    <glyph glyph-name="uni0E16" unicode="&#xe16;" horiz-adv-x="622" 
d="M109 0q-46 0 -68.5 30t-12.5 76l14 66q10 46 33 81.5t72 49.5l-96 27l27 129q49 35 123 63t162 28q77 0 130 -22.5t75 -71.5t5 -130l-69 -326h-135l69 329q14 63 -6.5 89.5t-97.5 26.5q-45 0 -85.5 -13t-67.5 -33l-3 -14l105 -30l-17 -82q-42 -10 -60.5 -32.5
t-28.5 -69.5l-6 -29q-4 -20 0.5 -28.5t26.5 -8.5h55l-22 -105h-122z" />
    <glyph glyph-name="uni0E17" unicode="&#xe17;" horiz-adv-x="619" 
d="M1 0l114 540h124l-5 -53q42 29 90 46t110 17q83 0 121.5 -54t19.5 -141l-75 -355h-135l73 347q11 52 -2.5 75t-64.5 23q-41 0 -83.5 -16t-69.5 -40l-82 -389h-135z" />
    <glyph glyph-name="uni0E18" unicode="&#xe18;" horiz-adv-x="538" 
d="M215 -10q-68 0 -125 12.5t-93 29.5l43 201h124l-26 -123q33 -15 92 -15q62 0 89 15.5t36 56.5q6 29 -11 44.5t-52 25.5t-83 22q-45 12 -80.5 28t-53 43t-9.5 70q14 72 79 111t193 39q59 0 111.5 -7.5t79.5 -17.5l-23 -108q-30 14 -77.5 21t-94.5 7q-30 0 -61 -3
t-53 -11.5t-26 -26.5q-4 -21 16.5 -32t56.5 -18.5t77 -20.5q74 -22 112 -59t24 -107q-17 -86 -83 -131.5t-182 -45.5z" />
    <glyph glyph-name="uni0E19" unicode="&#xe19;" horiz-adv-x="619" 
d="M185 -10q-51 0 -88.5 23.5t-53 68.5t-2.5 107l74 351h135l-73 -343q-12 -58 6.5 -80t69.5 -22q38 0 77.5 16t66.5 40l82 389h135l-114 -540h-124l5 53q-43 -29 -91.5 -46t-104.5 -17z" />
    <glyph glyph-name="uni0E1A" unicode="&#xe1a;" horiz-adv-x="634" 
d="M255 -10q-115 0 -172.5 61t-35.5 166l68 323h135l-69 -325q-14 -66 8 -93t89 -27q63 0 98.5 29.5t48.5 90.5l69 325h135l-68 -323q-49 -227 -306 -227z" />
    <glyph glyph-name="uni0E1B" unicode="&#xe1b;" horiz-adv-x="634" 
d="M255 -10q-115 0 -172.5 61t-35.5 166l68 323h135l-69 -325q-14 -66 8 -93t89 -27q63 0 98.5 29.5t48.5 90.5l103 485h135l-102 -483q-48 -227 -306 -227z" />
    <glyph glyph-name="uni0E1C" unicode="&#xe1c;" horiz-adv-x="650" 
d="M1 0l92 437q10 45 39.5 74t76.5 29h121l-15 -100h-51q-41 0 -52 -45l-46 -217l155 197h50l71 -197l77 362h127l-114 -540h-124l-84 244l-187 -244h-136z" />
    <glyph glyph-name="uni0E1D" unicode="&#xe1d;" horiz-adv-x="650" 
d="M1 0l92 437q10 45 39.5 74t76.5 29h121l-15 -100h-51q-41 0 -52 -45l-46 -217l155 197h50l71 -197l111 522h127l-148 -700h-124l-84 244l-187 -244h-136z" />
    <glyph glyph-name="uni0E1E" unicode="&#xe1e;" horiz-adv-x="725" 
d="M97 0l-12 540h130l-2 -347l137 261l18 86h94l23 -347l142 347h129l-240 -540h-111l-24 309l-161 -309h-123z" />
    <glyph glyph-name="uni0E1F" unicode="&#xe1f;" horiz-adv-x="725" 
d="M97 0l-12 540h130l-2 -347l137 261l18 86h94l23 -347l202 507h129l-300 -700h-111l-24 309l-161 -309h-123z" />
    <glyph glyph-name="uni0E20" unicode="&#xe20;" horiz-adv-x="630" 
d="M-9 0l22 105h33q20 0 28.5 8t12.5 28l7 31q10 46 30.5 80t69.5 51l-96 27l27 129q49 35 123 63t162 28q110 0 165.5 -56.5t32.5 -167.5l-69 -326h-135l69 329q14 63 -5 89.5t-87 26.5q-45 0 -85.5 -13t-67.5 -33l-3 -14l105 -30l-17 -82q-41 -12 -56.5 -33.5t-25.5 -68.5
l-8 -37q-15 -71 -52 -102.5t-108 -31.5h-72z" />
    <glyph glyph-name="uni0E21" unicode="&#xe21;" horiz-adv-x="619" 
d="M310 -10q-56 0 -97.5 17t-70.5 46l-17 -53h-124l114 540h135l-82 -389q17 -24 48 -40t72 -16q51 0 79 23.5t39 78.5l73 343h135l-74 -351q-20 -94 -79 -146.5t-151 -52.5z" />
    <glyph glyph-name="uni0E22" unicode="&#xe22;" horiz-adv-x="608" 
d="M231 -10q-50 0 -94.5 9t-77 29t-46.5 53.5t-4 82.5q8 35 31 66.5t62 50.5q-26 13 -38.5 41t-4.5 68q17 79 72.5 119.5t140.5 40.5q31 0 52.5 -3.5t37.5 -10.5l-21 -99q-27 8 -67 8q-37 0 -58.5 -12.5t-28.5 -42.5q-7 -33 11.5 -45.5t60.5 -12.5h56l-16 -99h-62
q-85 0 -100 -69q-7 -34 17 -51.5t94 -17.5q68 0 103.5 27t45.5 78l72 340h135l-69 -328q-25 -117 -97 -169.5t-207 -52.5z" />
    <glyph glyph-name="uni0E23" unicode="&#xe23;" horiz-adv-x="503" 
d="M180 -10q-56 0 -105.5 8t-78.5 21l23 109q34 -16 78 -24.5t81 -8.5q65 0 96.5 10t38.5 41q5 24 -8 37t-43 23.5t-76 27.5q-45 17 -76 36.5t-43.5 48t-3.5 70.5q16 72 78 116.5t181 44.5q47 0 92.5 -7t73.5 -17l-23 -108q-30 14 -71 20.5t-75 6.5q-47 0 -83.5 -10.5
t-43.5 -42.5q-4 -20 10.5 -32t45 -22t72.5 -26q78 -28 106.5 -63t14.5 -103q-17 -79 -79.5 -117.5t-181.5 -38.5z" />
    <glyph glyph-name="uni0E24" unicode="&#xe24;" horiz-adv-x="594" 
d="M334 -160l104 489q14 63 -6 89.5t-98 26.5q-45 0 -85.5 -13t-67.5 -33l-3 -14l105 -30l-17 -82q-42 -10 -60.5 -32.5t-28.5 -69.5l-6 -29q-4 -20 0.5 -28.5t26.5 -8.5h55l-22 -105h-122q-46 0 -68.5 30t-12.5 76l14 66q10 46 33 81.5t72 49.5l-96 27l27 129q49 35 123 63
t162 28q79 0 132 -23t74 -72t4 -129l-104 -486h-135z" />
    <glyph glyph-name="uni0E24.short" horiz-adv-x="625" 
d="M345 -110l93 439q14 63 -7.5 89.5t-96.5 26.5q-45 0 -85.5 -13t-67.5 -33l-3 -14l105 -30l-17 -82q-42 -10 -60.5 -32.5t-28.5 -69.5l-6 -29q-4 -20 -1 -28.5t25 -8.5h58l-22 -105h-122q-46 0 -68.5 30t-12.5 76l14 66q10 46 33 81.5t72 49.5l-96 27l27 129q49 35 123 63
t162 28q118 0 176.5 -54t33.5 -170l-93 -436h-135z" />
    <glyph glyph-name="uni0E25" unicode="&#xe25;" horiz-adv-x="601" 
d="M166 -10q-47 0 -86 17.5t-58 55t-7 97.5q17 81 74 124.5t174 43.5h153l6 26q12 53 -9.5 72t-98.5 19q-49 0 -94 -6.5t-91 -20.5l22 101q43 13 99 22t108 9q118 0 167.5 -54.5t28.5 -155.5l-72 -340h-135l48 229h-145q-43 0 -71 -15t-36 -54q-8 -37 8 -51t71 -14
q19 0 39.5 2t33.5 6l-21 -99q-20 -6 -47 -10t-61 -4z" />
    <glyph glyph-name="uni0E26" unicode="&#xe26;" horiz-adv-x="658" 
d="M369 -160l104 489q14 63 -5 89.5t-87 26.5q-45 0 -85.5 -13t-67.5 -33l-3 -14l105 -30l-17 -82q-41 -12 -56.5 -33.5t-25.5 -68.5l-8 -37q-15 -71 -55.5 -102.5t-104.5 -31.5h-72l22 105h33q20 0 28.5 8t12.5 28l7 31q10 46 30.5 80t69.5 51l-96 27l27 129q49 35 123 63
t162 28q73 0 123 -24.5t71 -74t4 -125.5l-104 -486h-135z" />
    <glyph glyph-name="uni0E26.short" horiz-adv-x="658" 
d="M380 -110l93 439q14 63 -6.5 89.5t-85.5 26.5q-45 0 -85.5 -13t-67.5 -33l-3 -14l105 -30l-17 -82q-41 -12 -56.5 -33.5t-25.5 -68.5l-8 -37q-15 -71 -50 -102.5t-110 -31.5h-72l22 105h33q20 0 28.5 8t12.5 28l7 31q10 46 30.5 80t69.5 51l-96 27l27 129q49 35 123 63
t162 28q73 0 123.5 -23.5t71 -73t3.5 -127.5l-93 -436h-135z" />
    <glyph glyph-name="uni0E27" unicode="&#xe27;" horiz-adv-x="491" 
d="M134 -10q-96 0 -165 32l22 103q28 -13 62.5 -21.5t71.5 -8.5q94 0 142.5 39t69.5 136q14 65 7.5 103t-40.5 55t-105 17q-37 0 -74.5 -8t-71.5 -22l22 103q81 32 178 32q128 0 184 -73t28 -207q-19 -91 -57.5 -153.5t-105 -94.5t-168.5 -32z" />
    <glyph glyph-name="uni0E28" unicode="&#xe28;" horiz-adv-x="647" 
d="M1 0l71 335q16 73 50.5 120.5t95.5 71t154 23.5q24 0 45.5 -2.5t40.5 -7.5h217l-29 -103h-75q10 -22 13 -47.5t-3 -54.5l-71 -335h-135l73 345q11 54 -10 77t-88 23t-98.5 -23.5t-42.5 -76.5l-21 -97q22 14 47.5 23t53.5 9h65l-19 -107h-72q-28 0 -51.5 -7.5t-45.5 -21.5
l-30 -144h-135z" />
    <glyph glyph-name="uni0E29" unicode="&#xe29;" horiz-adv-x="654" 
d="M255 -10q-115 0 -172.5 61t-35.5 166l68 323h135l-69 -325q-14 -66 8 -93t89 -27q63 0 98.5 29.5t48.5 90.5l13 61h-115l21 99h115l35 165h135l-35 -165h57l-30 -99h-48l-12 -59q-49 -227 -306 -227z" />
    <glyph glyph-name="uni0E2A" unicode="&#xe2a;" horiz-adv-x="619" 
d="M166 -10q-47 0 -86 17.5t-58 55t-7 97.5q17 81 74 124.5t174 43.5h153l6 26q12 53 -9.5 72t-98.5 19q-49 0 -94 -6.5t-91 -20.5l22 101q43 13 99 22t108 9q25 0 46.5 -2.5t40.5 -7.5h195l-29 -103h-63q19 -39 6 -97l-72 -340h-135l48 229h-145q-43 0 -71 -15t-36 -54
q-8 -37 8 -51t71 -14q19 0 39.5 2t33.5 6l-21 -99q-20 -6 -47 -10t-61 -4z" />
    <glyph glyph-name="uni0E2B" unicode="&#xe2b;" horiz-adv-x="613" 
d="M1 0l114 540h135l-35 -164h134q56 0 78.5 22.5t32.5 68.5l15 73h135l-15 -75q-10 -50 -32 -86.5t-76 -57.5q35 -19 45.5 -51t0.5 -76l-41 -194h-135l39 186q11 51 -4.5 71t-66.5 20h-131l-58 -277h-135z" />
    <glyph glyph-name="uni0E2C" unicode="&#xe2c;" horiz-adv-x="725" 
d="M97 0l-12 540h130l-2 -347l128 221l19 86h94l31 -307l101 236q20 46 11.5 64.5t-43.5 18.5h-40l38 98h46q35 0 55.5 13t35.5 46l13 31h114l-23 -56q-17 -40 -39.5 -62t-57.5 -30q20 -19 22.5 -48t-17.5 -74l-186 -430h-110l-30 279l-155 -279h-123z" />
    <glyph glyph-name="uni0E2C.short" horiz-adv-x="725" 
d="M97 0l-12 540h130l-3 -393l89 131l18 86h94l60 -223l53 148q17 47 9.5 65t-40.5 18h-30l37 98h36q35 0 56 13t35 46l18 42h114l-29 -69q-17 -40 -39 -62t-57 -30q20 -19 22 -48.5t-17 -73.5l-126 -288h-109l-45 209l-140 -209h-124z" />
    <glyph glyph-name="uni0E2D" unicode="&#xe2d;" horiz-adv-x="581" 
d="M208 -10q-64 0 -121 12.5t-93 29.5l61 284h229l-15 -99h-107l-24 -109q18 -6 44 -9.5t50 -3.5q70 0 117 39t67 134q15 68 9 106.5t-42 54.5t-111 16q-44 0 -93 -6.5t-96 -20.5l22 101q48 15 107.5 23t114.5 8q137 0 191.5 -72.5t25.5 -209.5q-19 -89 -55.5 -151.5
t-103.5 -94.5t-177 -32z" />
    <glyph glyph-name="uni0E2E" unicode="&#xe2e;" horiz-adv-x="621" 
d="M208 -10q-64 0 -121 12.5t-93 29.5l61 284h229l-15 -99h-107l-24 -109q18 -6 44 -9.5t50 -3.5q70 0 117 39t67 134q15 68 9 106.5t-42 54.5t-111 16q-44 0 -93 -6.5t-96 -20.5l22 101q48 15 107.5 23t114.5 8q25 0 47.5 -2.5t41.5 -7.5h226l-29 -103h-85q19 -31 23 -74.5
t-7 -94.5q-19 -89 -55.5 -151.5t-103.5 -94.5t-177 -32z" />
    <glyph glyph-name="uni0E30" unicode="&#xe30;" horiz-adv-x="323" 
d="M49 322l31 148h114l-10 -49h139l-25 -99h-249zM-8 54l31 148h114l-10 -49h139l-25 -99h-249z" />
    <glyph glyph-name="uni0E32" unicode="&#xe32;" horiz-adv-x="446" 
d="M192 0l70 332q13 61 -1.5 87t-79.5 26q-33 0 -71 -7.5t-70 -18.5l21 99q32 14 78 23t90 9q104 0 148 -51.5t24 -147.5l-74 -351h-135z" />
    <glyph glyph-name="uni0E33" unicode="&#xe33;" horiz-adv-x="446" 
d="M-56 587q-50 0 -78.5 32.5t-17.5 82.5t51 83t93 33q50 0 78.5 -33t17.5 -83t-51 -82.5t-93 -32.5zM-42 658q18 0 34 13.5t20 30.5q4 18 -4 31.5t-31 13.5q-18 0 -33.5 -13.5t-19.5 -31.5q-4 -17 4 -30.5t30 -13.5zM192 0l70 332q13 61 -1.5 87t-79.5 26q-33 0 -71 -7.5
t-70 -18.5l21 99q32 14 78 23t90 9q104 0 148 -51.5t24 -147.5l-74 -351h-135z" />
    <glyph glyph-name="uni0E40" unicode="&#xe40;" horiz-adv-x="308" 
d="M122 0q-65 0 -86 27t-9 85l91 428h135l-83 -393q-5 -23 -0.5 -32.5t29.5 -9.5h37l-22 -105h-92z" />
    <glyph glyph-name="uni0E41" unicode="&#xe41;" horiz-adv-x="562" 
d="M378 0q-65 0 -86 27t-9 85l91 428h135l-83 -393q-5 -23 -0.5 -32.5t29.5 -9.5h37l-22 -105h-92zM122 0q-65 0 -86 27t-9 85l91 428h135l-83 -393q-5 -23 -0.5 -32.5t29.5 -9.5h37l-22 -105h-92z" />
    <glyph glyph-name="uni0E42" unicode="&#xe42;" horiz-adv-x="313" 
d="M153 0q-65 0 -86 27t-9 85l87 409q13 61 -4 94t-64 50l21 99h327l-22 -105h-157q27 -19 36.5 -52t-1.5 -82l-80 -378q-5 -23 -0.5 -32.5t29.5 -9.5h37l-22 -105h-92z" />
    <glyph glyph-name="uni0E43" unicode="&#xe43;" horiz-adv-x="300" 
d="M105 0q-65 0 -86.5 27t-8.5 85l62 286q11 48 34.5 81t50 56.5t47 42.5t24.5 38q5 25 -7 35.5t-43 10.5q-27 0 -55.5 -8t-56.5 -22l21 97q35 18 79 28t84 10q150 0 126 -115q-9 -41 -32.5 -70.5t-52 -56.5t-52.5 -57.5t-33 -74.5l-53 -246q-5 -23 -0.5 -32.5t29.5 -9.5h37
l-22 -105h-92z" />
    <glyph glyph-name="uni0E44" unicode="&#xe44;" horiz-adv-x="308" 
d="M133 0q-65 0 -86 27t-9 85l85 400q11 53 37.5 89.5t60.5 57.5h-155l22 105h318l-21 -98q-54 -18 -84 -56.5t-44 -103.5l-76 -359q-5 -23 -0.5 -32.5t29.5 -9.5h37l-22 -105h-92z" />
    <glyph glyph-name="uni0E45" unicode="&#xe45;" horiz-adv-x="445" 
d="M157 -160l105 492q13 61 -1.5 87t-79.5 26q-33 0 -71 -7.5t-70 -18.5l21 99q32 14 78 23t90 9q104 0 148 -51.5t24 -147.5l-109 -511h-135z" />
    <glyph glyph-name="uni210A" unicode="&#x210a;" horiz-adv-x="591" 
d="M165 -176q-16 0 -40.5 1.5t-48 4t-37.5 5.5l22 103q20 -6 51 -9.5t53 -3.5q73 0 121 19t58 67l5 25q-61 -36 -143 -36q-62 0 -108 22.5t-66 72t-4 130.5q26 128 98 193.5t182 65.5q50 0 80.5 -14t55.5 -40l17 44h116l-93 -441q-13 -60 -49.5 -107.5t-102.5 -74.5
t-167 -27zM256 99q34 0 62 9.5t52 26.5l44 207q-18 22 -40.5 32.5t-54.5 10.5q-65 0 -100.5 -41.5t-52.5 -117.5q-16 -72 4 -99.5t86 -27.5z" />
    <glyph glyph-name="zero" unicode="0" horiz-adv-x="656" 
d="M266 -26q-153 0 -203 89.5t-16 250.5q23 108 66.5 184t116 116t181.5 40q153 0 203 -89.5t15 -250.5q-22 -107 -65.5 -183.5t-115.5 -116.5t-182 -40zM291 90q87 0 132.5 58t68.5 166q16 74 14 124t-30 75t-90 25q-87 0 -133 -58t-69 -166q-15 -75 -13.5 -124.5
t29.5 -74.5t91 -25z" />
    <glyph glyph-name="one" unicode="1" horiz-adv-x="334" 
d="M86 0l110 522l-108 -17l24 113l248 36l-139 -654h-135z" />
    <glyph glyph-name="two" unicode="2" horiz-adv-x="513" 
d="M-19 0l13 65q40 58 94 104.5t115 92.5q46 35 76 58t48 41t28 37t16 47q10 47 -12 70t-86 23q-40 0 -81.5 -8.5t-80.5 -22.5l26 119q40 13 92.5 20.5t98.5 7.5q105 0 153 -55.5t28 -150.5q-14 -66 -56.5 -112.5t-104.5 -91.5q-49 -36 -93 -69.5t-76 -70.5h263l-22 -104
h-439z" />
    <glyph glyph-name="three" unicode="3" horiz-adv-x="524" 
d="M170 -10q-29 0 -64.5 4t-67.5 11t-53 16l25 118q37 -17 80 -25t85 -8q71 0 110 19.5t49 71.5q9 43 -17.5 61t-83.5 18h-101l31 99h84q113 0 129 81q9 42 -15.5 62.5t-94.5 20.5q-43 0 -87.5 -9t-79.5 -23l25 115q35 14 87.5 23t102.5 9q116 0 168 -50t35 -129
q-10 -47 -40 -88.5t-79 -60.5q48 -16 64.5 -53.5t5.5 -89.5q-21 -99 -98.5 -146t-199.5 -47z" />
    <glyph glyph-name="four" unicode="4" horiz-adv-x="545" 
d="M273 0l28 135h-312l20 92l417 417h118l-85 -400h63l-23 -109h-63l-28 -135h-135zM140 239h206l55 256z" />
    <glyph glyph-name="five" unicode="5" horiz-adv-x="518" 
d="M168 -10q-29 0 -62.5 3.5t-64.5 10.5t-53 17l25 117q32 -15 77.5 -23.5t83.5 -8.5q68 0 106.5 22t49.5 75q7 31 3 51t-26 30t-70 10h-194l16 76l75 274h383l-32 -104h-258l-39 -142h97q107 0 154 -51t27 -149q-20 -95 -90 -151.5t-208 -56.5z" />
    <glyph glyph-name="six" unicode="6" horiz-adv-x="578" 
d="M231 -10q-119 0 -172 63.5t-27 189.5l29 138q17 80 61.5 141.5t115.5 96.5t166 35q50 0 85.5 -6t66.5 -18l-24 -116q-59 25 -144 25q-90 0 -135.5 -36t-58.5 -95l-6 -31q37 23 82 34.5t81 11.5q108 0 154 -56t24 -158q-13 -64 -48.5 -113.5t-96.5 -77.5t-153 -28zM254 90
q72 0 107 31t46 83q8 37 3.5 63t-29 39.5t-76.5 13.5q-33 0 -70 -12t-69 -31l-13 -61q-13 -63 7.5 -94.5t93.5 -31.5z" />
    <glyph glyph-name="seven" unicode="7" horiz-adv-x="498" 
d="M37 0l343 540h-295l22 104h443l-17 -83l-356 -561h-140z" />
    <glyph glyph-name="eight" unicode="8" horiz-adv-x="597" 
d="M239 -10q-127 0 -183.5 47.5t-36.5 141.5q11 52 47 94t89 60q-40 20 -53.5 56t-4.5 77q18 86 88 137t196 51q124 0 173 -51t31 -137q-10 -43 -38.5 -81t-81.5 -59q99 -38 76 -147q-41 -189 -302 -189zM346 367q50 13 75.5 33.5t34.5 62.5q10 45 -11.5 65t-86.5 20
q-58 0 -91 -19.5t-43 -65.5q-15 -68 58 -83zM262 95q68 0 104.5 20t46.5 66q9 41 -9.5 59.5t-65.5 28.5l-74 16q-46 -10 -76 -31.5t-40 -68.5q-10 -49 15.5 -69.5t98.5 -20.5z" />
    <glyph glyph-name="nine" unicode="9" horiz-adv-x="578" 
d="M198 -10q-50 0 -85.5 6t-67.5 18l25 116q59 -25 144 -25q83 0 132 36t62 95l6 31q-37 -22 -82.5 -34t-81.5 -12q-104 0 -151.5 56t-25.5 158q14 65 48 114t95.5 77t154.5 28q122 0 173.5 -65.5t25.5 -187.5l-30 -138q-29 -133 -120 -203t-222 -70zM297 324q33 0 70 12
t69 31l12 61q14 63 -9 94.5t-91 31.5q-64 0 -103 -31t-50 -83q-12 -55 7 -85.5t95 -30.5z" />
    <glyph glyph-name="uni2080" unicode="&#x2080;" horiz-adv-x="360" 
d="M96 -128q-74 0 -102 38t-15 104q15 71 58.5 110.5t120.5 39.5t103.5 -39.5t11.5 -110.5q-13 -66 -57.5 -104t-119.5 -38zM112 -56q33 0 49 17t23 53q9 42 1.5 60t-42.5 18q-34 0 -50 -18t-25 -60q-7 -36 2 -53t42 -17z" />
    <glyph glyph-name="uni2081" unicode="&#x2081;" horiz-adv-x="216" 
d="M2 -120l41 195l-72 -14l16 71l168 32l-60 -284h-93z" />
    <glyph glyph-name="uni2082" unicode="&#x2082;" horiz-adv-x="303" 
d="M-45 -120l9 44q21 23 41.5 38t45.5 33q39 27 55.5 38.5t19.5 26.5q4 17 -6.5 24.5t-38.5 7.5q-18 0 -38 -4.5t-39 -11.5l15 71q17 6 48 11.5t60 5.5q56 0 80 -24.5t17 -59.5q-6 -28 -21 -47t-47 -43q-16 -13 -26 -19.5t-26 -18.5h94l-15 -72h-228z" />
    <glyph glyph-name="uni2083" unicode="&#x2083;" horiz-adv-x="306" 
d="M52 -128q-24 0 -53 4t-43 10l14 63q17 -7 35.5 -10.5t36.5 -3.5q32 0 47 6t18 21q7 29 -45 29h-42l16 56h34q50 0 56 30q2 13 -11.5 18t-37.5 5q-19 0 -38.5 -4t-34.5 -10l13 64q16 5 43 9.5t55 4.5q68 0 92.5 -23t16.5 -58q-4 -21 -16.5 -38t-33.5 -26q21 -7 28 -22.5
t2 -38.5q-20 -86 -152 -86z" />
    <glyph glyph-name="uni2084" unicode="&#x2084;" horiz-adv-x="296" 
d="M74 -120l11 50h-139l13 61l172 173h95l-36 -170h30l-13 -64h-30l-11 -50h-92zM49 -5h70l20 92z" />
    <glyph glyph-name="uni2085" unicode="&#x2085;" horiz-adv-x="303" 
d="M46 -128q-24 0 -50 3t-40 10l14 66q14 -7 34 -10t36 -3q35 0 52 7.5t21 23.5q4 19 -7.5 25.5t-41.5 6.5h-82l11 51l28 102h201l-18 -63h-116l-10 -34h40q102 0 84 -89q-9 -41 -48.5 -68.5t-107.5 -27.5z" />
    <glyph glyph-name="uni2086" unicode="&#x2086;" horiz-adv-x="320" 
d="M78 -128q-57 0 -85 27.5t-16 84.5l13 59q11 56 54.5 88.5t107.5 32.5q23 0 44.5 -3t34.5 -8l-14 -65q-12 5 -32 8t-40 3q-31 0 -51 -12t-25 -31l-1 -6q17 11 36 16t37 5q56 0 73 -25t6 -75q-10 -46 -44.5 -72.5t-97.5 -26.5zM89 -67q24 0 36 10t16 29t-3 28t-31 9
q-13 0 -26 -4.5t-25 -12.5l-4 -16q-9 -43 37 -43z" />
    <glyph glyph-name="uni2087" unicode="&#x2087;" horiz-adv-x="290" 
d="M-10 -120l131 204h-133l15 70h235l-12 -56l-140 -218h-96z" />
    <glyph glyph-name="uni2088" unicode="&#x2088;" horiz-adv-x="332" 
d="M82 -128q-57 0 -88.5 21.5t-22.5 61.5q9 47 57 67q-17 10 -21.5 25.5t-0.5 34.5q8 40 45 61t93 21t84 -21t20 -61q-4 -19 -15 -35t-34 -28q22 -10 28.5 -26t1.5 -38q-9 -40 -49.5 -61.5t-97.5 -21.5zM129 44q20 7 27.5 13.5t11.5 22.5q6 30 -35 30t-47 -30
q-3 -13 1 -20.5t18 -10.5zM94 -74q48 0 54 31q3 14 -3.5 20t-24.5 11l-26 7q-16 -5 -27 -12.5t-14 -24.5q-7 -32 41 -32z" />
    <glyph glyph-name="uni2089" unicode="&#x2089;" horiz-adv-x="320" 
d="M62 -128q-22 0 -43.5 3t-34.5 8l13 65q13 -5 33 -8t40 -3q32 0 51.5 12t23.5 31l2 6q-33 -21 -68 -21q-55 0 -75 25t-10 75q10 46 44.5 72.5t97.5 26.5q126 0 102 -112l-13 -59q-12 -55 -55.5 -88t-107.5 -33zM107 27q13 0 26.5 5t25.5 12l3 16q9 43 -37 43
q-24 0 -35.5 -10t-15.5 -29t2.5 -28t30.5 -9z" />
    <glyph glyph-name="uni2070" unicode="&#x2070;" horiz-adv-x="360" 
d="M200 362q-74 0 -102 38t-14 104q15 71 58.5 110.5t120.5 39.5t103.5 -39.5t11.5 -110.5q-14 -66 -58.5 -104t-119.5 -38zM216 434q33 0 49 17t24 53q9 42 1 60t-43 18q-34 0 -49.5 -18t-24.5 -60q-8 -36 1 -53t42 -17z" />
    <glyph glyph-name="uni00B9" unicode="&#xb9;" horiz-adv-x="194" 
d="M106 370l42 195l-72 -14l15 71l169 32l-61 -284h-93z" />
    <glyph glyph-name="uni00B2" unicode="&#xb2;" horiz-adv-x="303" 
d="M59 370l9 44q21 23 41.5 38t46.5 33q38 27 54.5 38.5t19.5 26.5q4 17 -6.5 24.5t-38.5 7.5q-18 0 -38 -4.5t-39 -11.5l15 71q18 6 49 11.5t60 5.5q56 0 80 -24.5t16 -59.5q-6 -28 -21 -47t-46 -43q-17 -13 -27 -19.5t-26 -18.5h94l-15 -72h-228z" />
    <glyph glyph-name="uni00B3" unicode="&#xb3;" horiz-adv-x="306" 
d="M156 362q-24 0 -53 4t-43 10l14 63q17 -7 35.5 -10.5t36.5 -3.5q32 0 47 6t19 21q6 29 -46 29h-42l17 56h34q49 0 55 30q3 13 -11 18t-38 5q-19 0 -38 -4t-35 -10l14 64q15 5 42.5 9.5t55.5 4.5q68 0 92 -23t16 -58q-4 -21 -16.5 -38t-33.5 -26q21 -7 28 -22.5t2 -38.5
q-18 -86 -152 -86z" />
    <glyph glyph-name="uni2074" unicode="&#x2074;" horiz-adv-x="296" 
d="M178 370l11 50h-139l13 61l173 173h95l-37 -170h30l-13 -64h-30l-11 -50h-92zM154 485h70l19 92z" />
    <glyph glyph-name="uni2075" unicode="&#x2075;" horiz-adv-x="303" 
d="M150 362q-24 0 -50 3t-40 10l14 66q14 -7 34 -10t36 -3q67 0 73 31q4 19 -7.5 25.5t-41.5 6.5h-82l11 51l28 102h201l-18 -63h-116l-10 -34h40q102 0 84 -89q-9 -41 -48.5 -68.5t-107.5 -27.5z" />
    <glyph glyph-name="uni2076" unicode="&#x2076;" horiz-adv-x="320" 
d="M182 362q-57 0 -85 27.5t-16 84.5l13 59q12 56 55.5 88.5t107.5 32.5q23 0 44 -3t34 -8l-14 -65q-12 5 -32 8t-40 3q-31 0 -51 -12t-24 -31l-2 -6q17 11 36 16t37 5q56 0 73 -25t6 -75q-9 -46 -44 -72.5t-98 -26.5zM193 423q24 0 36 10t16 29t-2.5 28t-30.5 9
q-13 0 -26.5 -4.5t-25.5 -12.5l-3 -16q-4 -21 3.5 -32t32.5 -11z" />
    <glyph glyph-name="uni2077" unicode="&#x2077;" horiz-adv-x="290" 
d="M94 370l132 204h-133l14 70h235l-12 -56l-140 -218h-96z" />
    <glyph glyph-name="uni2078" unicode="&#x2078;" horiz-adv-x="332" 
d="M186 362q-57 0 -88 21.5t-23 61.5q9 46 57 67q-17 10 -21.5 25.5t-0.5 34.5q8 40 45.5 61t93.5 21t83.5 -21t19.5 -61q-4 -19 -15 -35t-34 -28q22 -10 28.5 -26t1.5 -38q-8 -40 -49 -61.5t-98 -21.5zM233 534q20 7 27.5 13.5t11.5 22.5q6 30 -35 30t-47 -30
q-3 -13 1 -20.5t18 -10.5zM198 416q48 0 55 31q2 14 -4 20t-25 11l-25 7q-17 -5 -27.5 -12.5t-14.5 -24.5q-7 -32 41 -32z" />
    <glyph glyph-name="uni2079" unicode="&#x2079;" horiz-adv-x="320" 
d="M166 362q-22 0 -43.5 3t-34.5 8l14 65q12 -5 32 -8t40 -3q32 0 51.5 12t23.5 31l2 6q-33 -21 -68 -21q-55 0 -75 25t-10 75q10 46 45 72.5t98 26.5q125 0 101 -112l-13 -59q-12 -55 -55.5 -88t-107.5 -33zM211 517q13 0 26.5 5t25.5 12l3 16q5 21 -3 32t-33 11
q-24 0 -35.5 -10t-16.5 -29q-4 -19 2.5 -28t30.5 -9z" />
    <glyph glyph-name="fraction" unicode="&#x2044;" horiz-adv-x="169" 
d="M-199 0l457 662h137l-456 -662h-138z" />
    <glyph glyph-name="onehalf" unicode="&#xbd;" horiz-adv-x="673" 
d="M128 370l42 195l-72 -14l15 71l169 32l-61 -284h-93zM33 0l475 644h128l-476 -644h-127zM331 0l9 44q20 23 41 38t46 33q39 27 55.5 38.5t19.5 26.5q3 17 -7 24.5t-38 7.5q-18 0 -38.5 -4.5t-39.5 -11.5l15 71q18 6 49 11.5t60 5.5q56 0 80 -24.5t16 -59.5
q-6 -28 -20.5 -47t-46.5 -43q-17 -13 -27 -19.5t-25 -18.5h94l-15 -72h-228z" />
    <glyph glyph-name="uni2153" unicode="&#x2153;" horiz-adv-x="684" 
d="M128 370l42 195l-72 -14l15 71l169 32l-61 -284h-93zM33 0l475 644h128l-476 -644h-127zM428 -8q-24 0 -53 4t-43 10l13 63q17 -7 35.5 -10.5t36.5 -3.5q32 0 47.5 6t18.5 21q6 29 -46 29h-42l17 56h34q49 0 55 30q3 13 -11 18t-38 5q-19 0 -38 -4t-35 -10l14 64
q15 5 42.5 9.5t55.5 4.5q68 0 92.5 -23t16.5 -58q-4 -21 -16.5 -38t-34.5 -26q21 -7 28 -22.5t2 -38.5q-18 -86 -151 -86z" />
    <glyph glyph-name="uni2154" unicode="&#x2154;" horiz-adv-x="721" 
d="M59 370l9 44q21 23 41.5 38t46.5 33q38 27 54.5 38.5t19.5 26.5q4 17 -6.5 24.5t-38.5 7.5q-18 0 -38 -4.5t-39 -11.5l15 71q18 6 49 11.5t60 5.5q56 0 80 -24.5t16 -59.5q-6 -28 -21 -47t-46 -43q-17 -13 -27 -19.5t-26 -18.5h94l-15 -72h-228zM33 0l475 644h128
l-476 -644h-127zM428 -8q-24 0 -53 4t-43 10l13 63q17 -7 35.5 -10.5t36.5 -3.5q32 0 47.5 6t18.5 21q6 29 -46 29h-42l17 56h34q49 0 55 30q3 13 -11 18t-38 5q-19 0 -38 -4t-35 -10l14 64q15 5 42.5 9.5t55.5 4.5q68 0 92.5 -23t16.5 -58q-4 -21 -16.5 -38t-34.5 -26
q21 -7 28 -22.5t2 -38.5q-18 -86 -151 -86z" />
    <glyph glyph-name="onequarter" unicode="&#xbc;" horiz-adv-x="657" 
d="M128 370l42 195l-72 -14l15 71l169 32l-61 -284h-93zM33 0l475 644h128l-476 -644h-127zM441 0l10 50h-139l13 61l173 173h95l-36 -170h30l-14 -64h-30l-10 -50h-92zM416 115h70l19 92z" />
    <glyph glyph-name="threequarters" unicode="&#xbe;" horiz-adv-x="679" 
d="M156 362q-24 0 -53 4t-43 10l14 63q17 -7 35.5 -10.5t36.5 -3.5q32 0 47 6t19 21q6 29 -46 29h-42l17 56h34q49 0 55 30q3 13 -11 18t-38 5q-19 0 -38 -4t-35 -10l14 64q15 5 42.5 9.5t55.5 4.5q68 0 92 -23t16 -58q-4 -21 -16.5 -38t-33.5 -26q21 -7 28 -22.5t2 -38.5
q-18 -86 -152 -86zM33 0l475 644h128l-476 -644h-127zM441 0l10 50h-139l13 61l173 173h95l-36 -170h30l-14 -64h-30l-10 -50h-92zM416 115h70l19 92z" />
    <glyph glyph-name="oneeighth" unicode="&#x215b;" horiz-adv-x="685" 
d="M128 370l42 195l-72 -14l15 71l169 32l-61 -284h-93zM33 0l475 644h128l-476 -644h-127zM437 -10q-57 0 -88 21.5t-23 61.5q9 47 57 67q-17 10 -21.5 25.5t-0.5 34.5q8 40 45 61t93 21t84 -21t20 -61q-4 -19 -15 -35t-34 -28q22 -10 28.5 -26t1.5 -38q-8 -40 -49 -61.5
t-98 -21.5zM484 162q20 7 27.5 13.5t11.5 22.5q6 30 -35 30t-47 -30q-3 -13 1 -20.5t18 -10.5zM449 44q48 0 54 31q3 14 -3 20t-25 11l-25 7q-17 -5 -27.5 -12.5t-14.5 -24.5q-7 -32 41 -32z" />
    <glyph glyph-name="threeeighths" unicode="&#x215c;" horiz-adv-x="699" 
d="M156 362q-24 0 -53 4t-43 10l14 63q17 -7 35.5 -10.5t36.5 -3.5q32 0 47 6t19 21q6 29 -46 29h-42l17 56h34q49 0 55 30q3 13 -11 18t-38 5q-19 0 -38 -4t-35 -10l14 64q15 5 42.5 9.5t55.5 4.5q68 0 92 -23t16 -58q-4 -21 -16.5 -38t-33.5 -26q21 -7 28 -22.5t2 -38.5
q-18 -86 -152 -86zM33 0l475 644h128l-476 -644h-127zM437 -10q-57 0 -88 21.5t-23 61.5q9 47 57 67q-17 10 -21.5 25.5t-0.5 34.5q8 40 45 61t93 21t84 -21t20 -61q-4 -19 -15 -35t-34 -28q22 -10 28.5 -26t1.5 -38q-8 -40 -49 -61.5t-98 -21.5zM484 162q20 7 27.5 13.5
t11.5 22.5q6 30 -35 30t-47 -30q-3 -13 1 -20.5t18 -10.5zM449 44q48 0 54 31q3 14 -3 20t-25 11l-25 7q-17 -5 -27.5 -12.5t-14.5 -24.5q-7 -32 41 -32z" />
    <glyph glyph-name="fiveeighths" unicode="&#x215d;" horiz-adv-x="679" 
d="M33 0l475 644h128l-476 -644h-127zM150 362q-24 0 -50 3t-40 10l14 66q14 -7 34 -10t36 -3q67 0 73 31q4 19 -7.5 25.5t-41.5 6.5h-82l11 51l28 102h201l-18 -63h-116l-10 -34h40q102 0 84 -89q-9 -41 -48.5 -68.5t-107.5 -27.5zM437 -10q-57 0 -88 21.5t-23 61.5
q9 47 57 67q-17 10 -21.5 25.5t-0.5 34.5q8 40 45 61t93 21t84 -21t20 -61q-4 -19 -15 -35t-34 -28q22 -10 28.5 -26t1.5 -38q-8 -40 -49 -61.5t-98 -21.5zM484 162q20 7 27.5 13.5t11.5 22.5q6 30 -35 30t-47 -30q-3 -13 1 -20.5t18 -10.5zM449 44q48 0 54 31q3 14 -3 20
t-25 11l-25 7q-17 -5 -27.5 -12.5t-14.5 -24.5q-7 -32 41 -32z" />
    <glyph glyph-name="seveneighths" unicode="&#x215e;" horiz-adv-x="687" 
d="M33 0l475 644h128l-476 -644h-127zM104 370l132 204h-133l14 70h235l-12 -56l-140 -218h-96zM437 -10q-57 0 -88 21.5t-23 61.5q9 47 57 67q-17 10 -21.5 25.5t-0.5 34.5q8 40 45 61t93 21t84 -21t20 -61q-4 -19 -15 -35t-34 -28q22 -10 28.5 -26t1.5 -38
q-8 -40 -49 -61.5t-98 -21.5zM484 162q20 7 27.5 13.5t11.5 22.5q6 30 -35 30t-47 -30q-3 -13 1 -20.5t18 -10.5zM449 44q48 0 54 31q3 14 -3 20t-25 11l-25 7q-17 -5 -27.5 -12.5t-14.5 -24.5q-7 -32 41 -32z" />
    <glyph glyph-name="uni0E50" unicode="&#xe50;" horiz-adv-x="610" 
d="M246 -10q-74 0 -129.5 27t-79.5 81.5t-6 138.5t63.5 138.5t112 81.5t144.5 27q76 0 130.5 -27t78.5 -81.5t6 -138.5t-63.5 -138.5t-111.5 -81.5t-145 -27zM269 95q68 0 110.5 33t58.5 109q16 75 -8.5 108.5t-100.5 33.5q-67 0 -110.5 -33.5t-59.5 -108.5q-16 -76 9 -109
t101 -33z" />
    <glyph glyph-name="uni0E51" unicode="&#xe51;" horiz-adv-x="634" 
d="M219 -106l24 111q100 24 149 76.5t67 139.5q17 77 -8 117.5t-111 40.5q-78 0 -120.5 -29.5t-56.5 -92.5q-11 -55 5 -78.5t75 -23.5q20 0 47 5t45 15l-21 -98q-23 -12 -53.5 -19.5t-69.5 -7.5q-87 0 -132 54t-24 152q23 110 103.5 169t223.5 59q136 0 194 -68.5t31 -197.5
q-17 -79 -64.5 -145t-123.5 -112.5t-180 -66.5z" />
    <glyph glyph-name="uni0E52" unicode="&#xe52;" horiz-adv-x="710" 
d="M307 -10q-88 0 -151.5 30.5t-91.5 87t-12 133.5l63 299h118l-62 -293q-11 -52 -2 -86.5t46.5 -51.5t113.5 -17q80 0 131 33t66 102l24 116q11 47 -23 47q-22 0 -33 -17t-19 -37h-73q-1 20 -4.5 37t-24.5 17q-22 0 -34 -18.5t-21 -59.5q-8 -37 3.5 -51t54.5 -14q34 0 61 9
l-17 -80q-18 -7 -37.5 -10.5t-44.5 -3.5q-40 0 -71.5 15.5t-45.5 49t-3 85.5q20 92 57.5 132t97.5 40q33 0 54 -11t32 -37q26 26 57 37t61 11q62 0 84 -36t9 -96l-25 -117q-25 -117 -107 -181t-231 -64z" />
    <glyph glyph-name="uni0E53" unicode="&#xe53;" horiz-adv-x="643" 
d="M195 -10q-59 0 -103 23.5t-62.5 75.5t-1.5 136q27 136 88 197.5t143 61.5q71 0 100 -53q56 53 132 53q67 0 98.5 -38.5t18.5 -97.5l-73 -348h-131l69 326q6 30 -1 41.5t-31 11.5q-43 0 -54 -47l-18 -83h-97l18 84q5 23 -5.5 34.5t-30.5 11.5q-37 0 -60.5 -36t-41.5 -119
q-11 -52 -6.5 -80t28 -38.5t68.5 -10.5q19 0 38 2t32 6l-21 -99q-19 -7 -42 -10.5t-54 -3.5z" />
    <glyph glyph-name="uni0E54" unicode="&#xe54;" horiz-adv-x="626" 
d="M213 -10q-65 0 -113 25.5t-68.5 77t-3.5 130.5q18 84 61.5 142t121 88.5t197.5 30.5q79 0 134 8t104 34l-22 -103q-38 -22 -99 -31t-132 -9q-106 0 -164.5 -37.5t-76.5 -122.5q-15 -71 3.5 -101t91.5 -30q18 0 38 7q-4 14 -4.5 29.5t3.5 32.5q14 68 61 105.5t132 37.5
q65 0 101 -20l-19 -88q-14 8 -32 12t-36 4q-38 0 -62 -10.5t-30 -42.5q-7 -38 14 -46.5t67 -8.5h95l-22 -104h-87q-69 0 -115 23q-34 -18 -68.5 -25.5t-69.5 -7.5z" />
    <glyph glyph-name="uni0E55" unicode="&#xe55;" horiz-adv-x="621" 
d="M213 -10q-65 0 -113 25.5t-68.5 77t-3.5 130.5q18 88 71 143t151 85q-19 5 -36.5 15.5t-25.5 17.5l26 82q16 -18 49 -37t73.5 -32t78.5 -13q76 0 129.5 8.5t101.5 33.5l-22 -103q-38 -22 -99 -31t-132 -9q-106 0 -164.5 -37.5t-76.5 -122.5q-15 -71 3.5 -101t85.5 -30
q11 0 22.5 2t21.5 5q-4 14 -4.5 29.5t3.5 32.5q14 68 61 105.5t132 37.5q65 0 101 -20l-19 -88q-14 8 -32 12t-36 4q-38 0 -62 -10.5t-30 -42.5q-7 -38 14 -46.5t67 -8.5h95l-22 -104h-87q-69 0 -115 23q-34 -18 -68.5 -25.5t-69.5 -7.5z" />
    <glyph glyph-name="uni0E56" unicode="&#xe56;" horiz-adv-x="643" 
d="M269 -10q-53 0 -98 12.5t-79 38.5l22 102q38 -27 79.5 -37.5t87.5 -10.5q77 0 126 34t65 108q15 72 -6.5 107t-91.5 35q-55 0 -101.5 -31t-71.5 -87h-90l-36 279h116l16 -143q37 41 91 64t116 23q80 0 126 -32t60.5 -87.5t-0.5 -127.5q-25 -116 -109 -181.5t-222 -65.5z
" />
    <glyph glyph-name="uni0E57" unicode="&#xe57;" horiz-adv-x="850" 
d="M195 -10q-58 0 -102.5 23t-63.5 74.5t-1 137.5q29 135 83.5 197t140.5 62q41 0 64 -13t37 -40q26 29 60.5 41t70.5 12q71 0 97 -36.5t12 -101.5l-52 -246h17q48 0 68.5 20t31.5 72l74 348h118l-69 -325q-15 -74 -42 -121.5t-75 -70.5t-126 -23h-133l69 326q6 29 -1 41
t-34 12q-18 0 -34 -12t-21 -35l-18 -83h-108l18 83q5 23 -3.5 35t-28.5 12q-39 0 -58.5 -42t-34.5 -113q-12 -56 -6 -84.5t31 -38.5t68 -10q16 0 36.5 2t34.5 6l-21 -95q-39 -14 -99 -14z" />
    <glyph glyph-name="uni0E58" unicode="&#xe58;" horiz-adv-x="627" 
d="M152 -10q-47 0 -81 26t-46.5 78.5t4.5 131.5q27 128 112.5 193t254.5 65q82 0 141 8t109 34l-22 -103q-43 -22 -106 -31t-140 -9q-72 0 -117 -15t-70.5 -49.5t-37.5 -92.5q-17 -79 -6.5 -106.5t47.5 -27.5q23 0 41.5 12t23.5 35l16 73h91l-16 -74q-5 -24 11 -35t35 -11
q20 0 32 4.5t24 14.5l24 111h-58l22 79h157l-55 -262q-31 -24 -65 -36.5t-81 -12.5q-76 0 -106 52q-26 -27 -61.5 -39.5t-76.5 -12.5z" />
    <glyph glyph-name="uni0E59" unicode="&#xe59;" horiz-adv-x="743" 
d="M168 -10q-52 0 -90 24.5t-52.5 77t3.5 134.5q28 132 83.5 195t151.5 63q78 0 97 -54q23 26 56 40t70 14q54 0 87 -27t23 -74l-3 -16h6q26 0 40.5 13t23.5 55l18 85h98l-12 -58q-16 -73 -39.5 -113.5t-62.5 -56.5t-103 -16h-78l8 38q8 34 3 49.5t-33 15.5q-26 0 -39.5 -16
t-11.5 -45l26 -318h-116l-28 332q-2 23 -10.5 35t-37.5 12q-31 0 -53.5 -36t-40.5 -120q-16 -76 -4.5 -103.5t63.5 -27.5q27 0 54 7l-22 -102q-31 -7 -75 -7z" />
    <glyph glyph-name="period" unicode="." horiz-adv-x="184" 
d="M-19 0l21 101h110l-21 -101h-110z" />
    <glyph glyph-name="comma" unicode="," horiz-adv-x="221" 
d="M-45 -120l74 201h116l-93 -201h-97z" />
    <glyph glyph-name="colon" unicode=":" horiz-adv-x="185" 
d="M49 323l22 103h110l-22 -103h-110zM-15 23l22 103h110l-22 -103h-110z" />
    <glyph glyph-name="semicolon" unicode=";" horiz-adv-x="222" 
d="M84 323l22 103h110l-22 -103h-110zM-45 -120l74 201h116l-93 -201h-97z" />
    <glyph glyph-name="ellipsis" unicode="&#x2026;" horiz-adv-x="587" 
d="M384 0l21 101h110l-21 -101h-110zM-19 0l21 101h110l-21 -101h-110zM183 0l21 101h109l-21 -101h-109z" />
    <glyph glyph-name="exclam" unicode="!" horiz-adv-x="216" 
d="M26 169l60 310l35 165h135l-35 -165l-72 -310h-123zM-19 0l21 99h142l-21 -99h-142z" />
    <glyph glyph-name="exclamdown" unicode="&#xa1;" horiz-adv-x="216" 
d="M60 375l21 99h142l-21 -99h-142zM-52 -170l35 165l72 310h123l-60 -310l-35 -165h-135z" />
    <glyph glyph-name="question" unicode="?" horiz-adv-x="497" 
d="M123 170l4 20q8 40 32.5 69t56 52.5t63 44.5t54.5 44t29 53q10 47 -12.5 66t-98.5 19q-40 0 -85.5 -10.5t-78.5 -25.5l24 114q39 17 92 27.5t109 10.5q107 0 157.5 -50t32.5 -137q-12 -57 -44 -91t-83 -69q-46 -32 -75.5 -56.5t-38.5 -65.5l-3 -15h-135zM83 0l21 99h142
l-21 -99h-142z" />
    <glyph glyph-name="questiondown" unicode="&#xbf;" horiz-adv-x="497" 
d="M238 375l21 99h142l-21 -99h-142zM172 -180q-106 0 -157 50t-33 137q12 57 44 91t83 69q47 32 76.5 56.5t37.5 65.5l3 15h135l-4 -20q-8 -40 -32.5 -69t-56 -52.5t-63 -44.5t-54.5 -44t-29 -53q-10 -47 12.5 -66t98.5 -19q40 0 85.5 10.5t78.5 25.5l-24 -114
q-39 -17 -92 -27.5t-109 -10.5z" />
    <glyph glyph-name="periodcentered" unicode="&#xb7;" horiz-adv-x="184" 
d="M30 235l22 101h110l-22 -101h-110z" />
    <glyph glyph-name="bullet" unicode="&#x2022;" horiz-adv-x="330" 
d="M142 160q-53 0 -82.5 37t-17.5 90q8 36 31 65t55.5 46t67.5 17q36 0 61 -17t36.5 -46t3.5 -65t-31.5 -64.5t-55.5 -45.5t-68 -17z" />
    <glyph glyph-name="asterisk" unicode="*" horiz-adv-x="436" 
d="M156 312l-71 62l104 91l-101 46l59 78l83 -48l17 103h102l-27 -103l105 48l22 -83l-121 -46l66 -91l-85 -57l-55 102z" />
    <glyph glyph-name="numbersign" unicode="#" horiz-adv-x="705" 
d="M6 0l86 165h-76l18 89h105l71 136h-103l20 90h131l86 164h117l-86 -164h149l86 164h117l-86 -164h73l-20 -90h-101l-71 -136h99l-18 -89h-128l-87 -165h-116l86 165h-149l-87 -165h-116zM256 254h149l71 136h-149z" />
    <glyph glyph-name="slash" unicode="/" horiz-adv-x="446" 
d="M-19 0l374 662h138l-374 -662h-138z" />
    <glyph glyph-name="backslash" unicode="\" horiz-adv-x="467" 
d="M222 -54l-101 716h140l100 -716h-139z" />
    <glyph glyph-name="uni208D" unicode="&#x208d;" horiz-adv-x="221" 
d="M4 -146q-20 29 -25 72.5t5 89.5t33 89.5t56 72.5h92q-40 -33 -64 -75.5t-33 -86.5q-10 -45 -4 -87.5t32 -74.5h-92z" />
    <glyph glyph-name="uni208E" unicode="&#x208e;" horiz-adv-x="221" 
d="M-51 -146q41 32 64.5 74.5t33.5 87.5q9 44 3.5 86.5t-32.5 75.5h92q21 -29 26 -72.5t-5 -89.5t-33 -89.5t-57 -72.5h-92z" />
    <glyph glyph-name="parenleft" unicode="(" horiz-adv-x="340" 
d="M97 -72q-37 44 -53.5 104t-15 130t16.5 141t43 140.5t70.5 130.5t98.5 104h153q-94 -70 -149 -166t-79 -209q-24 -114 -10 -209t78 -166h-153z" />
    <glyph glyph-name="parenright" unicode=")" horiz-adv-x="340" 
d="M-55 -72q95 71 149.5 166t78.5 209q24 113 10.5 209t-78.5 166h154q37 -43 53 -104t14.5 -130.5t-16.5 -140.5t-43 -141t-70 -130t-98 -104h-154z" />
    <glyph glyph-name="braceleft" unicode="{" horiz-adv-x="312" 
d="M122 -104q-73 0 -91.5 27.5t-5.5 88.5l34 162q9 39 0 59.5t-44 24.5l18 81q41 5 57 29.5t26 72.5l31 144q13 62 43.5 89t103.5 27h83l-23 -104h-24q-28 0 -39.5 -12.5t-17.5 -41.5l-32 -151q-7 -30 -25 -55.5t-48 -38.5q25 -13 32.5 -38t0.5 -55l-32 -151q-6 -28 0.5 -41
t34.5 -13h24l-23 -104h-83z" />
    <glyph glyph-name="braceright" unicode="}" horiz-adv-x="312" 
d="M-52 -104l23 104h24q29 0 40 13t17 41l32 151q7 30 24.5 55t48.5 38q-25 13 -32.5 38.5t-0.5 55.5l32 151q6 29 0 41.5t-35 12.5h-24l23 104h83q73 0 91.5 -27t5.5 -89l-31 -144q-10 -48 -4.5 -72.5t45.5 -29.5l-18 -81q-36 -4 -53.5 -24.5t-26.5 -59.5l-34 -162
q-13 -61 -43.5 -88.5t-103.5 -27.5h-83z" />
    <glyph glyph-name="bracketleft" unicode="[" horiz-adv-x="359" 
d="M-41 -99l172 805h290l-19 -105h-159l-126 -596h160l-27 -104h-291z" />
    <glyph glyph-name="bracketright" unicode="]" horiz-adv-x="359" 
d="M-47 -99l19 104h160l126 596h-159l27 105h290l-172 -805h-291z" />
    <glyph glyph-name="uni207D" unicode="&#x207d;" horiz-adv-x="221" 
d="M110 352q-21 29 -25.5 72.5t5.5 89.5t33 89.5t56 72.5h92q-40 -33 -64 -75.5t-33 -86.5q-10 -45 -4.5 -87.5t32.5 -74.5h-92z" />
    <glyph glyph-name="uni207E" unicode="&#x207e;" horiz-adv-x="221" 
d="M55 352q41 32 64.5 74.5t33.5 87.5q9 44 3.5 86.5t-32.5 75.5h92q21 -29 26 -72.5t-5 -89.5t-33.5 -89.5t-56.5 -72.5h-92z" />
    <glyph glyph-name="hyphen" unicode="-" horiz-adv-x="460" 
d="M27 219l22 105h386l-22 -105h-386z" />
    <glyph glyph-name="uni00AD" unicode="&#xad;" horiz-adv-x="460" 
d="M27 219l22 105h386l-22 -105h-386z" />
    <glyph glyph-name="endash" unicode="&#x2013;" horiz-adv-x="566" 
d="M27 219l22 105h492l-22 -105h-492z" />
    <glyph glyph-name="emdash" unicode="&#x2014;" horiz-adv-x="839" 
d="M27 219l22 105h765l-22 -105h-765z" />
    <glyph glyph-name="figuredash" unicode="&#x2012;" horiz-adv-x="593" 
d="M27 219l22 105h519l-22 -105h-519z" />
    <glyph glyph-name="uni2015" unicode="&#x2015;" horiz-adv-x="883" 
d="M27 219l22 105h809l-22 -105h-809z" />
    <glyph glyph-name="uni2010" unicode="&#x2010;" horiz-adv-x="497" 
d="M27 219l22 105h422l-22 -105h-422z" />
    <glyph glyph-name="underscore" unicode="_" horiz-adv-x="533" 
d="M-39 -90l20 90h459l-20 -90h-459z" />
    <glyph glyph-name="quotesinglbase" unicode="&#x201a;" horiz-adv-x="246" 
d="M-56 -173l100 206h116l-114 -206h-102z" />
    <glyph glyph-name="quotedblbase" unicode="&#x201e;" horiz-adv-x="393" 
d="M-43 -110l100 206h106l-114 -206h-92zM114 -110l99 206h106l-114 -206h-91z" />
    <glyph glyph-name="quotedblleft" unicode="&#x201c;" horiz-adv-x="393" 
d="M76 448l114 206h92l-100 -206h-106zM233 448l114 206h91l-99 -206h-106z" />
    <glyph glyph-name="quotedblright" unicode="&#x201d;" horiz-adv-x="393" 
d="M76 448l100 206h106l-114 -206h-92zM233 448l99 206h106l-114 -206h-91z" />
    <glyph glyph-name="quoteleft" unicode="&#x2018;" horiz-adv-x="246" 
d="M76 448l114 206h102l-100 -206h-116z" />
    <glyph glyph-name="quoteright" unicode="&#x2019;" horiz-adv-x="246" 
d="M76 448l100 206h116l-114 -206h-102z" />
    <glyph glyph-name="guillemotleft" unicode="&#xab;" horiz-adv-x="639" 
d="M507 66l-221 193l11 53l303 193l36 -81l-225 -144l163 -144zM257 66l-221 193l11 53l303 193l36 -81l-225 -144l163 -144z" />
    <glyph glyph-name="guillemotright" unicode="&#xbb;" horiz-adv-x="639" 
d="M297 66l-37 80l225 144l-163 144l68 71l221 -193l-11 -53zM47 66l-37 80l225 144l-163 144l68 71l221 -193l-11 -53z" />
    <glyph glyph-name="guilsinglleft" unicode="&#x2039;" horiz-adv-x="389" 
d="M257 66l-221 193l11 53l303 193l36 -81l-225 -144l163 -144z" />
    <glyph glyph-name="guilsinglright" unicode="&#x203a;" horiz-adv-x="389" 
d="M47 66l-37 80l225 144l-163 144l68 71l221 -193l-11 -53z" />
    <glyph glyph-name="quotedbl" unicode="&#x22;" horiz-adv-x="361" 
d="M248 443l42 201h114l-56 -201h-100zM75 443l42 201h114l-56 -201h-100z" />
    <glyph glyph-name="quotesingle" unicode="'" horiz-adv-x="188" 
d="M75 443l42 201h114l-56 -201h-100z" />
    <glyph glyph-name="uni0E5A" unicode="&#xe5a;" horiz-adv-x="952" 
d="M346 0l52 246q-28 -14 -65.5 -24t-75.5 -10q-62 0 -105.5 22t-62 63.5t-5.5 99.5q8 38 24.5 73.5t39.5 69.5h130q-50 -69 -64 -134q-10 -49 9 -72t74 -23q38 0 67 8.5t55 25.5l41 195h135l-38 -181q11 -23 37.5 -35.5t55.5 -12.5q38 0 67 8.5t55 25.5l41 195h135
l-114 -540h-135l52 246q-28 -14 -65.5 -24t-75.5 -10q-20 0 -43 5.5t-37 17.5l-49 -235h-135z" />
    <glyph glyph-name="uni0E4F" unicode="&#xe4f;" horiz-adv-x="599" 
d="M240 -10q-72 0 -124.5 35t-75 94.5t-6.5 132.5q17 74 63.5 133.5t113 94t141.5 34.5q73 0 125 -35.5t74.5 -95t6.5 -131.5q-16 -74 -62.5 -133.5t-113 -94t-142.5 -34.5zM259 78q48 0 92.5 23.5t76.5 63t42 87.5t1 87.5t-42.5 63t-95.5 23.5q-48 0 -92.5 -23.5t-76.5 -63
t-42 -87.5t-1.5 -87.5t42 -63t96.5 -23.5zM269 126q-34 0 -59 17t-35.5 45.5t-3.5 63.5q8 35 31 63t55 45t66 17q35 0 59.5 -17t35.5 -45t3 -63q-7 -35 -30 -63.5t-55 -45.5t-67 -17zM284 197q23 0 42.5 16t24.5 39t-5 38.5t-38 15.5q-23 0 -42 -15.5t-24 -38.5t4.5 -39
t37.5 -16z" />
    <glyph glyph-name="uni0E5B" unicode="&#xe5b;" horiz-adv-x="1149" 
d="M265 22q-79 0 -135.5 31.5t-81 91t-6.5 144.5q16 75 52.5 134t94.5 93t140 34q102 0 148.5 -50t28.5 -136q-17 -79 -67.5 -124.5t-127.5 -65.5l19 89q43 18 61.5 39.5t25.5 58.5q11 50 -8.5 78.5t-90.5 28.5q-70 0 -113.5 -50t-59.5 -124q-13 -60 -6.5 -101t41 -62
t104.5 -21q109 0 180 62t93 170q8 35 12 66t5 60h97q15 -37 24 -82t10 -88h2q11 20 23.5 48t23 56t14.5 48h68q7 -25 13.5 -65.5t7.5 -78.5h2q14 24 30 61.5t25 66.5h58q8 -22 12.5 -57.5t3.5 -61.5h2q29 39 39 99h60q-2 -14 -5.5 -29.5t-8.5 -26.5h56l-20 -71h-68
q-10 -22 -23 -40.5t-30 -39.5h-51q1 12 -0.5 31t-4.5 38t-7 31h-2q-4 -13 -14 -36.5t-21.5 -47.5t-21.5 -39h-70q2 32 -3 70t-13 66h-2q-10 -32 -30.5 -77t-40.5 -81h-69q5 38 4 84t-9 79h-2q-19 -90 -67.5 -158.5t-123.5 -106.5t-177 -38z" />
    <glyph glyph-name="uni0E46" unicode="&#xe46;" horiz-adv-x="628" 
d="M375 0l84 399q5 22 0.5 34t-27.5 12q-32 0 -59 -46h-52q-2 22 -8.5 34t-25.5 12q-25 0 -42 -23.5t-25 -64.5q-9 -45 2.5 -64t56.5 -19q19 0 38 2t32 6l-21 -99q-19 -7 -42 -10.5t-54 -3.5q-54 0 -94 21.5t-57.5 63.5t-4.5 103q10 45 34 89.5t65 74t101 29.5
q35 0 57 -11.5t37 -38.5q29 27 61 38.5t65 11.5q64 0 89 -39t9 -113l-84 -398h-135z" />
    <glyph glyph-name="uni0E2F" unicode="&#xe2f;" horiz-adv-x="599" 
d="M346 0l52 246q-28 -14 -65.5 -24t-75.5 -10q-59 0 -102.5 20.5t-63 61.5t-7.5 103q8 38 24.5 73.5t39.5 69.5h130q-50 -69 -64 -134q-10 -49 9 -72t74 -23q38 0 67 8.5t55 25.5l41 195h135l-114 -540h-135z" />
    <glyph glyph-name="uni2007" unicode="&#x2007;" horiz-adv-x="656" 
 />
    <glyph glyph-name="space" unicode=" " horiz-adv-x="220" 
 />
    <glyph glyph-name="uni00A0" unicode="&#xa0;" horiz-adv-x="220" 
 />
    <glyph glyph-name="CR" unicode="&#xd;" horiz-adv-x="220" 
 />
    <glyph glyph-name="uni0E3F" unicode="&#xe3f;" horiz-adv-x="636" 
d="M187 -86l18 86h-204l136 644h205l19 86h98l-19 -86h23q92 0 132 -48.5t23 -125.5q-11 -52 -38 -86.5t-65 -53.5q42 -14 61 -48.5t6 -93.5q-20 -93 -78.5 -140.5t-164.5 -47.5h-36l-18 -86h-98zM216 377h70l35 167h-70zM384 377q47 0 72.5 21.5t33.5 60.5q8 41 -6.5 62
t-64.5 23zM157 99h69l39 180h-70zM324 99h4q51 0 79.5 21t39.5 74q8 41 -9.5 62.5t-74.5 22.5z" />
    <glyph glyph-name="uni20B5" unicode="&#x20b5;" horiz-adv-x="600" 
d="M210 -120l25 118q-112 21 -163.5 104.5t-23.5 213.5q29 140 108.5 226.5t216.5 105.5l19 87h99l-17 -81q50 -1 90 -9.5t74 -22.5l-25 -118q-73 32 -164 35l-92 -435q44 1 90 9.5t89 24.5l-25 -119q-40 -13 -84 -20t-95 -9l-23 -110h-99zM260 114l88 413q-67 -19 -106 -72
t-57 -139q-18 -82 -2 -132.5t77 -69.5z" />
    <glyph glyph-name="cent" unicode="&#xa2;" horiz-adv-x="497" 
d="M181 -86l16 78q-97 11 -143.5 73t-22.5 172q23 113 93.5 173.5t177.5 70.5l17 79h99l-17 -79q57 -6 98 -27l-21 -97q-18 10 -43.5 17t-54.5 8l-62 -290q29 2 57 8.5t54 18.5l-21 -100q-26 -10 -54 -16.5t-57 -9.5l-17 -79h-99zM220 99l59 275q-43 -13 -71 -45t-40 -92
q-13 -58 -3 -92t55 -46z" />
    <glyph glyph-name="colonmonetary" unicode="&#x20a1;" horiz-adv-x="551" 
d="M61 -31l49 105q-47 34 -64 93t1 144q31 146 111.5 218.5t202.5 82.5l28 59h80l-27 -58q26 -1 48 -6l30 64h80l-39 -83l18 -6l-25 -118l-43 17l-157 -336q35 3 69 11.5t71 21.5l-25 -119q-41 -13 -81 -20.5t-88 -8.5l-28 -61h-80l30 65q-26 3 -46 9l-35 -74h-80zM274 146
l164 350q-22 3 -46 3h-4l-160 -344q20 -8 46 -9zM175 214l127 270q-47 -18 -75.5 -60.5t-42.5 -112.5q-7 -31 -9.5 -54.5t0.5 -42.5z" />
    <glyph glyph-name="currency" unicode="&#xa4;" horiz-adv-x="571" 
d="M51 48l-45 73l93 59q-17 39 -6 89q5 24 16 46.5t27 41.5l-66 60l75 73l68 -65q25 16 53.5 25t59.5 9q59 0 99 -35l97 65l44 -72l-94 -60q17 -39 8 -88q-5 -24 -17 -46.5t-28 -42.5l67 -60l-73 -72l-71 64q-25 -16 -53.5 -25t-58.5 -9t-55 9t-44 25zM265 174
q40 0 73.5 27.5t42.5 67.5q8 40 -10.5 68t-64.5 28q-40 0 -73 -28t-41 -68q-9 -40 9 -67.5t64 -27.5z" />
    <glyph glyph-name="dollar" unicode="$" horiz-adv-x="555" 
d="M157 -86l16 77q-54 2 -98.5 10t-76.5 24l25 119q37 -17 82.5 -27.5t91.5 -12.5l38 176l-11 3q-86 23 -123 67.5t-21 118.5q17 77 76.5 124t157.5 58l17 79h99l-17 -77q46 -2 83 -9.5t61 -16.5l-26 -119q-31 13 -67.5 21t-74.5 9l-35 -166q99 -31 129 -80t16 -116
q-16 -71 -72 -119t-154 -62l-17 -81h-99zM261 401l28 131q-29 -6 -48 -21t-24 -42q-5 -25 4.5 -40t39.5 -28zM298 111q26 7 41.5 22t21.5 43q5 26 -2 42t-32 29z" />
    <glyph glyph-name="dong" unicode="&#x20ab;" horiz-adv-x="591" 
d="M196 -10q-59 0 -103 25.5t-62.5 79.5t-0.5 139q27 127 100 188.5t179 61.5q80 0 128 -36l17 79h-139l19 90h139l12 57h135l-12 -57h51l-19 -90h-51l-112 -527h-116l1 44q-37 -27 -76.5 -40.5t-89.5 -13.5zM254 89q63 0 116 43l45 216q-32 37 -92 37q-59 0 -99 -36.5
t-57 -116.5q-16 -76 4 -109.5t83 -33.5zM-1 -147l22 100h446l-22 -100h-446z" />
    <glyph glyph-name="Euro" unicode="&#x20ac;" horiz-adv-x="583" 
d="M325 -10q-115 0 -176.5 55.5t-68.5 151.5h-68l17 77h54q2 9 3.5 18t3.5 19q2 9 4 18.5t4 18.5h-54l17 77h61q26 71 68.5 122t109.5 79t166 28q39 0 66 -4t50 -11t49 -17l-25 -116q-39 18 -72.5 25.5t-83.5 7.5q-76 0 -119.5 -28.5t-69.5 -85.5h191l-17 -77h-200l-4 -18
t-4 -19l-8 -37h201l-17 -77h-189q3 -48 36 -70.5t111 -22.5q47 0 84 7.5t83 23.5l-24 -116q-45 -13 -83 -21t-96 -8z" />
    <glyph glyph-name="florin" unicode="&#x192;" horiz-adv-x="517" 
d="M-56 -123q-33 0 -56.5 5t-42.5 14l40 93q27 -11 55 -11q39 0 65 14.5t45 62.5l133 315h-66l44 104h66l20 48q21 49 51 87t75 59.5t112 21.5q33 0 57 -5t42 -14l-40 -93q-12 5 -24.5 8t-29.5 3q-43 0 -67 -15.5t-41 -53.5l-20 -46h120l-50 -104h-114l-137 -325
q-21 -49 -51.5 -87t-75.5 -59.5t-110 -21.5z" />
    <glyph glyph-name="uni20B2" unicode="&#x20b2;" horiz-adv-x="644" 
d="M233 -120l24 113q-128 14 -184 97t-26 221q31 145 119.5 234t230.5 105l18 85h99l-18 -82q44 -1 81 -8t69 -18l-25 -116q-33 13 -70.5 19.5t-78.5 7.5l-38 -178h193l-67 -315q-32 -18 -83 -33t-122 -20l-23 -112h-99zM281 107l91 425q-76 -16 -122 -71t-66 -150
q-19 -89 0.5 -140.5t96.5 -63.5zM380 106q22 3 43 7.5t40 10.5l32 150h-80z" />
    <glyph glyph-name="lira" unicode="&#x20a4;" horiz-adv-x="494" 
d="M-19 0l22 104h23q26 0 42.5 16t22.5 42l2 9h-66l20 94h66l8 37h-66l20 94h66l18 86q17 79 71.5 125.5t145.5 46.5q38 0 67.5 -5.5t50.5 -16.5l-20 -93q-13 7 -35.5 10.5t-42.5 3.5q-88 0 -104 -79l-16 -78h166l-24 -94h-162l-8 -37h166l-24 -94h-162l-1 -2
q-4 -23 -12 -38.5t-25 -26.5h232l-22 -104h-419z" />
    <glyph glyph-name="uni20BA" unicode="&#x20ba;" horiz-adv-x="582" 
d="M60 0l62 292l-85 -26l15 72l85 26l14 66l-85 -26l16 72l84 26l30 142h127l-21 -100l180 56l-15 -71l-180 -56l-14 -67l180 56l-15 -71l-180 -56l-52 -241q95 3 144 44.5t68 132.5l12 55h128l-9 -42q-30 -142 -120 -213t-245 -71h-124z" />
    <glyph glyph-name="uni20A6" unicode="&#x20a6;" horiz-adv-x="672" 
d="M39 0l36 174h-58l19 87h58l18 85h-58l19 87h57l45 211h117l140 -427l90 427h135l-45 -211h58l-19 -87h-57l-18 -85h57l-19 -87h-57l-36 -174h-118l-139 426l-90 -426h-135z" />
    <glyph glyph-name="peseta" unicode="&#x20a7;" horiz-adv-x="1250" 
d="M1 0l136 644h212q71 0 114 -29t58.5 -79t1.5 -114q-21 -98 -91.5 -159t-180.5 -61h-73l-42 -202h-135zM201 309h50q58 0 94 30.5t47 82.5q14 60 -6.5 87.5t-76.5 27.5h-59zM944 -10q-53 0 -99 7.5t-73 18.5l24 112q32 -14 74.5 -21.5t79.5 -7.5q50 0 72 6t26 27
q5 24 -24.5 35t-86.5 31q-61 22 -89.5 53t-15.5 92q15 68 70 104.5t169 36.5q44 0 82 -6.5t63 -15.5l-24 -111q-24 13 -57.5 19.5t-63.5 6.5q-43 0 -69.5 -6t-31.5 -26q-4 -22 21 -31t80 -27q53 -17 80.5 -37t35 -47.5t-1.5 -68.5q-15 -71 -70.5 -107.5t-170.5 -36.5z
M640 -10q-79 0 -111 43t-16 117l18 82h-54l21 100h54l24 112l141 30l-30 -142h120l-24 -100h-117l-16 -76q-7 -34 3.5 -52t55.5 -18q27 0 60 10l-19 -88q-48 -18 -110 -18z" />
    <glyph glyph-name="uni20B1" unicode="&#x20b1;" horiz-adv-x="629" 
d="M1 0l70 331h-35l17 80h35l5 24h-35l17 80h35l27 129h272q77 0 122 -35.5t55 -93.5h56l-17 -80h-40q0 -4 -0.5 -7t-1.5 -6l-3 -11h40l-17 -80h-54q-33 -60 -92.5 -94.5t-145.5 -34.5h-133l-42 -202h-135zM240 515h207q-19 27 -81 27h-120zM218 411h231l3 11l3 13h-232z
M195 304h115q29 0 52 7t39 20h-200z" />
    <glyph glyph-name="uni20BD" unicode="&#x20bd;" horiz-adv-x="644" 
d="M37 0l15 73h-56l23 107h56l10 50h-56l23 107h56l65 307h292q107 0 151.5 -57.5t25.5 -149.5q-20 -98 -87 -152.5t-186 -54.5h-149l-10 -50h116l-23 -107h-116l-15 -73h-135zM243 337h125q62 0 94.5 21.5t42.5 73.5q12 61 -7.5 83t-81.5 22h-130z" />
    <glyph glyph-name="uni20B9" unicode="&#x20b9;" horiz-adv-x="454" 
d="M154 0l-36 167q-7 32 -25 44t-65 12l17 82h56q53 0 94 20.5t57 74.5h-185l17 82h184q-1 38 -27 59t-73 21h-68l17 82h380l-17 -82h-109q33 -28 31 -80h61l-17 -82h-60q-19 -61 -63 -97t-110 -53q22 -14 30 -30t13 -42l38 -178h-140z" />
    <glyph glyph-name="sterling" unicode="&#xa3;" horiz-adv-x="494" 
d="M-19 0l22 104h23q26 0 42.5 16t22.5 42l27 127h-66l22 104h66l19 89q17 79 73.5 125.5t143.5 46.5q38 0 67.5 -5.5t50.5 -16.5l-20 -93q-13 7 -35.5 10.5t-42.5 3.5q-45 0 -70 -19.5t-34 -59.5l-17 -81h166l-27 -104h-161l-26 -120q-4 -23 -12 -38.5t-25 -26.5h232
l-22 -104h-419z" />
    <glyph glyph-name="yen" unicode="&#xa5;" horiz-adv-x="671" 
d="M212 0l18 85h-145l16 79h145l12 55h-145l17 79h110l-123 346h137l97 -291l219 291h144l-270 -346h111l-17 -79h-145l-12 -55h145l-16 -79h-145l-18 -85h-135z" />
    <glyph glyph-name="uni2219" unicode="&#x2219;" horiz-adv-x="186" 
d="M37 268l22 103h112l-22 -103h-112z" />
    <glyph glyph-name="uni2215" unicode="&#x2215;" horiz-adv-x="529" 
d="M-19 0l457 662h137l-456 -662h-138z" />
    <glyph glyph-name="plus" unicode="+" horiz-adv-x="470" 
d="M144 85l28 134h-140l22 105h140l29 137h106l-29 -137h140l-22 -105h-140l-28 -134h-106z" />
    <glyph glyph-name="minus" unicode="&#x2212;" horiz-adv-x="460" 
d="M27 219l22 105h386l-22 -105h-386z" />
    <glyph glyph-name="multiply" unicode="&#xd7;" horiz-adv-x="418" 
d="M275 78l-83 105l-122 -100l-54 67l123 101l-83 104l81 67l81 -105l128 104l53 -67l-128 -105l83 -105z" />
    <glyph glyph-name="divide" unicode="&#xf7;" horiz-adv-x="460" 
d="M210 397l20 95h106l-20 -95h-106zM32 219l22 105h386l-22 -105h-386zM137 55l20 95h106l-20 -95h-106z" />
    <glyph glyph-name="equal" unicode="=" horiz-adv-x="464" 
d="M46 306l20 94h389l-20 -94h-389zM10 141l21 95h389l-21 -95h-389z" />
    <glyph glyph-name="notequal" unicode="&#x2260;" horiz-adv-x="464" 
d="M67 80l34 61h-91l21 95h124l40 70h-149l20 94h183l30 53h107l-30 -53h99l-20 -94h-133l-40 -70h158l-21 -95h-191l-34 -61h-107z" />
    <glyph glyph-name="greater" unicode="&#x3e;" horiz-adv-x="542" 
d="M-12 37l27 130l355 141l-295 140l27 122l423 -211l-24 -111z" />
    <glyph glyph-name="less" unicode="&#x3c;" horiz-adv-x="542" 
d="M456 37l-423 211l24 111l513 211l-27 -130l-355 -140l295 -141z" />
    <glyph glyph-name="greaterequal" unicode="&#x2265;" horiz-adv-x="542" 
d="M6 121l24 117l354 136l-296 136l24 109l425 -203l-20 -92zM-19 0l19 92h468l-19 -92h-468z" />
    <glyph glyph-name="lessequal" unicode="&#x2264;" horiz-adv-x="542" 
d="M474 121l-425 203l20 92l511 203l-24 -117l-354 -136l296 -136zM-19 0l19 92h468l-19 -92h-468z" />
    <glyph glyph-name="plusminus" unicode="&#xb1;" horiz-adv-x="470" 
d="M156 145l29 134h-140l22 105h140l29 137h106l-29 -137h140l-22 -105h-140l-29 -134h-106zM-14 0l22 105h386l-22 -105h-386z" />
    <glyph glyph-name="approxequal" unicode="&#x2248;" horiz-adv-x="464" 
d="M329 280q-28 0 -48.5 8t-39 18.5t-39.5 18.5t-50 8q-31 0 -55.5 -7.5t-53.5 -33.5l21 102q23 19 50.5 26.5t57.5 7.5t52.5 -8t41.5 -18.5t40 -18.5t48 -8q29 0 52.5 8t51.5 33l-22 -103q-21 -19 -49 -26t-58 -7zM294 114q-28 0 -48.5 8t-39 18.5t-39.5 18.5t-50 8
q-31 0 -55.5 -7.5t-54.5 -33.5l22 101q22 19 50 26.5t58 7.5t52.5 -8t41.5 -18.5t40 -18.5t48 -8q29 0 52 8t51 33l-21 -102q-22 -19 -49.5 -26t-57.5 -7z" />
    <glyph glyph-name="asciitilde" unicode="~" horiz-adv-x="552" 
d="M384 206q-33 0 -60.5 10.5t-53 23.5t-53 23.5t-59.5 10.5q-73 0 -132 -59l28 133q23 23 58 37t72 14q34 0 62 -10.5t54.5 -23.5t53 -23.5t57.5 -10.5q38 0 68 13.5t61 44.5l-28 -133q-22 -24 -56 -37t-72 -13z" />
    <glyph glyph-name="logicalnot" unicode="&#xac;" horiz-adv-x="517" 
d="M345 136l29 134h-336l22 105h442l-51 -239h-106z" />
    <glyph glyph-name="asciicircum" unicode="^" horiz-adv-x="493" 
d="M62 382l210 242h95l113 -242h-121l-54 144l-113 -144h-130z" />
    <glyph glyph-name="infinity" unicode="&#x221e;" horiz-adv-x="691" 
d="M171 125q-72 0 -109.5 39t-21.5 118q17 79 71.5 117.5t126.5 38.5q47 0 79.5 -22t47.5 -57q31 35 73 57t88 22q72 0 109.5 -38.5t20.5 -117.5q-16 -79 -70.5 -118t-126.5 -39q-46 0 -78.5 22t-48.5 57q-30 -35 -72 -57t-89 -22zM196 213q32 0 59 18t49 50q-9 35 -28 52.5
t-51 17.5q-37 0 -59.5 -18.5t-29.5 -50.5t8 -50.5t52 -18.5zM473 213q37 0 59 18.5t29 50.5t-7.5 50.5t-51.5 18.5q-62 0 -110 -71q11 -32 30 -49.5t51 -17.5z" />
    <glyph glyph-name="integral" unicode="&#x222b;" horiz-adv-x="432" 
d="M34 -123q-33 0 -57.5 5t-44.5 14l19 93q14 -5 28 -8t30 -3q43 0 64 16t28 53l101 475q16 74 68 121t134 47q33 0 58 -5t45 -14l-20 -93q-13 5 -26.5 8t-30.5 3q-43 0 -64 -15.5t-29 -53.5l-101 -475q-16 -73 -67.5 -120.5t-134.5 -47.5z" />
    <glyph glyph-name="uni2126" unicode="&#x2126;" horiz-adv-x="759" 
d="M-12 0l21 100h128q-51 41 -74 111.5t-5 154.5q21 98 72.5 172t135.5 115.5t204 41.5q105 0 172 -44t93 -118.5t7 -166.5q-19 -90 -68 -157.5t-123 -108.5h128l-21 -100h-286l21 103q91 45 142.5 109t68.5 146q15 69 5.5 118.5t-48.5 76.5t-115 27q-109 0 -170 -61.5
t-82 -160.5q-18 -82 6.5 -146t94.5 -109l-21 -103h-286z" />
    <glyph glyph-name="product" unicode="&#x220f;" horiz-adv-x="633" 
d="M-27 -129l178 835h518l-178 -835h-135l155 731h-248l-155 -731h-135z" />
    <glyph glyph-name="summation" unicode="&#x2211;" horiz-adv-x="536" 
d="M-45 -120l17 79l293 303l-165 302l17 80h462l-22 -105h-290l151 -277l-269 -278h290l-22 -104h-462z" />
    <glyph glyph-name="radical" unicode="&#x221a;" horiz-adv-x="700" 
d="M217 0l-55 347h-108l23 105h198l36 -295l310 557h136l-402 -714h-138z" />
    <glyph glyph-name="partialdiff" unicode="&#x2202;" horiz-adv-x="627" 
d="M194 -10q-77 0 -122 29t-55.5 78.5t15.5 111.5q44 102 119.5 155.5t191.5 53.5q36 0 74.5 -11.5t61.5 -34.5l8 19q19 48 21 85t-22 57.5t-86 20.5q-44 0 -89.5 -7t-84.5 -22l42 100q79 29 179 29q84 0 129 -41t51 -107t-26 -142l-51 -121q-36 -86 -82 -142t-111.5 -83.5
t-162.5 -27.5zM230 85q66 0 110.5 34t72.5 99l26 62q-19 20 -45 31.5t-66 11.5q-70 0 -110.5 -29.5t-66.5 -89.5q-26 -59 -11 -89t90 -30z" />
    <glyph glyph-name="uni00B5" unicode="&#xb5;" horiz-adv-x="593" 
d="M-30 -143l131 617h135l-62 -294q-10 -48 8 -69.5t64 -21.5q35 0 68 14t58 35l71 336h135l-100 -474h-125l4 45q-35 -24 -79 -39.5t-100 -15.5q-12 0 -24 2.5t-19 5.5l-30 -141h-135z" />
    <glyph glyph-name="percent" unicode="%" horiz-adv-x="742" 
d="M201 355q-66 0 -97 40t-18 103q16 72 58.5 114t120.5 42q69 0 98 -42t13 -114q-13 -63 -55.5 -103t-119.5 -40zM81 0l475 644h128l-476 -644h-127zM217 432q35 0 54.5 18.5t26.5 49.5q8 40 -2 58t-48 18q-34 0 -53.5 -18t-27.5 -58q-7 -31 3 -49.5t47 -18.5zM502 -10
q-66 0 -97 40t-18 103q16 72 58.5 114t120.5 42q69 0 98 -42t13 -114q-13 -63 -55.5 -103t-119.5 -40zM518 67q35 0 54.5 18.5t26.5 49.5q8 40 -2 58t-48 18q-34 0 -53.5 -18t-27.5 -58q-7 -31 3 -49.5t47 -18.5z" />
    </font>
</defs>
</svg>
